M48
; DRILL file {KiCad (5.1.0-0)} date Friday, 29 January 2021 at 15:13:13
; FORMAT={-:-/ absolute / inch / decimal}
; #@! TF.CreationDate,2021-01-29T15:13:13+00:00
; #@! TF.GenerationSoftware,Kicad,Pcbnew,(5.1.0-0)
; #@! TF.FileFunction,NonPlated,1,2,NPTH
FMAT,2
INCH
T1C0.0256
T2C0.0670
T3C0.0689
T4C0.1181
T5C0.1200
T6C0.1570
%
G90
G05
T1
X6.9079Y1.3287
X7.1354Y1.3287
T2
X6.175Y0.0
X6.575Y0.0
T3
X5.1437Y0.375
X5.5438Y0.375
X5.3312Y-0.375
X5.7313Y-0.375
X-2.3562Y0.375
X-1.9563Y0.375
X1.5813Y-0.375
X1.9812Y-0.375
X-3.7625Y-1.125
X2.7062Y-1.125
X3.1062Y-1.125
X-1.6062Y0.375
X-1.2063Y0.375
X2.3312Y-0.375
X2.7312Y-0.375
X1.0188Y1.125
X1.4187Y1.125
X4.7687Y1.125
X5.1688Y1.125
X2.5187Y1.125
X2.9187Y1.125
X4.3937Y0.375
X4.7938Y0.375
X-3.1062Y0.375
X-2.7062Y0.375
X-3.3625Y-1.125
X0.2687Y1.125
X0.6687Y1.125
X-2.5437Y-1.125
X6.6437Y-1.875
X7.0438Y-1.875
X-2.1437Y-1.125
X-2.1687Y-0.375
X-1.7688Y-0.375
X0.4562Y-1.125
X0.8562Y-1.125
X4.2062Y-1.125
X4.6063Y-1.125
X-3.1062Y-1.875
X-2.7062Y-1.875
X1.7688Y1.125
X2.1687Y1.125
X-4.0438Y0.375
X-3.6437Y0.375
X-2.1687Y-1.875
X-1.7688Y-1.875
X1.0188Y-1.875
X0.6437Y0.375
X1.4187Y-1.875
X-4.2313Y1.125
X-3.8312Y1.125
X5.8937Y-1.875
X6.2938Y-1.875
X-0.2938Y-1.125
X0.1062Y-1.125
X5.8Y-0.375
X6.2Y-0.375
X-1.9812Y1.125
X-1.5813Y1.125
X-0.1062Y0.375
X0.2938Y0.375
X7.3937Y-1.875
X7.7938Y-1.875
X1.0437Y0.375
X0.8312Y-0.375
X-3.4812Y1.125
X1.2312Y-0.375
X-3.0812Y1.125
X5.8937Y1.125
X2.1437Y0.375
X2.5437Y0.375
X-1.0437Y-1.125
X-0.6437Y-1.125
X6.2938Y1.125
X-0.4813Y1.125
X-0.0813Y1.125
X4.0187Y1.125
X4.4188Y1.125
X6.0812Y0.375
X6.4812Y0.375
X-2.7312Y1.125
X-2.3312Y1.125
X3.6437Y0.375
X4.0438Y0.375
X0.0813Y-0.375
X0.4813Y-0.375
X-0.6687Y-0.375
X-0.2687Y-0.375
X3.2687Y1.125
X3.6687Y1.125
X1.3938Y0.375
X1.7937Y0.375
X-1.7937Y-1.125
X-1.3938Y-1.125
X-3.95Y-0.375
X-3.55Y-0.375
X-2.9187Y-0.375
X-2.5187Y-0.375
X2.8937Y0.375
X-3.2937Y-1.125
X-2.8937Y-1.125
X3.2937Y0.375
X-1.4187Y-0.375
X-1.0188Y-0.375
X-4.0438Y-1.875
X-3.6437Y-1.875
X5.425Y-1.125
X5.825Y-1.125
X4.5812Y-0.375
X-4.1375Y-1.125
X-3.7375Y-1.125
X3.8312Y-0.375
X4.2313Y-0.375
X1.2063Y-1.125
X1.6062Y-1.125
X4.9813Y-0.375
X1.9563Y-1.125
X2.3562Y-1.125
X4.2062Y-1.875
X4.6063Y-1.875
X3.4562Y-1.125
X3.8562Y-1.125
X-0.8562Y0.375
X-0.4562Y0.375
X3.0812Y-0.375
X3.4812Y-0.375
X-1.2312Y1.125
X-0.8312Y1.125
X6.6437Y-1.125
X7.0438Y-1.125
T4
X-1.1812Y1.225
X-0.9313Y1.325
X2.5688Y1.225
X2.8188Y1.325
X4.4437Y0.475
X6.9437Y-0.925
X5.1937Y0.475
X-2.3062Y0.475
X-2.0562Y0.575
X1.6312Y-0.275
X1.8812Y-0.175
X-3.7125Y-1.025
X-3.4625Y-0.925
X0.3187Y1.225
X0.5687Y1.325
X-2.4937Y-1.025
X-2.1187Y-0.275
X4.6937Y0.575
X-2.2437Y-0.925
X-3.0562Y0.475
X5.4437Y0.575
X-2.8062Y0.575
X6.6937Y-1.025
X6.6937Y-1.775
X6.9437Y-1.675
X-1.8687Y-0.175
X4.2562Y-1.025
X4.5062Y-0.925
X1.8187Y1.225
X2.0688Y1.325
X-3.9937Y0.475
X-3.7437Y0.575
X0.5062Y-1.025
X-2.1187Y-1.775
X-1.8687Y-1.675
X0.7562Y-0.925
X-3.0562Y-1.775
X-2.8062Y-1.675
X0.6937Y0.475
X0.9437Y0.575
X-3.4312Y1.225
X-3.1812Y1.325
X1.0687Y-1.775
X1.3187Y-1.675
X-4.1812Y1.225
X-3.9312Y1.325
X5.9437Y-1.775
X6.1937Y-1.675
X-0.2437Y-1.025
X0.0062Y-0.925
X5.85Y-0.275
X6.1Y-0.175
X-1.9312Y1.225
X-1.6812Y1.325
X-0.0563Y0.475
X0.1938Y0.575
X7.4437Y-1.775
X2.1938Y0.475
X2.4438Y0.575
X-0.9938Y-1.025
X-0.7438Y-0.925
X4.0687Y1.225
X4.3187Y1.325
X6.1312Y0.475
X6.3812Y0.575
X-2.6812Y1.225
X-2.4312Y1.325
X3.6938Y0.475
X3.9438Y0.575
X0.1313Y-0.275
X0.3812Y-0.175
X7.6937Y-1.675
X0.8812Y-0.275
X1.1312Y-0.175
X5.9437Y1.225
X-0.6188Y-0.275
X-0.3687Y-0.175
X3.3188Y1.225
X3.5688Y1.325
X6.1937Y1.325
X-0.4312Y1.225
X-0.1812Y1.325
X1.4437Y0.475
X1.6937Y0.575
X-1.7437Y-1.025
X-1.4937Y-0.925
X-3.9Y-0.275
X-3.65Y-0.175
X-2.8687Y-0.275
X-2.6187Y-0.175
X2.9438Y0.475
X3.1938Y0.575
X-1.3687Y-0.275
X-3.2437Y-1.025
X-2.9937Y-0.925
X-4.0875Y-1.025
X-3.8375Y-0.925
X3.8813Y-0.275
X4.1312Y-0.175
X-1.1187Y-0.175
X5.475Y-1.025
X1.2562Y-1.025
X1.5062Y-0.925
X5.725Y-0.925
X4.6312Y-0.275
X4.8812Y-0.175
X2.0063Y-1.025
X2.2563Y-0.925
X5.3812Y-0.275
X5.6312Y-0.175
X2.7563Y-1.025
X3.0063Y-0.925
X4.2562Y-1.775
X4.5062Y-1.675
X3.5063Y-1.025
X3.7563Y-0.925
X-1.5562Y0.475
X-1.3062Y0.575
X-0.8063Y0.475
X-0.5563Y0.575
X3.1313Y-0.275
X2.3813Y-0.275
X2.6313Y-0.175
X1.0687Y1.225
X1.3187Y1.325
X6.225Y0.1
X6.475Y0.2
X4.8187Y1.225
X-3.9937Y-1.775
X-3.7437Y-1.675
X5.0687Y1.325
X3.3813Y-0.175
T5
X6.1Y-0.47
X-3.0925Y-0.85
X-1.0312Y-1.6
X5.53Y-0.1
X6.47Y-0.1
X5.6238Y1.4
X6.5637Y1.4
X5.155Y-0.85
X6.095Y-0.85
X6.1Y0.47
X-4.0325Y-0.85
X3.4688Y-1.6
T6
X-0.6562Y0.375
X6.375Y0.0
X6.7Y0.47
X6.7Y-0.47
X4.9688Y1.125
X3.2812Y-0.375
X2.7188Y1.125
X4.5938Y0.375
X-1.0312Y1.125
X-2.9062Y0.375
X6.8438Y-1.125
X5.3438Y0.375
X-2.1562Y0.375
X1.7812Y-0.375
X-4.0325Y-1.45
X-3.5625Y-1.125
X-3.0925Y-1.45
X0.4688Y1.125
X-2.3438Y-1.125
X6.8438Y-1.875
X-1.9688Y-0.375
X4.4062Y-1.125
X-2.9062Y-1.875
X1.9688Y1.125
X-3.8438Y0.375
X0.8438Y0.375
X-1.9688Y-1.875
X-1.0312Y-2.2
X-3.2812Y1.125
X1.2188Y-1.875
X0.6562Y-1.125
X3.4688Y-2.2
X2.3438Y0.375
X-0.8438Y-1.125
X-4.0312Y1.125
X4.2188Y1.125
X6.0938Y-1.875
X-0.0938Y-1.125
X5.53Y-0.7
X6.2812Y0.375
X-2.5312Y1.125
X6.0Y-0.375
X6.47Y-0.7
X3.8438Y0.375
X-1.7812Y1.125
X0.0938Y0.375
X0.2812Y-0.375
X7.5938Y-1.875
X1.0312Y-0.375
X5.6238Y0.8
X6.0938Y1.125
X6.5637Y0.8
X-0.2812Y1.125
X1.5938Y0.375
X-1.5938Y-1.125
X-3.75Y-0.375
X-2.7188Y-0.375
X-0.4688Y-0.375
X3.4688Y1.125
X-3.0937Y-1.125
X-3.9375Y-1.125
X3.0938Y0.375
X4.0312Y-0.375
X-1.2188Y-0.375
X-3.8438Y-1.875
X1.4062Y-1.125
X5.155Y-1.45
X5.625Y-1.125
X6.095Y-1.45
X4.7812Y-0.375
X2.1562Y-1.125
X4.4062Y-1.875
X3.6562Y-1.125
X5.5312Y-0.375
X2.9062Y-1.125
X-1.4062Y0.375
X2.5312Y-0.375
X1.2188Y1.125
T0
M30
