M48
; DRILL file {KiCad (5.1.0-0)} date Friday, 29 January 2021 at 15:13:13
; FORMAT={-:-/ absolute / inch / decimal}
; #@! TF.CreationDate,2021-01-29T15:13:13+00:00
; #@! TF.GenerationSoftware,Kicad,Pcbnew,(5.1.0-0)
; #@! TF.FileFunction,Plated,1,2,PTH
FMAT,2
INCH
T1C0.0157
T2C0.0236
T3C0.0394
T4C0.0591
T5C0.1378
T6C0.2165
%
G90
G05
T1
X-3.6535Y1.2244
X-3.4219Y-1.5703
X-3.3281Y-1.4766
X-3.2812Y-1.2422
X-3.2795Y0.4764
X-3.1641Y-1.6406
X-3.0866Y-0.2717
X-2.9055Y1.2244
X-2.7165Y-1.0236
X-2.53Y0.4709
X-2.3425Y-0.2717
X-2.25Y-1.6875
X-2.155Y1.225
X-1.9685Y-1.0236
X-1.7835Y0.4724
X-1.5945Y-0.2717
X-1.4055Y1.2244
X-1.2205Y-1.0236
X-1.0312Y0.4687
X-0.8465Y-0.2717
X-0.655Y1.225
X-0.4685Y-1.0276
X-0.2795Y0.4724
X-0.0906Y-0.2835
X0.0945Y1.2244
X0.2835Y-1.0276
X0.4685Y0.4764
X0.6575Y-0.2756
X0.68Y-1.775
X0.8425Y1.2244
X1.03Y-1.03
X1.2205Y0.4764
X1.4055Y-0.2677
X1.5945Y1.2244
X1.765Y-1.025
X1.9685Y0.4724
X2.155Y-0.275
X2.3465Y1.2244
X2.52Y-1.045
X2.7165Y0.4764
X2.92Y-0.275
X3.0945Y1.2244
X3.265Y-1.04
X3.47Y0.47
X3.67Y-0.275
X3.8425Y1.2244
X4.015Y-1.765
X4.0315Y-1.0315
X4.21Y0.47
X4.39Y-0.27
X4.5945Y1.2244
X4.9437Y0.1859
X4.9724Y0.4724
X4.9922Y-0.4922
X5.1312Y-0.0016
X5.1328Y-0.4922
X5.165Y-0.28
X5.165Y-1.03
X5.4139Y-0.7265
X5.4869Y-0.8399
X5.5547Y0.2578
X5.6024Y-0.8622
X5.625Y-0.2812
X5.6483Y-0.8254
X5.67Y1.225
X5.6952Y-0.6335
X5.6952Y-0.7082
X5.7186Y-0.7683
X5.815Y-1.68
X5.8828Y-1.0153
X5.8828Y-1.0547
X5.93Y0.055
X5.9585Y-0.2578
X6.0234Y-0.0703
X6.2344Y0.5156
X6.2812Y0.6328
X6.3269Y-0.2138
X6.3281Y-0.1172
X6.3281Y-1.0547
X6.3999Y-0.8529
X6.4219Y-0.8203
X6.43Y-1.0547
X6.44Y-1.305
X6.445Y-1.57
X6.49Y-1.03
X6.555Y-1.66
X6.5859Y-0.8437
X6.6142Y-0.6299
X6.6872Y-0.2779
X6.715Y-0.25
X6.7402Y-0.2898
X6.76Y-0.17
X6.7683Y-0.9646
X6.7852Y-0.2102
X6.8189Y-0.5906
X6.8189Y-0.8819
X6.9449Y-0.2677
X6.9962Y-0.3039
X7.1457Y-1.0039
X7.1732Y0.2441
X7.1969Y0.2756
X7.2244Y-0.2008
X7.23Y-1.765
X7.2362Y0.1811
X7.2638Y-0.2577
X7.2756Y0.2121
X7.2761Y0.2515
X7.2791Y-0.598
X7.3183Y-0.6018
X7.3196Y-0.7087
X7.3249Y-0.7501
X7.3307Y-0.1496
X7.3465Y-0.8583
X7.3858Y-0.8583
X7.4123Y-0.4413
X7.4488Y0.312
X7.4515Y-0.4382
X7.4724Y-0.3386
X7.5197Y-0.3307
X7.5276Y-0.4024
X7.539Y-0.4409
X7.5433Y-0.4803
T3
X7.1719Y0.8438
X7.1719Y0.7453
X7.1719Y0.6469
X7.7427Y0.8438
X7.7427Y0.6469
T5
X2.414Y-1.875
X0.0234Y-1.875
X7.5936Y-1.125
X-3.2577Y-0.4453
T6
X7.4672Y0.7453
T2
G00X6.8516Y1.4843
M15
G01X6.8516Y1.4606
M16
G05
G00X6.8516Y1.3295
M15
G01X6.8516Y1.2862
M16
G05
G00X7.1917Y1.4843
M15
G01X7.1917Y1.4606
M16
G05
G00X7.1917Y1.3295
M15
G01X7.1917Y1.2862
M16
G05
T4
G00X7.4416Y0.9658
M15
G01X7.4927Y0.9658
M16
G05
G00X7.4416Y0.5249
M15
G01X7.4927Y0.5249
M16
G05
T0
M30
