G04 #@! TF.GenerationSoftware,KiCad,Pcbnew,(5.1.0-0)*
G04 #@! TF.CreationDate,2021-01-29T15:13:06+00:00*
G04 #@! TF.ProjectId,PULSE,50554c53-452e-46b6-9963-61645f706362,rev?*
G04 #@! TF.SameCoordinates,Original*
G04 #@! TF.FileFunction,Legend,Bot*
G04 #@! TF.FilePolarity,Positive*
%FSLAX46Y46*%
G04 Gerber Fmt 4.6, Leading zero omitted, Abs format (unit mm)*
G04 Created by KiCad (PCBNEW (5.1.0-0)) date 2021-01-29 15:13:06*
%MOMM*%
%LPD*%
G04 APERTURE LIST*
%ADD10C,0.200000*%
%ADD11C,0.120000*%
%ADD12C,0.150000*%
G04 APERTURE END LIST*
D10*
X202218572Y-8534850D02*
X198859815Y-5176093D01*
X199566921Y-11186501D02*
X202218572Y-8534850D01*
X196208164Y-7827744D02*
X199566921Y-11186501D01*
X198859815Y-5176093D02*
X196208164Y-7827744D01*
X195677200Y10129695D02*
X189777200Y10129695D01*
X195677200Y7729695D02*
X195677200Y10129695D01*
X189777200Y7729695D02*
X195677200Y7729695D01*
X190077200Y10129695D02*
X190077200Y7729695D01*
X190177200Y10129695D02*
X190177200Y7729695D01*
X189977200Y10129695D02*
X189977200Y7729695D01*
X189877200Y10129695D02*
X189877200Y7729695D01*
X189777200Y10129695D02*
X189777200Y7729695D01*
D11*
X199866100Y-4600000D02*
X198866100Y-4600000D01*
X198866100Y-2900000D02*
X199866100Y-2900000D01*
X177435300Y-11550000D02*
X178435300Y-11550000D01*
X178435300Y-13250000D02*
X177435300Y-13250000D01*
X177435300Y-3150000D02*
X178435300Y-3150000D01*
X178435300Y-4850000D02*
X177435300Y-4850000D01*
X202452000Y8177000D02*
X202902000Y7727000D01*
X202452000Y4777000D02*
X202902000Y5227000D01*
X197852000Y4777000D02*
X197402000Y5227000D01*
X197852000Y8177000D02*
X197402000Y7727000D01*
X199152000Y3727000D02*
X201152000Y3727000D01*
X202902000Y7727000D02*
X202902000Y5227000D01*
X199152000Y9227000D02*
X201152000Y9227000D01*
X197402000Y7727000D02*
X197402000Y5227000D01*
X188369500Y2881200D02*
X188369500Y1881200D01*
X186669500Y1881200D02*
X186669500Y2881200D01*
X195543100Y1781200D02*
X195543100Y2981200D01*
X193783100Y2981200D02*
X193783100Y1781200D01*
X182920000Y-18250000D02*
X182920000Y-19450000D01*
X184680000Y-19450000D02*
X184680000Y-18250000D01*
X175720000Y22750000D02*
X175720000Y21550000D01*
X177480000Y21550000D02*
X177480000Y22750000D01*
X178320000Y22785500D02*
X178320000Y21585500D01*
X180080000Y21585500D02*
X180080000Y22785500D01*
X199866100Y-13350000D02*
X198866100Y-13350000D01*
X198866100Y-11650000D02*
X199866100Y-11650000D01*
X199866100Y-2040600D02*
X198866100Y-2040600D01*
X198866100Y-340600D02*
X199866100Y-340600D01*
X189900000Y-18894900D02*
X189900000Y-17894900D01*
X191600000Y-17894900D02*
X191600000Y-18894900D01*
D12*
X182841840Y-2744720D02*
X182841840Y-1469720D01*
X182266840Y-13094720D02*
X182266840Y-12419720D01*
X192616840Y-13094720D02*
X192616840Y-12419720D01*
X192616840Y-2744720D02*
X192616840Y-3419720D01*
X182266840Y-2744720D02*
X182266840Y-3419720D01*
X192616840Y-2744720D02*
X191941840Y-2744720D01*
X192616840Y-13094720D02*
X191941840Y-13094720D01*
X182266840Y-13094720D02*
X182941840Y-13094720D01*
X182266840Y-2744720D02*
X182841840Y-2744720D01*
D11*
X177450000Y1250000D02*
X178450000Y1250000D01*
X178450000Y-450000D02*
X177450000Y-450000D01*
D10*
X-99593750Y25012500D02*
X-105493750Y25012500D01*
X-99593750Y22612500D02*
X-99593750Y25012500D01*
X-105493750Y22612500D02*
X-99593750Y22612500D01*
X-105193750Y25012500D02*
X-105193750Y22612500D01*
X-105093750Y25012500D02*
X-105093750Y22612500D01*
X-105293750Y25012500D02*
X-105293750Y22612500D01*
X-105393750Y25012500D02*
X-105393750Y22612500D01*
X-105493750Y25012500D02*
X-105493750Y22612500D01*
X-80543750Y25012500D02*
X-86443750Y25012500D01*
X-80543750Y22612500D02*
X-80543750Y25012500D01*
X-86443750Y22612500D02*
X-80543750Y22612500D01*
X-86143750Y25012500D02*
X-86143750Y22612500D01*
X-86043750Y25012500D02*
X-86043750Y22612500D01*
X-86243750Y25012500D02*
X-86243750Y22612500D01*
X-86343750Y25012500D02*
X-86343750Y22612500D01*
X-86443750Y25012500D02*
X-86443750Y22612500D01*
X-61493750Y25012500D02*
X-67393750Y25012500D01*
X-61493750Y22612500D02*
X-61493750Y25012500D01*
X-67393750Y22612500D02*
X-61493750Y22612500D01*
X-67093750Y25012500D02*
X-67093750Y22612500D01*
X-66993750Y25012500D02*
X-66993750Y22612500D01*
X-67193750Y25012500D02*
X-67193750Y22612500D01*
X-67293750Y25012500D02*
X-67293750Y22612500D01*
X-67393750Y25012500D02*
X-67393750Y22612500D01*
X-42443750Y25012500D02*
X-48343750Y25012500D01*
X-42443750Y22612500D02*
X-42443750Y25012500D01*
X-48343750Y22612500D02*
X-42443750Y22612500D01*
X-48043750Y25012500D02*
X-48043750Y22612500D01*
X-47943750Y25012500D02*
X-47943750Y22612500D01*
X-48143750Y25012500D02*
X-48143750Y22612500D01*
X-48243750Y25012500D02*
X-48243750Y22612500D01*
X-48343750Y25012500D02*
X-48343750Y22612500D01*
X-23393750Y25012500D02*
X-29293750Y25012500D01*
X-23393750Y22612500D02*
X-23393750Y25012500D01*
X-29293750Y22612500D02*
X-23393750Y22612500D01*
X-28993750Y25012500D02*
X-28993750Y22612500D01*
X-28893750Y25012500D02*
X-28893750Y22612500D01*
X-29093750Y25012500D02*
X-29093750Y22612500D01*
X-29193750Y25012500D02*
X-29193750Y22612500D01*
X-29293750Y25012500D02*
X-29293750Y22612500D01*
X-4343750Y25012500D02*
X-10243750Y25012500D01*
X-4343750Y22612500D02*
X-4343750Y25012500D01*
X-10243750Y22612500D02*
X-4343750Y22612500D01*
X-9943750Y25012500D02*
X-9943750Y22612500D01*
X-9843750Y25012500D02*
X-9843750Y22612500D01*
X-10043750Y25012500D02*
X-10043750Y22612500D01*
X-10143750Y25012500D02*
X-10143750Y22612500D01*
X-10243750Y25012500D02*
X-10243750Y22612500D01*
X14706250Y25012500D02*
X8806250Y25012500D01*
X14706250Y22612500D02*
X14706250Y25012500D01*
X8806250Y22612500D02*
X14706250Y22612500D01*
X9106250Y25012500D02*
X9106250Y22612500D01*
X9206250Y25012500D02*
X9206250Y22612500D01*
X9006250Y25012500D02*
X9006250Y22612500D01*
X8906250Y25012500D02*
X8906250Y22612500D01*
X8806250Y25012500D02*
X8806250Y22612500D01*
X33756250Y25012500D02*
X27856250Y25012500D01*
X33756250Y22612500D02*
X33756250Y25012500D01*
X27856250Y22612500D02*
X33756250Y22612500D01*
X28156250Y25012500D02*
X28156250Y22612500D01*
X28256250Y25012500D02*
X28256250Y22612500D01*
X28056250Y25012500D02*
X28056250Y22612500D01*
X27956250Y25012500D02*
X27956250Y22612500D01*
X27856250Y25012500D02*
X27856250Y22612500D01*
X52806250Y25012500D02*
X46906250Y25012500D01*
X52806250Y22612500D02*
X52806250Y25012500D01*
X46906250Y22612500D02*
X52806250Y22612500D01*
X47206250Y25012500D02*
X47206250Y22612500D01*
X47306250Y25012500D02*
X47306250Y22612500D01*
X47106250Y25012500D02*
X47106250Y22612500D01*
X47006250Y25012500D02*
X47006250Y22612500D01*
X46906250Y25012500D02*
X46906250Y22612500D01*
X71856250Y25012500D02*
X65956250Y25012500D01*
X71856250Y22612500D02*
X71856250Y25012500D01*
X65956250Y22612500D02*
X71856250Y22612500D01*
X66256250Y25012500D02*
X66256250Y22612500D01*
X66356250Y25012500D02*
X66356250Y22612500D01*
X66156250Y25012500D02*
X66156250Y22612500D01*
X66056250Y25012500D02*
X66056250Y22612500D01*
X65956250Y25012500D02*
X65956250Y22612500D01*
X90906250Y25012500D02*
X85006250Y25012500D01*
X90906250Y22612500D02*
X90906250Y25012500D01*
X85006250Y22612500D02*
X90906250Y22612500D01*
X85306250Y25012500D02*
X85306250Y22612500D01*
X85406250Y25012500D02*
X85406250Y22612500D01*
X85206250Y25012500D02*
X85206250Y22612500D01*
X85106250Y25012500D02*
X85106250Y22612500D01*
X85006250Y25012500D02*
X85006250Y22612500D01*
X109956250Y25012500D02*
X104056250Y25012500D01*
X109956250Y22612500D02*
X109956250Y25012500D01*
X104056250Y22612500D02*
X109956250Y22612500D01*
X104356250Y25012500D02*
X104356250Y22612500D01*
X104456250Y25012500D02*
X104456250Y22612500D01*
X104256250Y25012500D02*
X104256250Y22612500D01*
X104156250Y25012500D02*
X104156250Y22612500D01*
X104056250Y25012500D02*
X104056250Y22612500D01*
X129006250Y25012500D02*
X123106250Y25012500D01*
X129006250Y22612500D02*
X129006250Y25012500D01*
X123106250Y22612500D02*
X129006250Y22612500D01*
X123406250Y25012500D02*
X123406250Y22612500D01*
X123506250Y25012500D02*
X123506250Y22612500D01*
X123306250Y25012500D02*
X123306250Y22612500D01*
X123206250Y25012500D02*
X123206250Y22612500D01*
X123106250Y25012500D02*
X123106250Y22612500D01*
X157581250Y25012500D02*
X151681250Y25012500D01*
X157581250Y22612500D02*
X157581250Y25012500D01*
X151681250Y22612500D02*
X157581250Y22612500D01*
X151981250Y25012500D02*
X151981250Y22612500D01*
X152081250Y25012500D02*
X152081250Y22612500D01*
X151881250Y25012500D02*
X151881250Y22612500D01*
X151781250Y25012500D02*
X151781250Y22612500D01*
X151681250Y25012500D02*
X151681250Y22612500D01*
X-94831250Y5962500D02*
X-100731250Y5962500D01*
X-94831250Y3562500D02*
X-94831250Y5962500D01*
X-100731250Y3562500D02*
X-94831250Y3562500D01*
X-100431250Y5962500D02*
X-100431250Y3562500D01*
X-100331250Y5962500D02*
X-100331250Y3562500D01*
X-100531250Y5962500D02*
X-100531250Y3562500D01*
X-100631250Y5962500D02*
X-100631250Y3562500D01*
X-100731250Y5962500D02*
X-100731250Y3562500D01*
X-71018750Y5962500D02*
X-76918750Y5962500D01*
X-71018750Y3562500D02*
X-71018750Y5962500D01*
X-76918750Y3562500D02*
X-71018750Y3562500D01*
X-76618750Y5962500D02*
X-76618750Y3562500D01*
X-76518750Y5962500D02*
X-76518750Y3562500D01*
X-76718750Y5962500D02*
X-76718750Y3562500D01*
X-76818750Y5962500D02*
X-76818750Y3562500D01*
X-76918750Y5962500D02*
X-76918750Y3562500D01*
X-51968750Y5962500D02*
X-57868750Y5962500D01*
X-51968750Y3562500D02*
X-51968750Y5962500D01*
X-57868750Y3562500D02*
X-51968750Y3562500D01*
X-57568750Y5962500D02*
X-57568750Y3562500D01*
X-57468750Y5962500D02*
X-57468750Y3562500D01*
X-57668750Y5962500D02*
X-57668750Y3562500D01*
X-57768750Y5962500D02*
X-57768750Y3562500D01*
X-57868750Y5962500D02*
X-57868750Y3562500D01*
X-32918750Y5962500D02*
X-38818750Y5962500D01*
X-32918750Y3562500D02*
X-32918750Y5962500D01*
X-38818750Y3562500D02*
X-32918750Y3562500D01*
X-38518750Y5962500D02*
X-38518750Y3562500D01*
X-38418750Y5962500D02*
X-38418750Y3562500D01*
X-38618750Y5962500D02*
X-38618750Y3562500D01*
X-38718750Y5962500D02*
X-38718750Y3562500D01*
X-38818750Y5962500D02*
X-38818750Y3562500D01*
X-13868750Y5962500D02*
X-19768750Y5962500D01*
X-13868750Y3562500D02*
X-13868750Y5962500D01*
X-19768750Y3562500D02*
X-13868750Y3562500D01*
X-19468750Y5962500D02*
X-19468750Y3562500D01*
X-19368750Y5962500D02*
X-19368750Y3562500D01*
X-19568750Y5962500D02*
X-19568750Y3562500D01*
X-19668750Y5962500D02*
X-19668750Y3562500D01*
X-19768750Y5962500D02*
X-19768750Y3562500D01*
X5181250Y5962500D02*
X-718750Y5962500D01*
X5181250Y3562500D02*
X5181250Y5962500D01*
X-718750Y3562500D02*
X5181250Y3562500D01*
X-418750Y5962500D02*
X-418750Y3562500D01*
X-318750Y5962500D02*
X-318750Y3562500D01*
X-518750Y5962500D02*
X-518750Y3562500D01*
X-618750Y5962500D02*
X-618750Y3562500D01*
X-718750Y5962500D02*
X-718750Y3562500D01*
X24231250Y5962500D02*
X18331250Y5962500D01*
X24231250Y3562500D02*
X24231250Y5962500D01*
X18331250Y3562500D02*
X24231250Y3562500D01*
X18631250Y5962500D02*
X18631250Y3562500D01*
X18731250Y5962500D02*
X18731250Y3562500D01*
X18531250Y5962500D02*
X18531250Y3562500D01*
X18431250Y5962500D02*
X18431250Y3562500D01*
X18331250Y5962500D02*
X18331250Y3562500D01*
X43281250Y5962500D02*
X37381250Y5962500D01*
X43281250Y3562500D02*
X43281250Y5962500D01*
X37381250Y3562500D02*
X43281250Y3562500D01*
X37681250Y5962500D02*
X37681250Y3562500D01*
X37781250Y5962500D02*
X37781250Y3562500D01*
X37581250Y5962500D02*
X37581250Y3562500D01*
X37481250Y5962500D02*
X37481250Y3562500D01*
X37381250Y5962500D02*
X37381250Y3562500D01*
X62331250Y5962500D02*
X56431250Y5962500D01*
X62331250Y3562500D02*
X62331250Y5962500D01*
X56431250Y3562500D02*
X62331250Y3562500D01*
X56731250Y5962500D02*
X56731250Y3562500D01*
X56831250Y5962500D02*
X56831250Y3562500D01*
X56631250Y5962500D02*
X56631250Y3562500D01*
X56531250Y5962500D02*
X56531250Y3562500D01*
X56431250Y5962500D02*
X56431250Y3562500D01*
X81381250Y5962500D02*
X75481250Y5962500D01*
X81381250Y3562500D02*
X81381250Y5962500D01*
X75481250Y3562500D02*
X81381250Y3562500D01*
X75781250Y5962500D02*
X75781250Y3562500D01*
X75881250Y5962500D02*
X75881250Y3562500D01*
X75681250Y5962500D02*
X75681250Y3562500D01*
X75581250Y5962500D02*
X75581250Y3562500D01*
X75481250Y5962500D02*
X75481250Y3562500D01*
X100431250Y5962500D02*
X94531250Y5962500D01*
X100431250Y3562500D02*
X100431250Y5962500D01*
X94531250Y3562500D02*
X100431250Y3562500D01*
X94831250Y5962500D02*
X94831250Y3562500D01*
X94931250Y5962500D02*
X94931250Y3562500D01*
X94731250Y5962500D02*
X94731250Y3562500D01*
X94631250Y5962500D02*
X94631250Y3562500D01*
X94531250Y5962500D02*
X94531250Y3562500D01*
X119481250Y5962500D02*
X113581250Y5962500D01*
X119481250Y3562500D02*
X119481250Y5962500D01*
X113581250Y3562500D02*
X119481250Y3562500D01*
X113881250Y5962500D02*
X113881250Y3562500D01*
X113981250Y5962500D02*
X113981250Y3562500D01*
X113781250Y5962500D02*
X113781250Y3562500D01*
X113681250Y5962500D02*
X113681250Y3562500D01*
X113581250Y5962500D02*
X113581250Y3562500D01*
X133979576Y5962496D02*
X128079576Y5962496D01*
X133979576Y3562496D02*
X133979576Y5962496D01*
X128079576Y3562496D02*
X133979576Y3562496D01*
X128379576Y5962496D02*
X128379576Y3562496D01*
X128479576Y5962496D02*
X128479576Y3562496D01*
X128279576Y5962496D02*
X128279576Y3562496D01*
X128179576Y5962496D02*
X128179576Y3562496D01*
X128079576Y5962496D02*
X128079576Y3562496D01*
X131982704Y-13087488D02*
X126082704Y-13087488D01*
X131982704Y-15487488D02*
X131982704Y-13087488D01*
X126082704Y-15487488D02*
X131982704Y-15487488D01*
X126382704Y-13087488D02*
X126382704Y-15487488D01*
X126482704Y-13087488D02*
X126482704Y-15487488D01*
X126282704Y-13087488D02*
X126282704Y-15487488D01*
X126182704Y-13087488D02*
X126182704Y-15487488D01*
X126082704Y-13087488D02*
X126082704Y-15487488D01*
X-92450000Y-13087500D02*
X-98350000Y-13087500D01*
X-92450000Y-15487500D02*
X-92450000Y-13087500D01*
X-98350000Y-15487500D02*
X-92450000Y-15487500D01*
X-98050000Y-13087500D02*
X-98050000Y-15487500D01*
X-97950000Y-13087500D02*
X-97950000Y-15487500D01*
X-98150000Y-13087500D02*
X-98150000Y-15487500D01*
X-98250000Y-13087500D02*
X-98250000Y-15487500D01*
X-98350000Y-13087500D02*
X-98350000Y-15487500D01*
X-66256250Y-13087500D02*
X-72156250Y-13087500D01*
X-66256250Y-15487500D02*
X-66256250Y-13087500D01*
X-72156250Y-15487500D02*
X-66256250Y-15487500D01*
X-71856250Y-13087500D02*
X-71856250Y-15487500D01*
X-71756250Y-13087500D02*
X-71756250Y-15487500D01*
X-71956250Y-13087500D02*
X-71956250Y-15487500D01*
X-72056250Y-13087500D02*
X-72056250Y-15487500D01*
X-72156250Y-13087500D02*
X-72156250Y-15487500D01*
X-47206250Y-13087500D02*
X-53106250Y-13087500D01*
X-47206250Y-15487500D02*
X-47206250Y-13087500D01*
X-53106250Y-15487500D02*
X-47206250Y-15487500D01*
X-52806250Y-13087500D02*
X-52806250Y-15487500D01*
X-52706250Y-13087500D02*
X-52706250Y-15487500D01*
X-52906250Y-13087500D02*
X-52906250Y-15487500D01*
X-53006250Y-13087500D02*
X-53006250Y-15487500D01*
X-53106250Y-13087500D02*
X-53106250Y-15487500D01*
X-28156250Y-13087500D02*
X-34056250Y-13087500D01*
X-28156250Y-15487500D02*
X-28156250Y-13087500D01*
X-34056250Y-15487500D02*
X-28156250Y-15487500D01*
X-33756250Y-13087500D02*
X-33756250Y-15487500D01*
X-33656250Y-13087500D02*
X-33656250Y-15487500D01*
X-33856250Y-13087500D02*
X-33856250Y-15487500D01*
X-33956250Y-13087500D02*
X-33956250Y-15487500D01*
X-34056250Y-13087500D02*
X-34056250Y-15487500D01*
X-9106250Y-13087500D02*
X-15006250Y-13087500D01*
X-9106250Y-15487500D02*
X-9106250Y-13087500D01*
X-15006250Y-15487500D02*
X-9106250Y-15487500D01*
X-14706250Y-13087500D02*
X-14706250Y-15487500D01*
X-14606250Y-13087500D02*
X-14606250Y-15487500D01*
X-14806250Y-13087500D02*
X-14806250Y-15487500D01*
X-14906250Y-13087500D02*
X-14906250Y-15487500D01*
X-15006250Y-13087500D02*
X-15006250Y-15487500D01*
X9943750Y-13087500D02*
X4043750Y-13087500D01*
X9943750Y-15487500D02*
X9943750Y-13087500D01*
X4043750Y-15487500D02*
X9943750Y-15487500D01*
X4343750Y-13087500D02*
X4343750Y-15487500D01*
X4443750Y-13087500D02*
X4443750Y-15487500D01*
X4243750Y-13087500D02*
X4243750Y-15487500D01*
X4143750Y-13087500D02*
X4143750Y-15487500D01*
X4043750Y-13087500D02*
X4043750Y-15487500D01*
X28993750Y-13087500D02*
X23093750Y-13087500D01*
X28993750Y-15487500D02*
X28993750Y-13087500D01*
X23093750Y-15487500D02*
X28993750Y-15487500D01*
X23393750Y-13087500D02*
X23393750Y-15487500D01*
X23493750Y-13087500D02*
X23493750Y-15487500D01*
X23293750Y-13087500D02*
X23293750Y-15487500D01*
X23193750Y-13087500D02*
X23193750Y-15487500D01*
X23093750Y-13087500D02*
X23093750Y-15487500D01*
X48043750Y-13087500D02*
X42143750Y-13087500D01*
X48043750Y-15487500D02*
X48043750Y-13087500D01*
X42143750Y-15487500D02*
X48043750Y-15487500D01*
X42443750Y-13087500D02*
X42443750Y-15487500D01*
X42543750Y-13087500D02*
X42543750Y-15487500D01*
X42343750Y-13087500D02*
X42343750Y-15487500D01*
X42243750Y-13087500D02*
X42243750Y-15487500D01*
X42143750Y-13087500D02*
X42143750Y-15487500D01*
X67093750Y-13087500D02*
X61193750Y-13087500D01*
X67093750Y-15487500D02*
X67093750Y-13087500D01*
X61193750Y-15487500D02*
X67093750Y-15487500D01*
X61493750Y-13087500D02*
X61493750Y-15487500D01*
X61593750Y-13087500D02*
X61593750Y-15487500D01*
X61393750Y-13087500D02*
X61393750Y-15487500D01*
X61293750Y-13087500D02*
X61293750Y-15487500D01*
X61193750Y-13087500D02*
X61193750Y-15487500D01*
X86143750Y-13087500D02*
X80243750Y-13087500D01*
X86143750Y-15487500D02*
X86143750Y-13087500D01*
X80243750Y-15487500D02*
X86143750Y-15487500D01*
X80543750Y-13087500D02*
X80543750Y-15487500D01*
X80643750Y-13087500D02*
X80643750Y-15487500D01*
X80443750Y-13087500D02*
X80443750Y-15487500D01*
X80343750Y-13087500D02*
X80343750Y-15487500D01*
X80243750Y-13087500D02*
X80243750Y-15487500D01*
X105193750Y-13087500D02*
X99293750Y-13087500D01*
X105193750Y-15487500D02*
X105193750Y-13087500D01*
X99293750Y-15487500D02*
X105193750Y-15487500D01*
X99593750Y-13087500D02*
X99593750Y-15487500D01*
X99693750Y-13087500D02*
X99693750Y-15487500D01*
X99493750Y-13087500D02*
X99493750Y-15487500D01*
X99393750Y-13087500D02*
X99393750Y-15487500D01*
X99293750Y-13087500D02*
X99293750Y-15487500D01*
X114123344Y-13087488D02*
X108223344Y-13087488D01*
X114123344Y-15487488D02*
X114123344Y-13087488D01*
X108223344Y-15487488D02*
X114123344Y-15487488D01*
X108523344Y-13087488D02*
X108523344Y-15487488D01*
X108623344Y-13087488D02*
X108623344Y-15487488D01*
X108423344Y-13087488D02*
X108423344Y-15487488D01*
X108323344Y-13087488D02*
X108323344Y-15487488D01*
X108223344Y-13087488D02*
X108223344Y-15487488D01*
X122457712Y-13087500D02*
X116557712Y-13087500D01*
X122457712Y-15487500D02*
X122457712Y-13087500D01*
X116557712Y-15487500D02*
X122457712Y-15487500D01*
X116857712Y-13087500D02*
X116857712Y-15487500D01*
X116957712Y-13087500D02*
X116957712Y-15487500D01*
X116757712Y-13087500D02*
X116757712Y-15487500D01*
X116657712Y-13087500D02*
X116657712Y-15487500D01*
X116557712Y-13087500D02*
X116557712Y-15487500D01*
X-87687500Y-32137500D02*
X-93587500Y-32137500D01*
X-87687500Y-34537500D02*
X-87687500Y-32137500D01*
X-93587500Y-34537500D02*
X-87687500Y-34537500D01*
X-93287500Y-32137500D02*
X-93287500Y-34537500D01*
X-93187500Y-32137500D02*
X-93187500Y-34537500D01*
X-93387500Y-32137500D02*
X-93387500Y-34537500D01*
X-93487500Y-32137500D02*
X-93487500Y-34537500D01*
X-93587500Y-32137500D02*
X-93587500Y-34537500D01*
X-56731250Y-32137500D02*
X-62631250Y-32137500D01*
X-56731250Y-34537500D02*
X-56731250Y-32137500D01*
X-62631250Y-34537500D02*
X-56731250Y-34537500D01*
X-62331250Y-32137500D02*
X-62331250Y-34537500D01*
X-62231250Y-32137500D02*
X-62231250Y-34537500D01*
X-62431250Y-32137500D02*
X-62431250Y-34537500D01*
X-62531250Y-32137500D02*
X-62531250Y-34537500D01*
X-62631250Y-32137500D02*
X-62631250Y-34537500D01*
X-37681250Y-32137500D02*
X-43581250Y-32137500D01*
X-37681250Y-34537500D02*
X-37681250Y-32137500D01*
X-43581250Y-34537500D02*
X-37681250Y-34537500D01*
X-43281250Y-32137500D02*
X-43281250Y-34537500D01*
X-43181250Y-32137500D02*
X-43181250Y-34537500D01*
X-43381250Y-32137500D02*
X-43381250Y-34537500D01*
X-43481250Y-32137500D02*
X-43481250Y-34537500D01*
X-43581250Y-32137500D02*
X-43581250Y-34537500D01*
X-18631250Y-32137500D02*
X-24531250Y-32137500D01*
X-18631250Y-34537500D02*
X-18631250Y-32137500D01*
X-24531250Y-34537500D02*
X-18631250Y-34537500D01*
X-24231250Y-32137500D02*
X-24231250Y-34537500D01*
X-24131250Y-32137500D02*
X-24131250Y-34537500D01*
X-24331250Y-32137500D02*
X-24331250Y-34537500D01*
X-24431250Y-32137500D02*
X-24431250Y-34537500D01*
X-24531250Y-32137500D02*
X-24531250Y-34537500D01*
X602500Y-32137500D02*
X-5297500Y-32137500D01*
X602500Y-34537500D02*
X602500Y-32137500D01*
X-5297500Y-34537500D02*
X602500Y-34537500D01*
X-4997500Y-32137500D02*
X-4997500Y-34537500D01*
X-4897500Y-32137500D02*
X-4897500Y-34537500D01*
X-5097500Y-32137500D02*
X-5097500Y-34537500D01*
X-5197500Y-32137500D02*
X-5197500Y-34537500D01*
X-5297500Y-32137500D02*
X-5297500Y-34537500D01*
X19468750Y-32137500D02*
X13568750Y-32137500D01*
X19468750Y-34537500D02*
X19468750Y-32137500D01*
X13568750Y-34537500D02*
X19468750Y-34537500D01*
X13868750Y-32137500D02*
X13868750Y-34537500D01*
X13968750Y-32137500D02*
X13968750Y-34537500D01*
X13768750Y-32137500D02*
X13768750Y-34537500D01*
X13668750Y-32137500D02*
X13668750Y-34537500D01*
X13568750Y-32137500D02*
X13568750Y-34537500D01*
X38518750Y-32137500D02*
X32618750Y-32137500D01*
X38518750Y-34537500D02*
X38518750Y-32137500D01*
X32618750Y-34537500D02*
X38518750Y-34537500D01*
X32918750Y-32137500D02*
X32918750Y-34537500D01*
X33018750Y-32137500D02*
X33018750Y-34537500D01*
X32818750Y-32137500D02*
X32818750Y-34537500D01*
X32718750Y-32137500D02*
X32718750Y-34537500D01*
X32618750Y-32137500D02*
X32618750Y-34537500D01*
X57568750Y-32137500D02*
X51668750Y-32137500D01*
X57568750Y-34537500D02*
X57568750Y-32137500D01*
X51668750Y-34537500D02*
X57568750Y-34537500D01*
X51968750Y-32137500D02*
X51968750Y-34537500D01*
X52068750Y-32137500D02*
X52068750Y-34537500D01*
X51868750Y-32137500D02*
X51868750Y-34537500D01*
X51768750Y-32137500D02*
X51768750Y-34537500D01*
X51668750Y-32137500D02*
X51668750Y-34537500D01*
X76618750Y-32137500D02*
X70718750Y-32137500D01*
X76618750Y-34537500D02*
X76618750Y-32137500D01*
X70718750Y-34537500D02*
X76618750Y-34537500D01*
X71018750Y-32137500D02*
X71018750Y-34537500D01*
X71118750Y-32137500D02*
X71118750Y-34537500D01*
X70918750Y-32137500D02*
X70918750Y-34537500D01*
X70818750Y-32137500D02*
X70818750Y-34537500D01*
X70718750Y-32137500D02*
X70718750Y-34537500D01*
X95668750Y-32137500D02*
X89768750Y-32137500D01*
X95668750Y-34537500D02*
X95668750Y-32137500D01*
X89768750Y-34537500D02*
X95668750Y-34537500D01*
X90068750Y-32137500D02*
X90068750Y-34537500D01*
X90168750Y-32137500D02*
X90168750Y-34537500D01*
X89968750Y-32137500D02*
X89968750Y-34537500D01*
X89868750Y-32137500D02*
X89868750Y-34537500D01*
X89768750Y-32137500D02*
X89768750Y-34537500D01*
X114718750Y-32137500D02*
X108818750Y-32137500D01*
X114718750Y-34537500D02*
X114718750Y-32137500D01*
X108818750Y-34537500D02*
X114718750Y-34537500D01*
X109118750Y-32137500D02*
X109118750Y-34537500D01*
X109218750Y-32137500D02*
X109218750Y-34537500D01*
X109018750Y-32137500D02*
X109018750Y-34537500D01*
X108918750Y-32137500D02*
X108918750Y-34537500D01*
X108818750Y-32137500D02*
X108818750Y-34537500D01*
X145675000Y-32137500D02*
X139775000Y-32137500D01*
X145675000Y-34537500D02*
X145675000Y-32137500D01*
X139775000Y-34537500D02*
X145675000Y-34537500D01*
X140075000Y-32137500D02*
X140075000Y-34537500D01*
X140175000Y-32137500D02*
X140175000Y-34537500D01*
X139975000Y-32137500D02*
X139975000Y-34537500D01*
X139875000Y-32137500D02*
X139875000Y-34537500D01*
X139775000Y-32137500D02*
X139775000Y-34537500D01*
X176631250Y-32137500D02*
X170731250Y-32137500D01*
X176631250Y-34537500D02*
X176631250Y-32137500D01*
X170731250Y-34537500D02*
X176631250Y-34537500D01*
X171031250Y-32137500D02*
X171031250Y-34537500D01*
X171131250Y-32137500D02*
X171131250Y-34537500D01*
X170931250Y-32137500D02*
X170931250Y-34537500D01*
X170831250Y-32137500D02*
X170831250Y-34537500D01*
X170731250Y-32137500D02*
X170731250Y-34537500D01*
X-94831250Y-51187500D02*
X-100731250Y-51187500D01*
X-94831250Y-53587500D02*
X-94831250Y-51187500D01*
X-100731250Y-53587500D02*
X-94831250Y-53587500D01*
X-100431250Y-51187500D02*
X-100431250Y-53587500D01*
X-100331250Y-51187500D02*
X-100331250Y-53587500D01*
X-100531250Y-51187500D02*
X-100531250Y-53587500D01*
X-100631250Y-51187500D02*
X-100631250Y-53587500D01*
X-100731250Y-51187500D02*
X-100731250Y-53587500D01*
X-47206250Y-51187500D02*
X-53106250Y-51187500D01*
X-47206250Y-53587500D02*
X-47206250Y-51187500D01*
X-53106250Y-53587500D02*
X-47206250Y-53587500D01*
X-52806250Y-51187500D02*
X-52806250Y-53587500D01*
X-52706250Y-51187500D02*
X-52706250Y-53587500D01*
X-52906250Y-51187500D02*
X-52906250Y-53587500D01*
X-53006250Y-51187500D02*
X-53006250Y-53587500D01*
X-53106250Y-51187500D02*
X-53106250Y-53587500D01*
X33756250Y-51187500D02*
X27856250Y-51187500D01*
X33756250Y-53587500D02*
X33756250Y-51187500D01*
X27856250Y-53587500D02*
X33756250Y-53587500D01*
X28156250Y-51187500D02*
X28156250Y-53587500D01*
X28256250Y-51187500D02*
X28256250Y-53587500D01*
X28056250Y-51187500D02*
X28056250Y-53587500D01*
X27956250Y-51187500D02*
X27956250Y-53587500D01*
X27856250Y-51187500D02*
X27856250Y-53587500D01*
X114718750Y-51187500D02*
X108818750Y-51187500D01*
X114718750Y-53587500D02*
X114718750Y-51187500D01*
X108818750Y-53587500D02*
X114718750Y-53587500D01*
X109118750Y-51187500D02*
X109118750Y-53587500D01*
X109218750Y-51187500D02*
X109218750Y-53587500D01*
X109018750Y-51187500D02*
X109018750Y-53587500D01*
X108918750Y-51187500D02*
X108918750Y-53587500D01*
X108818750Y-51187500D02*
X108818750Y-53587500D01*
X157581250Y-51187500D02*
X151681250Y-51187500D01*
X157581250Y-53587500D02*
X157581250Y-51187500D01*
X151681250Y-53587500D02*
X157581250Y-53587500D01*
X151981250Y-51187500D02*
X151981250Y-53587500D01*
X152081250Y-51187500D02*
X152081250Y-53587500D01*
X151881250Y-51187500D02*
X151881250Y-53587500D01*
X151781250Y-51187500D02*
X151781250Y-53587500D01*
X151681250Y-51187500D02*
X151681250Y-53587500D01*
X176631250Y-51187500D02*
X170731250Y-51187500D01*
X176631250Y-53587500D02*
X176631250Y-51187500D01*
X170731250Y-53587500D02*
X176631250Y-53587500D01*
X171031250Y-51187500D02*
X171031250Y-53587500D01*
X171131250Y-51187500D02*
X171131250Y-53587500D01*
X170931250Y-51187500D02*
X170931250Y-53587500D01*
X170831250Y-51187500D02*
X170831250Y-53587500D01*
X170731250Y-51187500D02*
X170731250Y-53587500D01*
X195681250Y-51187500D02*
X189781250Y-51187500D01*
X195681250Y-53587500D02*
X195681250Y-51187500D01*
X189781250Y-53587500D02*
X195681250Y-53587500D01*
X190081250Y-51187500D02*
X190081250Y-53587500D01*
X190181250Y-51187500D02*
X190181250Y-53587500D01*
X189981250Y-51187500D02*
X189981250Y-53587500D01*
X189881250Y-51187500D02*
X189881250Y-53587500D01*
X189781250Y-51187500D02*
X189781250Y-53587500D01*
X143678008Y5962496D02*
X137778008Y5962496D01*
X143678008Y3562496D02*
X143678008Y5962496D01*
X137778008Y3562496D02*
X143678008Y3562496D01*
X138078008Y5962496D02*
X138078008Y3562496D01*
X138178008Y5962496D02*
X138178008Y3562496D01*
X137978008Y5962496D02*
X137978008Y3562496D01*
X137878008Y5962496D02*
X137878008Y3562496D01*
X137778008Y5962496D02*
X137778008Y3562496D01*
X-75781184Y-32137472D02*
X-81681184Y-32137472D01*
X-75781184Y-34537472D02*
X-75781184Y-32137472D01*
X-81681184Y-34537472D02*
X-75781184Y-34537472D01*
X-81381184Y-32137472D02*
X-81381184Y-34537472D01*
X-81281184Y-32137472D02*
X-81281184Y-34537472D01*
X-81481184Y-32137472D02*
X-81481184Y-34537472D01*
X-81581184Y-32137472D02*
X-81581184Y-34537472D01*
X-81681184Y-32137472D02*
X-81681184Y-34537472D01*
X-76918688Y-51187456D02*
X-76918688Y-53587456D01*
X-76818688Y-51187456D02*
X-76818688Y-53587456D01*
X-76718688Y-51187456D02*
X-76718688Y-53587456D01*
X-76518688Y-51187456D02*
X-76518688Y-53587456D01*
X-76618688Y-51187456D02*
X-76618688Y-53587456D01*
X-76918688Y-53587456D02*
X-71018688Y-53587456D01*
X-71018688Y-53587456D02*
X-71018688Y-51187456D01*
X-71018688Y-51187456D02*
X-76918688Y-51187456D01*
D11*
X188800000Y27320000D02*
X190000000Y27320000D01*
X190000000Y29080000D02*
X188800000Y29080000D01*
X174680000Y21550000D02*
X174680000Y22750000D01*
X172920000Y22750000D02*
X172920000Y21550000D01*
X169580000Y25800000D02*
X169580000Y27800000D01*
X171620000Y27800000D02*
X171620000Y25800000D01*
D12*
X153614157Y-13025372D02*
X153614157Y-12025372D01*
X153042729Y-13025372D02*
X153471300Y-12453944D01*
X153042729Y-12025372D02*
X153614157Y-12596801D01*
X152185586Y-12025372D02*
X152376062Y-12025372D01*
X152471300Y-12072992D01*
X152518919Y-12120611D01*
X152614157Y-12263468D01*
X152661776Y-12453944D01*
X152661776Y-12834896D01*
X152614157Y-12930134D01*
X152566538Y-12977753D01*
X152471300Y-13025372D01*
X152280824Y-13025372D01*
X152185586Y-12977753D01*
X152137967Y-12930134D01*
X152090348Y-12834896D01*
X152090348Y-12596801D01*
X152137967Y-12501563D01*
X152185586Y-12453944D01*
X152280824Y-12406325D01*
X152471300Y-12406325D01*
X152566538Y-12453944D01*
X152614157Y-12501563D01*
X152661776Y-12596801D01*
X151233205Y-12358706D02*
X151233205Y-13025372D01*
X151471300Y-11977753D02*
X151709395Y-12692039D01*
X151090348Y-12692039D01*
X175045535Y-32075380D02*
X175045535Y-31075380D01*
X174474107Y-32075380D02*
X174902678Y-31503952D01*
X174474107Y-31075380D02*
X175045535Y-31646809D01*
X173569345Y-31075380D02*
X174045535Y-31075380D01*
X174093154Y-31551571D01*
X174045535Y-31503952D01*
X173950297Y-31456333D01*
X173712202Y-31456333D01*
X173616964Y-31503952D01*
X173569345Y-31551571D01*
X173521726Y-31646809D01*
X173521726Y-31884904D01*
X173569345Y-31980142D01*
X173616964Y-32027761D01*
X173712202Y-32075380D01*
X173950297Y-32075380D01*
X174045535Y-32027761D01*
X174093154Y-31980142D01*
X172664583Y-31408714D02*
X172664583Y-32075380D01*
X172902678Y-31027761D02*
X173140773Y-31742047D01*
X172521726Y-31742047D01*
X193848628Y6535790D02*
X193848628Y7335790D01*
X193658152Y7335790D01*
X193543866Y7297695D01*
X193467676Y7221504D01*
X193429580Y7145314D01*
X193391485Y6992933D01*
X193391485Y6878647D01*
X193429580Y6726266D01*
X193467676Y6650075D01*
X193543866Y6573885D01*
X193658152Y6535790D01*
X193848628Y6535790D01*
X192705771Y7335790D02*
X192858152Y7335790D01*
X192934342Y7297695D01*
X192972438Y7259599D01*
X193048628Y7145314D01*
X193086723Y6992933D01*
X193086723Y6688171D01*
X193048628Y6611980D01*
X193010533Y6573885D01*
X192934342Y6535790D01*
X192781961Y6535790D01*
X192705771Y6573885D01*
X192667676Y6611980D01*
X192629580Y6688171D01*
X192629580Y6878647D01*
X192667676Y6954837D01*
X192705771Y6992933D01*
X192781961Y7031028D01*
X192934342Y7031028D01*
X193010533Y6992933D01*
X193048628Y6954837D01*
X193086723Y6878647D01*
X192324819Y7259599D02*
X192286723Y7297695D01*
X192210533Y7335790D01*
X192020057Y7335790D01*
X191943866Y7297695D01*
X191905771Y7259599D01*
X191867676Y7183409D01*
X191867676Y7107218D01*
X191905771Y6992933D01*
X192362914Y6535790D01*
X191867676Y6535790D01*
X202951166Y-4134982D02*
X202998785Y-4182601D01*
X203141642Y-4230220D01*
X203236880Y-4230220D01*
X203379738Y-4182601D01*
X203474976Y-4087363D01*
X203522595Y-3992125D01*
X203570214Y-3801649D01*
X203570214Y-3658792D01*
X203522595Y-3468316D01*
X203474976Y-3373078D01*
X203379738Y-3277840D01*
X203236880Y-3230220D01*
X203141642Y-3230220D01*
X202998785Y-3277840D01*
X202951166Y-3325459D01*
X201998785Y-4230220D02*
X202570214Y-4230220D01*
X202284500Y-4230220D02*
X202284500Y-3230220D01*
X202379738Y-3373078D01*
X202474976Y-3468316D01*
X202570214Y-3515935D01*
X178101966Y-11007142D02*
X178149585Y-11054761D01*
X178292442Y-11102380D01*
X178387680Y-11102380D01*
X178530538Y-11054761D01*
X178625776Y-10959523D01*
X178673395Y-10864285D01*
X178721014Y-10673809D01*
X178721014Y-10530952D01*
X178673395Y-10340476D01*
X178625776Y-10245238D01*
X178530538Y-10150000D01*
X178387680Y-10102380D01*
X178292442Y-10102380D01*
X178149585Y-10150000D01*
X178101966Y-10197619D01*
X177197204Y-10102380D02*
X177673395Y-10102380D01*
X177721014Y-10578571D01*
X177673395Y-10530952D01*
X177578157Y-10483333D01*
X177340061Y-10483333D01*
X177244823Y-10530952D01*
X177197204Y-10578571D01*
X177149585Y-10673809D01*
X177149585Y-10911904D01*
X177197204Y-11007142D01*
X177244823Y-11054761D01*
X177340061Y-11102380D01*
X177578157Y-11102380D01*
X177673395Y-11054761D01*
X177721014Y-11007142D01*
X178101966Y-2607142D02*
X178149585Y-2654761D01*
X178292442Y-2702380D01*
X178387680Y-2702380D01*
X178530538Y-2654761D01*
X178625776Y-2559523D01*
X178673395Y-2464285D01*
X178721014Y-2273809D01*
X178721014Y-2130952D01*
X178673395Y-1940476D01*
X178625776Y-1845238D01*
X178530538Y-1750000D01*
X178387680Y-1702380D01*
X178292442Y-1702380D01*
X178149585Y-1750000D01*
X178101966Y-1797619D01*
X177244823Y-1702380D02*
X177435300Y-1702380D01*
X177530538Y-1750000D01*
X177578157Y-1797619D01*
X177673395Y-1940476D01*
X177721014Y-2130952D01*
X177721014Y-2511904D01*
X177673395Y-2607142D01*
X177625776Y-2654761D01*
X177530538Y-2702380D01*
X177340061Y-2702380D01*
X177244823Y-2654761D01*
X177197204Y-2607142D01*
X177149585Y-2511904D01*
X177149585Y-2273809D01*
X177197204Y-2178571D01*
X177244823Y-2130952D01*
X177340061Y-2083333D01*
X177530538Y-2083333D01*
X177625776Y-2130952D01*
X177673395Y-2178571D01*
X177721014Y-2273809D01*
X196806761Y7810333D02*
X196854380Y7667476D01*
X196854380Y7429380D01*
X196806761Y7334142D01*
X196759142Y7286523D01*
X196663904Y7238904D01*
X196568666Y7238904D01*
X196473428Y7286523D01*
X196425809Y7334142D01*
X196378190Y7429380D01*
X196330571Y7619857D01*
X196282952Y7715095D01*
X196235333Y7762714D01*
X196140095Y7810333D01*
X196044857Y7810333D01*
X195949619Y7762714D01*
X195902000Y7715095D01*
X195854380Y7619857D01*
X195854380Y7381761D01*
X195902000Y7238904D01*
X195854380Y6905571D02*
X196854380Y6667476D01*
X196140095Y6477000D01*
X196854380Y6286523D01*
X195854380Y6048428D01*
X196854380Y5143666D02*
X196854380Y5715095D01*
X196854380Y5429380D02*
X195854380Y5429380D01*
X195997238Y5524619D01*
X196092476Y5619857D01*
X196140095Y5715095D01*
X189626642Y2547866D02*
X189674261Y2595485D01*
X189721880Y2738342D01*
X189721880Y2833580D01*
X189674261Y2976438D01*
X189579023Y3071676D01*
X189483785Y3119295D01*
X189293309Y3166914D01*
X189150452Y3166914D01*
X188959976Y3119295D01*
X188864738Y3071676D01*
X188769500Y2976438D01*
X188721880Y2833580D01*
X188721880Y2738342D01*
X188769500Y2595485D01*
X188817119Y2547866D01*
X189150452Y1976438D02*
X189102833Y2071676D01*
X189055214Y2119295D01*
X188959976Y2166914D01*
X188912357Y2166914D01*
X188817119Y2119295D01*
X188769500Y2071676D01*
X188721880Y1976438D01*
X188721880Y1785961D01*
X188769500Y1690723D01*
X188817119Y1643104D01*
X188912357Y1595485D01*
X188959976Y1595485D01*
X189055214Y1643104D01*
X189102833Y1690723D01*
X189150452Y1785961D01*
X189150452Y1976438D01*
X189198071Y2071676D01*
X189245690Y2119295D01*
X189340928Y2166914D01*
X189531404Y2166914D01*
X189626642Y2119295D01*
X189674261Y2071676D01*
X189721880Y1976438D01*
X189721880Y1785961D01*
X189674261Y1690723D01*
X189626642Y1643104D01*
X189531404Y1595485D01*
X189340928Y1595485D01*
X189245690Y1643104D01*
X189198071Y1690723D01*
X189150452Y1785961D01*
X197016280Y2547866D02*
X196540090Y2881200D01*
X197016280Y3119295D02*
X196016280Y3119295D01*
X196016280Y2738342D01*
X196063900Y2643104D01*
X196111519Y2595485D01*
X196206757Y2547866D01*
X196349614Y2547866D01*
X196444852Y2595485D01*
X196492471Y2643104D01*
X196540090Y2738342D01*
X196540090Y3119295D01*
X197016280Y1595485D02*
X197016280Y2166914D01*
X197016280Y1881200D02*
X196016280Y1881200D01*
X196159138Y1976438D01*
X196254376Y2071676D01*
X196301995Y2166914D01*
X185952380Y-18683333D02*
X185476190Y-18350000D01*
X185952380Y-18111904D02*
X184952380Y-18111904D01*
X184952380Y-18492857D01*
X185000000Y-18588095D01*
X185047619Y-18635714D01*
X185142857Y-18683333D01*
X185285714Y-18683333D01*
X185380952Y-18635714D01*
X185428571Y-18588095D01*
X185476190Y-18492857D01*
X185476190Y-18111904D01*
X185047619Y-19064285D02*
X185000000Y-19111904D01*
X184952380Y-19207142D01*
X184952380Y-19445238D01*
X185000000Y-19540476D01*
X185047619Y-19588095D01*
X185142857Y-19635714D01*
X185238095Y-19635714D01*
X185380952Y-19588095D01*
X185952380Y-19016666D01*
X185952380Y-19635714D01*
X175142180Y22339666D02*
X174665990Y22673000D01*
X175142180Y22911095D02*
X174142180Y22911095D01*
X174142180Y22530142D01*
X174189800Y22434904D01*
X174237419Y22387285D01*
X174332657Y22339666D01*
X174475514Y22339666D01*
X174570752Y22387285D01*
X174618371Y22434904D01*
X174665990Y22530142D01*
X174665990Y22911095D01*
X174142180Y22006333D02*
X174142180Y21387285D01*
X174523133Y21720619D01*
X174523133Y21577761D01*
X174570752Y21482523D01*
X174618371Y21434904D01*
X174713609Y21387285D01*
X174951704Y21387285D01*
X175046942Y21434904D01*
X175094561Y21482523D01*
X175142180Y21577761D01*
X175142180Y21863476D01*
X175094561Y21958714D01*
X175046942Y22006333D01*
X181352380Y22352166D02*
X180876190Y22685500D01*
X181352380Y22923595D02*
X180352380Y22923595D01*
X180352380Y22542642D01*
X180400000Y22447404D01*
X180447619Y22399785D01*
X180542857Y22352166D01*
X180685714Y22352166D01*
X180780952Y22399785D01*
X180828571Y22447404D01*
X180876190Y22542642D01*
X180876190Y22923595D01*
X180685714Y21495023D02*
X181352380Y21495023D01*
X180304761Y21733119D02*
X181019047Y21971214D01*
X181019047Y21352166D01*
X199532766Y-14607142D02*
X199580385Y-14654761D01*
X199723242Y-14702380D01*
X199818480Y-14702380D01*
X199961338Y-14654761D01*
X200056576Y-14559523D01*
X200104195Y-14464285D01*
X200151814Y-14273809D01*
X200151814Y-14130952D01*
X200104195Y-13940476D01*
X200056576Y-13845238D01*
X199961338Y-13750000D01*
X199818480Y-13702380D01*
X199723242Y-13702380D01*
X199580385Y-13750000D01*
X199532766Y-13797619D01*
X199151814Y-13797619D02*
X199104195Y-13750000D01*
X199008957Y-13702380D01*
X198770861Y-13702380D01*
X198675623Y-13750000D01*
X198628004Y-13797619D01*
X198580385Y-13892857D01*
X198580385Y-13988095D01*
X198628004Y-14130952D01*
X199199433Y-14702380D01*
X198580385Y-14702380D01*
X202860166Y-605442D02*
X202907785Y-653061D01*
X203050642Y-700680D01*
X203145880Y-700680D01*
X203288738Y-653061D01*
X203383976Y-557823D01*
X203431595Y-462585D01*
X203479214Y-272109D01*
X203479214Y-129252D01*
X203431595Y61223D01*
X203383976Y156461D01*
X203288738Y251700D01*
X203145880Y299319D01*
X203050642Y299319D01*
X202907785Y251700D01*
X202860166Y204080D01*
X202526833Y299319D02*
X201907785Y299319D01*
X202241119Y-81633D01*
X202098261Y-81633D01*
X202003023Y-129252D01*
X201955404Y-176871D01*
X201907785Y-272109D01*
X201907785Y-510204D01*
X201955404Y-605442D01*
X202003023Y-653061D01*
X202098261Y-700680D01*
X202383976Y-700680D01*
X202479214Y-653061D01*
X202526833Y-605442D01*
X192690442Y-15291433D02*
X192738061Y-15243814D01*
X192785680Y-15100957D01*
X192785680Y-15005719D01*
X192738061Y-14862861D01*
X192642823Y-14767623D01*
X192547585Y-14720004D01*
X192357109Y-14672385D01*
X192214252Y-14672385D01*
X192023776Y-14720004D01*
X191928538Y-14767623D01*
X191833300Y-14862861D01*
X191785680Y-15005719D01*
X191785680Y-15100957D01*
X191833300Y-15243814D01*
X191880919Y-15291433D01*
X192119014Y-16148576D02*
X192785680Y-16148576D01*
X191738061Y-15910480D02*
X192452347Y-15672385D01*
X192452347Y-16291433D01*
X179444220Y-7157815D02*
X180253744Y-7157815D01*
X180348982Y-7205434D01*
X180396601Y-7253053D01*
X180444220Y-7348291D01*
X180444220Y-7538767D01*
X180396601Y-7634005D01*
X180348982Y-7681624D01*
X180253744Y-7729243D01*
X179444220Y-7729243D01*
X180444220Y-8729243D02*
X180444220Y-8157815D01*
X180444220Y-8443529D02*
X179444220Y-8443529D01*
X179587078Y-8348291D01*
X179682316Y-8253053D01*
X179729935Y-8157815D01*
X178116666Y1792857D02*
X178164285Y1745238D01*
X178307142Y1697619D01*
X178402380Y1697619D01*
X178545238Y1745238D01*
X178640476Y1840476D01*
X178688095Y1935714D01*
X178735714Y2126190D01*
X178735714Y2269047D01*
X178688095Y2459523D01*
X178640476Y2554761D01*
X178545238Y2650000D01*
X178402380Y2697619D01*
X178307142Y2697619D01*
X178164285Y2650000D01*
X178116666Y2602380D01*
X177783333Y2697619D02*
X177116666Y2697619D01*
X177545238Y1697619D01*
X-10691964Y-13025380D02*
X-10691964Y-12025380D01*
X-11263392Y-13025380D02*
X-10834821Y-12453952D01*
X-11263392Y-12025380D02*
X-10691964Y-12596809D01*
X-11596726Y-12025380D02*
X-12215773Y-12025380D01*
X-11882440Y-12406333D01*
X-12025297Y-12406333D01*
X-12120535Y-12453952D01*
X-12168154Y-12501571D01*
X-12215773Y-12596809D01*
X-12215773Y-12834904D01*
X-12168154Y-12930142D01*
X-12120535Y-12977761D01*
X-12025297Y-13025380D01*
X-11739583Y-13025380D01*
X-11644345Y-12977761D01*
X-11596726Y-12930142D01*
X-12549107Y-12025380D02*
X-13168154Y-12025380D01*
X-12834821Y-12406333D01*
X-12977678Y-12406333D01*
X-13072916Y-12453952D01*
X-13120535Y-12501571D01*
X-13168154Y-12596809D01*
X-13168154Y-12834904D01*
X-13120535Y-12930142D01*
X-13072916Y-12977761D01*
X-12977678Y-13025380D01*
X-12691964Y-13025380D01*
X-12596726Y-12977761D01*
X-12549107Y-12930142D01*
X155995535Y25074619D02*
X155995535Y26074619D01*
X155424107Y25074619D02*
X155852678Y25646047D01*
X155424107Y26074619D02*
X155995535Y25503190D01*
X154471726Y25074619D02*
X155043154Y25074619D01*
X154757440Y25074619D02*
X154757440Y26074619D01*
X154852678Y25931761D01*
X154947916Y25836523D01*
X155043154Y25788904D01*
X153614583Y25741285D02*
X153614583Y25074619D01*
X153852678Y26122238D02*
X154090773Y25407952D01*
X153471726Y25407952D01*
X-94035714Y-13025380D02*
X-94035714Y-12025380D01*
X-94607142Y-13025380D02*
X-94178571Y-12453952D01*
X-94607142Y-12025380D02*
X-94035714Y-12596809D01*
X-94988095Y-12120619D02*
X-95035714Y-12073000D01*
X-95130952Y-12025380D01*
X-95369047Y-12025380D01*
X-95464285Y-12073000D01*
X-95511904Y-12120619D01*
X-95559523Y-12215857D01*
X-95559523Y-12311095D01*
X-95511904Y-12453952D01*
X-94940476Y-13025380D01*
X-95559523Y-13025380D01*
X-96035714Y-13025380D02*
X-96226190Y-13025380D01*
X-96321428Y-12977761D01*
X-96369047Y-12930142D01*
X-96464285Y-12787285D01*
X-96511904Y-12596809D01*
X-96511904Y-12215857D01*
X-96464285Y-12120619D01*
X-96416666Y-12073000D01*
X-96321428Y-12025380D01*
X-96130952Y-12025380D01*
X-96035714Y-12073000D01*
X-95988095Y-12120619D01*
X-95940476Y-12215857D01*
X-95940476Y-12453952D01*
X-95988095Y-12549190D01*
X-96035714Y-12596809D01*
X-96130952Y-12644428D01*
X-96321428Y-12644428D01*
X-96416666Y-12596809D01*
X-96464285Y-12549190D01*
X-96511904Y-12453952D01*
X-58316964Y-32075380D02*
X-58316964Y-31075380D01*
X-58888392Y-32075380D02*
X-58459821Y-31503952D01*
X-58888392Y-31075380D02*
X-58316964Y-31646809D01*
X-59745535Y-31408714D02*
X-59745535Y-32075380D01*
X-59507440Y-31027761D02*
X-59269345Y-31742047D01*
X-59888392Y-31742047D01*
X-60174107Y-31075380D02*
X-60793154Y-31075380D01*
X-60459821Y-31456333D01*
X-60602678Y-31456333D01*
X-60697916Y-31503952D01*
X-60745535Y-31551571D01*
X-60793154Y-31646809D01*
X-60793154Y-31884904D01*
X-60745535Y-31980142D01*
X-60697916Y-32027761D01*
X-60602678Y-32075380D01*
X-60316964Y-32075380D01*
X-60221726Y-32027761D01*
X-60174107Y-31980142D01*
X154410714Y-3052380D02*
X154410714Y-2052380D01*
X154982142Y-3052380D02*
X154553571Y-2480952D01*
X154982142Y-2052380D02*
X154410714Y-2623809D01*
X155363095Y-2147619D02*
X155410714Y-2100000D01*
X155505952Y-2052380D01*
X155744047Y-2052380D01*
X155839285Y-2100000D01*
X155886904Y-2147619D01*
X155934523Y-2242857D01*
X155934523Y-2338095D01*
X155886904Y-2480952D01*
X155315476Y-3052380D01*
X155934523Y-3052380D01*
X156505952Y-2480952D02*
X156410714Y-2433333D01*
X156363095Y-2385714D01*
X156315476Y-2290476D01*
X156315476Y-2242857D01*
X156363095Y-2147619D01*
X156410714Y-2100000D01*
X156505952Y-2052380D01*
X156696428Y-2052380D01*
X156791666Y-2100000D01*
X156839285Y-2147619D01*
X156886904Y-2242857D01*
X156886904Y-2290476D01*
X156839285Y-2385714D01*
X156791666Y-2433333D01*
X156696428Y-2480952D01*
X156505952Y-2480952D01*
X156410714Y-2528571D01*
X156363095Y-2576190D01*
X156315476Y-2671428D01*
X156315476Y-2861904D01*
X156363095Y-2957142D01*
X156410714Y-3004761D01*
X156505952Y-3052380D01*
X156696428Y-3052380D01*
X156791666Y-3004761D01*
X156839285Y-2957142D01*
X156886904Y-2861904D01*
X156886904Y-2671428D01*
X156839285Y-2576190D01*
X156791666Y-2528571D01*
X156696428Y-2480952D01*
X144089285Y-32075380D02*
X144089285Y-31075380D01*
X143517857Y-32075380D02*
X143946428Y-31503952D01*
X143517857Y-31075380D02*
X144089285Y-31646809D01*
X142613095Y-31075380D02*
X143089285Y-31075380D01*
X143136904Y-31551571D01*
X143089285Y-31503952D01*
X142994047Y-31456333D01*
X142755952Y-31456333D01*
X142660714Y-31503952D01*
X142613095Y-31551571D01*
X142565476Y-31646809D01*
X142565476Y-31884904D01*
X142613095Y-31980142D01*
X142660714Y-32027761D01*
X142755952Y-32075380D01*
X142994047Y-32075380D01*
X143089285Y-32027761D01*
X143136904Y-31980142D01*
X142232142Y-31075380D02*
X141613095Y-31075380D01*
X141946428Y-31456333D01*
X141803571Y-31456333D01*
X141708333Y-31503952D01*
X141660714Y-31551571D01*
X141613095Y-31646809D01*
X141613095Y-31884904D01*
X141660714Y-31980142D01*
X141708333Y-32027761D01*
X141803571Y-32075380D01*
X142089285Y-32075380D01*
X142184523Y-32027761D01*
X142232142Y-31980142D01*
X-82605654Y25074619D02*
X-82605654Y26074619D01*
X-83177083Y25074619D02*
X-82748511Y25646047D01*
X-83177083Y26074619D02*
X-82605654Y25503190D01*
X-83558035Y25979380D02*
X-83605654Y26027000D01*
X-83700892Y26074619D01*
X-83938988Y26074619D01*
X-84034226Y26027000D01*
X-84081845Y25979380D01*
X-84129464Y25884142D01*
X-84129464Y25788904D01*
X-84081845Y25646047D01*
X-83510416Y25074619D01*
X-84129464Y25074619D01*
X32170535Y-51125380D02*
X32170535Y-50125380D01*
X31599107Y-51125380D02*
X32027678Y-50553952D01*
X31599107Y-50125380D02*
X32170535Y-50696809D01*
X30694345Y-50125380D02*
X31170535Y-50125380D01*
X31218154Y-50601571D01*
X31170535Y-50553952D01*
X31075297Y-50506333D01*
X30837202Y-50506333D01*
X30741964Y-50553952D01*
X30694345Y-50601571D01*
X30646726Y-50696809D01*
X30646726Y-50934904D01*
X30694345Y-51030142D01*
X30741964Y-51077761D01*
X30837202Y-51125380D01*
X31075297Y-51125380D01*
X31170535Y-51077761D01*
X31218154Y-51030142D01*
X30313392Y-50125380D02*
X29646726Y-50125380D01*
X30075297Y-51125380D01*
X-101655654Y25074619D02*
X-101655654Y26074619D01*
X-102227083Y25074619D02*
X-101798511Y25646047D01*
X-102227083Y26074619D02*
X-101655654Y25503190D01*
X-103179464Y25074619D02*
X-102608035Y25074619D01*
X-102893750Y25074619D02*
X-102893750Y26074619D01*
X-102798511Y25931761D01*
X-102703273Y25836523D01*
X-102608035Y25788904D01*
X-63555654Y25074619D02*
X-63555654Y26074619D01*
X-64127083Y25074619D02*
X-63698511Y25646047D01*
X-64127083Y26074619D02*
X-63555654Y25503190D01*
X-64460416Y26074619D02*
X-65079464Y26074619D01*
X-64746130Y25693666D01*
X-64888988Y25693666D01*
X-64984226Y25646047D01*
X-65031845Y25598428D01*
X-65079464Y25503190D01*
X-65079464Y25265095D01*
X-65031845Y25169857D01*
X-64984226Y25122238D01*
X-64888988Y25074619D01*
X-64603273Y25074619D01*
X-64508035Y25122238D01*
X-64460416Y25169857D01*
X-44505654Y25074619D02*
X-44505654Y26074619D01*
X-45077083Y25074619D02*
X-44648511Y25646047D01*
X-45077083Y26074619D02*
X-44505654Y25503190D01*
X-45934226Y25741285D02*
X-45934226Y25074619D01*
X-45696130Y26122238D02*
X-45458035Y25407952D01*
X-46077083Y25407952D01*
X-25455654Y25074619D02*
X-25455654Y26074619D01*
X-26027083Y25074619D02*
X-25598511Y25646047D01*
X-26027083Y26074619D02*
X-25455654Y25503190D01*
X-26931845Y26074619D02*
X-26455654Y26074619D01*
X-26408035Y25598428D01*
X-26455654Y25646047D01*
X-26550892Y25693666D01*
X-26788988Y25693666D01*
X-26884226Y25646047D01*
X-26931845Y25598428D01*
X-26979464Y25503190D01*
X-26979464Y25265095D01*
X-26931845Y25169857D01*
X-26884226Y25122238D01*
X-26788988Y25074619D01*
X-26550892Y25074619D01*
X-26455654Y25122238D01*
X-26408035Y25169857D01*
X-6405654Y25074619D02*
X-6405654Y26074619D01*
X-6977083Y25074619D02*
X-6548511Y25646047D01*
X-6977083Y26074619D02*
X-6405654Y25503190D01*
X-7834226Y26074619D02*
X-7643749Y26074619D01*
X-7548511Y26027000D01*
X-7500892Y25979380D01*
X-7405654Y25836523D01*
X-7358035Y25646047D01*
X-7358035Y25265095D01*
X-7405654Y25169857D01*
X-7453273Y25122238D01*
X-7548511Y25074619D01*
X-7738988Y25074619D01*
X-7834226Y25122238D01*
X-7881845Y25169857D01*
X-7929464Y25265095D01*
X-7929464Y25503190D01*
X-7881845Y25598428D01*
X-7834226Y25646047D01*
X-7738988Y25693666D01*
X-7548511Y25693666D01*
X-7453273Y25646047D01*
X-7405654Y25598428D01*
X-7358035Y25503190D01*
X12644345Y25074619D02*
X12644345Y26074619D01*
X12072916Y25074619D02*
X12501488Y25646047D01*
X12072916Y26074619D02*
X12644345Y25503190D01*
X11739583Y26074619D02*
X11072916Y26074619D01*
X11501488Y25074619D01*
X31694345Y25074619D02*
X31694345Y26074619D01*
X31122916Y25074619D02*
X31551488Y25646047D01*
X31122916Y26074619D02*
X31694345Y25503190D01*
X30551488Y25646047D02*
X30646726Y25693666D01*
X30694345Y25741285D01*
X30741964Y25836523D01*
X30741964Y25884142D01*
X30694345Y25979380D01*
X30646726Y26027000D01*
X30551488Y26074619D01*
X30361011Y26074619D01*
X30265773Y26027000D01*
X30218154Y25979380D01*
X30170535Y25884142D01*
X30170535Y25836523D01*
X30218154Y25741285D01*
X30265773Y25693666D01*
X30361011Y25646047D01*
X30551488Y25646047D01*
X30646726Y25598428D01*
X30694345Y25550809D01*
X30741964Y25455571D01*
X30741964Y25265095D01*
X30694345Y25169857D01*
X30646726Y25122238D01*
X30551488Y25074619D01*
X30361011Y25074619D01*
X30265773Y25122238D01*
X30218154Y25169857D01*
X30170535Y25265095D01*
X30170535Y25455571D01*
X30218154Y25550809D01*
X30265773Y25598428D01*
X30361011Y25646047D01*
X50744345Y25074619D02*
X50744345Y26074619D01*
X50172916Y25074619D02*
X50601488Y25646047D01*
X50172916Y26074619D02*
X50744345Y25503190D01*
X49696726Y25074619D02*
X49506250Y25074619D01*
X49411011Y25122238D01*
X49363392Y25169857D01*
X49268154Y25312714D01*
X49220535Y25503190D01*
X49220535Y25884142D01*
X49268154Y25979380D01*
X49315773Y26027000D01*
X49411011Y26074619D01*
X49601488Y26074619D01*
X49696726Y26027000D01*
X49744345Y25979380D01*
X49791964Y25884142D01*
X49791964Y25646047D01*
X49744345Y25550809D01*
X49696726Y25503190D01*
X49601488Y25455571D01*
X49411011Y25455571D01*
X49315773Y25503190D01*
X49268154Y25550809D01*
X49220535Y25646047D01*
X70270535Y25074619D02*
X70270535Y26074619D01*
X69699107Y25074619D02*
X70127678Y25646047D01*
X69699107Y26074619D02*
X70270535Y25503190D01*
X68746726Y25074619D02*
X69318154Y25074619D01*
X69032440Y25074619D02*
X69032440Y26074619D01*
X69127678Y25931761D01*
X69222916Y25836523D01*
X69318154Y25788904D01*
X68127678Y26074619D02*
X68032440Y26074619D01*
X67937202Y26027000D01*
X67889583Y25979380D01*
X67841964Y25884142D01*
X67794345Y25693666D01*
X67794345Y25455571D01*
X67841964Y25265095D01*
X67889583Y25169857D01*
X67937202Y25122238D01*
X68032440Y25074619D01*
X68127678Y25074619D01*
X68222916Y25122238D01*
X68270535Y25169857D01*
X68318154Y25265095D01*
X68365773Y25455571D01*
X68365773Y25693666D01*
X68318154Y25884142D01*
X68270535Y25979380D01*
X68222916Y26027000D01*
X68127678Y26074619D01*
X89320535Y25074619D02*
X89320535Y26074619D01*
X88749107Y25074619D02*
X89177678Y25646047D01*
X88749107Y26074619D02*
X89320535Y25503190D01*
X87796726Y25074619D02*
X88368154Y25074619D01*
X88082440Y25074619D02*
X88082440Y26074619D01*
X88177678Y25931761D01*
X88272916Y25836523D01*
X88368154Y25788904D01*
X86844345Y25074619D02*
X87415773Y25074619D01*
X87130059Y25074619D02*
X87130059Y26074619D01*
X87225297Y25931761D01*
X87320535Y25836523D01*
X87415773Y25788904D01*
X108370535Y25074619D02*
X108370535Y26074619D01*
X107799107Y25074619D02*
X108227678Y25646047D01*
X107799107Y26074619D02*
X108370535Y25503190D01*
X106846726Y25074619D02*
X107418154Y25074619D01*
X107132440Y25074619D02*
X107132440Y26074619D01*
X107227678Y25931761D01*
X107322916Y25836523D01*
X107418154Y25788904D01*
X106465773Y25979380D02*
X106418154Y26027000D01*
X106322916Y26074619D01*
X106084821Y26074619D01*
X105989583Y26027000D01*
X105941964Y25979380D01*
X105894345Y25884142D01*
X105894345Y25788904D01*
X105941964Y25646047D01*
X106513392Y25074619D01*
X105894345Y25074619D01*
X127420535Y25074619D02*
X127420535Y26074619D01*
X126849107Y25074619D02*
X127277678Y25646047D01*
X126849107Y26074619D02*
X127420535Y25503190D01*
X125896726Y25074619D02*
X126468154Y25074619D01*
X126182440Y25074619D02*
X126182440Y26074619D01*
X126277678Y25931761D01*
X126372916Y25836523D01*
X126468154Y25788904D01*
X125563392Y26074619D02*
X124944345Y26074619D01*
X125277678Y25693666D01*
X125134821Y25693666D01*
X125039583Y25646047D01*
X124991964Y25598428D01*
X124944345Y25503190D01*
X124944345Y25265095D01*
X124991964Y25169857D01*
X125039583Y25122238D01*
X125134821Y25074619D01*
X125420535Y25074619D01*
X125515773Y25122238D01*
X125563392Y25169857D01*
X-96416964Y6024619D02*
X-96416964Y7024619D01*
X-96988392Y6024619D02*
X-96559821Y6596047D01*
X-96988392Y7024619D02*
X-96416964Y6453190D01*
X-97940773Y6024619D02*
X-97369345Y6024619D01*
X-97655059Y6024619D02*
X-97655059Y7024619D01*
X-97559821Y6881761D01*
X-97464583Y6786523D01*
X-97369345Y6738904D01*
X-98845535Y7024619D02*
X-98369345Y7024619D01*
X-98321726Y6548428D01*
X-98369345Y6596047D01*
X-98464583Y6643666D01*
X-98702678Y6643666D01*
X-98797916Y6596047D01*
X-98845535Y6548428D01*
X-98893154Y6453190D01*
X-98893154Y6215095D01*
X-98845535Y6119857D01*
X-98797916Y6072238D01*
X-98702678Y6024619D01*
X-98464583Y6024619D01*
X-98369345Y6072238D01*
X-98321726Y6119857D01*
X-72604464Y6024619D02*
X-72604464Y7024619D01*
X-73175892Y6024619D02*
X-72747321Y6596047D01*
X-73175892Y7024619D02*
X-72604464Y6453190D01*
X-74128273Y6024619D02*
X-73556845Y6024619D01*
X-73842559Y6024619D02*
X-73842559Y7024619D01*
X-73747321Y6881761D01*
X-73652083Y6786523D01*
X-73556845Y6738904D01*
X-74985416Y7024619D02*
X-74794940Y7024619D01*
X-74699702Y6977000D01*
X-74652083Y6929380D01*
X-74556845Y6786523D01*
X-74509226Y6596047D01*
X-74509226Y6215095D01*
X-74556845Y6119857D01*
X-74604464Y6072238D01*
X-74699702Y6024619D01*
X-74890178Y6024619D01*
X-74985416Y6072238D01*
X-75033035Y6119857D01*
X-75080654Y6215095D01*
X-75080654Y6453190D01*
X-75033035Y6548428D01*
X-74985416Y6596047D01*
X-74890178Y6643666D01*
X-74699702Y6643666D01*
X-74604464Y6596047D01*
X-74556845Y6548428D01*
X-74509226Y6453190D01*
X-53554464Y6024619D02*
X-53554464Y7024619D01*
X-54125892Y6024619D02*
X-53697321Y6596047D01*
X-54125892Y7024619D02*
X-53554464Y6453190D01*
X-55078273Y6024619D02*
X-54506845Y6024619D01*
X-54792559Y6024619D02*
X-54792559Y7024619D01*
X-54697321Y6881761D01*
X-54602083Y6786523D01*
X-54506845Y6738904D01*
X-55411607Y7024619D02*
X-56078273Y7024619D01*
X-55649702Y6024619D01*
X-34504464Y6024619D02*
X-34504464Y7024619D01*
X-35075892Y6024619D02*
X-34647321Y6596047D01*
X-35075892Y7024619D02*
X-34504464Y6453190D01*
X-36028273Y6024619D02*
X-35456845Y6024619D01*
X-35742559Y6024619D02*
X-35742559Y7024619D01*
X-35647321Y6881761D01*
X-35552083Y6786523D01*
X-35456845Y6738904D01*
X-36599702Y6596047D02*
X-36504464Y6643666D01*
X-36456845Y6691285D01*
X-36409226Y6786523D01*
X-36409226Y6834142D01*
X-36456845Y6929380D01*
X-36504464Y6977000D01*
X-36599702Y7024619D01*
X-36790178Y7024619D01*
X-36885416Y6977000D01*
X-36933035Y6929380D01*
X-36980654Y6834142D01*
X-36980654Y6786523D01*
X-36933035Y6691285D01*
X-36885416Y6643666D01*
X-36790178Y6596047D01*
X-36599702Y6596047D01*
X-36504464Y6548428D01*
X-36456845Y6500809D01*
X-36409226Y6405571D01*
X-36409226Y6215095D01*
X-36456845Y6119857D01*
X-36504464Y6072238D01*
X-36599702Y6024619D01*
X-36790178Y6024619D01*
X-36885416Y6072238D01*
X-36933035Y6119857D01*
X-36980654Y6215095D01*
X-36980654Y6405571D01*
X-36933035Y6500809D01*
X-36885416Y6548428D01*
X-36790178Y6596047D01*
X-15454464Y6024619D02*
X-15454464Y7024619D01*
X-16025892Y6024619D02*
X-15597321Y6596047D01*
X-16025892Y7024619D02*
X-15454464Y6453190D01*
X-16978273Y6024619D02*
X-16406845Y6024619D01*
X-16692559Y6024619D02*
X-16692559Y7024619D01*
X-16597321Y6881761D01*
X-16502083Y6786523D01*
X-16406845Y6738904D01*
X-17454464Y6024619D02*
X-17644940Y6024619D01*
X-17740178Y6072238D01*
X-17787797Y6119857D01*
X-17883035Y6262714D01*
X-17930654Y6453190D01*
X-17930654Y6834142D01*
X-17883035Y6929380D01*
X-17835416Y6977000D01*
X-17740178Y7024619D01*
X-17549702Y7024619D01*
X-17454464Y6977000D01*
X-17406845Y6929380D01*
X-17359226Y6834142D01*
X-17359226Y6596047D01*
X-17406845Y6500809D01*
X-17454464Y6453190D01*
X-17549702Y6405571D01*
X-17740178Y6405571D01*
X-17835416Y6453190D01*
X-17883035Y6500809D01*
X-17930654Y6596047D01*
X3595535Y6024619D02*
X3595535Y7024619D01*
X3024107Y6024619D02*
X3452678Y6596047D01*
X3024107Y7024619D02*
X3595535Y6453190D01*
X2643154Y6929380D02*
X2595535Y6977000D01*
X2500297Y7024619D01*
X2262202Y7024619D01*
X2166964Y6977000D01*
X2119345Y6929380D01*
X2071726Y6834142D01*
X2071726Y6738904D01*
X2119345Y6596047D01*
X2690773Y6024619D01*
X2071726Y6024619D01*
X1452678Y7024619D02*
X1357440Y7024619D01*
X1262202Y6977000D01*
X1214583Y6929380D01*
X1166964Y6834142D01*
X1119345Y6643666D01*
X1119345Y6405571D01*
X1166964Y6215095D01*
X1214583Y6119857D01*
X1262202Y6072238D01*
X1357440Y6024619D01*
X1452678Y6024619D01*
X1547916Y6072238D01*
X1595535Y6119857D01*
X1643154Y6215095D01*
X1690773Y6405571D01*
X1690773Y6643666D01*
X1643154Y6834142D01*
X1595535Y6929380D01*
X1547916Y6977000D01*
X1452678Y7024619D01*
X22645535Y6024619D02*
X22645535Y7024619D01*
X22074107Y6024619D02*
X22502678Y6596047D01*
X22074107Y7024619D02*
X22645535Y6453190D01*
X21693154Y6929380D02*
X21645535Y6977000D01*
X21550297Y7024619D01*
X21312202Y7024619D01*
X21216964Y6977000D01*
X21169345Y6929380D01*
X21121726Y6834142D01*
X21121726Y6738904D01*
X21169345Y6596047D01*
X21740773Y6024619D01*
X21121726Y6024619D01*
X20169345Y6024619D02*
X20740773Y6024619D01*
X20455059Y6024619D02*
X20455059Y7024619D01*
X20550297Y6881761D01*
X20645535Y6786523D01*
X20740773Y6738904D01*
X41695535Y6024619D02*
X41695535Y7024619D01*
X41124107Y6024619D02*
X41552678Y6596047D01*
X41124107Y7024619D02*
X41695535Y6453190D01*
X40743154Y6929380D02*
X40695535Y6977000D01*
X40600297Y7024619D01*
X40362202Y7024619D01*
X40266964Y6977000D01*
X40219345Y6929380D01*
X40171726Y6834142D01*
X40171726Y6738904D01*
X40219345Y6596047D01*
X40790773Y6024619D01*
X40171726Y6024619D01*
X39790773Y6929380D02*
X39743154Y6977000D01*
X39647916Y7024619D01*
X39409821Y7024619D01*
X39314583Y6977000D01*
X39266964Y6929380D01*
X39219345Y6834142D01*
X39219345Y6738904D01*
X39266964Y6596047D01*
X39838392Y6024619D01*
X39219345Y6024619D01*
X60745535Y6024619D02*
X60745535Y7024619D01*
X60174107Y6024619D02*
X60602678Y6596047D01*
X60174107Y7024619D02*
X60745535Y6453190D01*
X59793154Y6929380D02*
X59745535Y6977000D01*
X59650297Y7024619D01*
X59412202Y7024619D01*
X59316964Y6977000D01*
X59269345Y6929380D01*
X59221726Y6834142D01*
X59221726Y6738904D01*
X59269345Y6596047D01*
X59840773Y6024619D01*
X59221726Y6024619D01*
X58888392Y7024619D02*
X58269345Y7024619D01*
X58602678Y6643666D01*
X58459821Y6643666D01*
X58364583Y6596047D01*
X58316964Y6548428D01*
X58269345Y6453190D01*
X58269345Y6215095D01*
X58316964Y6119857D01*
X58364583Y6072238D01*
X58459821Y6024619D01*
X58745535Y6024619D01*
X58840773Y6072238D01*
X58888392Y6119857D01*
X79795535Y6024619D02*
X79795535Y7024619D01*
X79224107Y6024619D02*
X79652678Y6596047D01*
X79224107Y7024619D02*
X79795535Y6453190D01*
X78843154Y6929380D02*
X78795535Y6977000D01*
X78700297Y7024619D01*
X78462202Y7024619D01*
X78366964Y6977000D01*
X78319345Y6929380D01*
X78271726Y6834142D01*
X78271726Y6738904D01*
X78319345Y6596047D01*
X78890773Y6024619D01*
X78271726Y6024619D01*
X77414583Y6691285D02*
X77414583Y6024619D01*
X77652678Y7072238D02*
X77890773Y6357952D01*
X77271726Y6357952D01*
X98845535Y6024619D02*
X98845535Y7024619D01*
X98274107Y6024619D02*
X98702678Y6596047D01*
X98274107Y7024619D02*
X98845535Y6453190D01*
X97893154Y6929380D02*
X97845535Y6977000D01*
X97750297Y7024619D01*
X97512202Y7024619D01*
X97416964Y6977000D01*
X97369345Y6929380D01*
X97321726Y6834142D01*
X97321726Y6738904D01*
X97369345Y6596047D01*
X97940773Y6024619D01*
X97321726Y6024619D01*
X96416964Y7024619D02*
X96893154Y7024619D01*
X96940773Y6548428D01*
X96893154Y6596047D01*
X96797916Y6643666D01*
X96559821Y6643666D01*
X96464583Y6596047D01*
X96416964Y6548428D01*
X96369345Y6453190D01*
X96369345Y6215095D01*
X96416964Y6119857D01*
X96464583Y6072238D01*
X96559821Y6024619D01*
X96797916Y6024619D01*
X96893154Y6072238D01*
X96940773Y6119857D01*
X117895535Y6024619D02*
X117895535Y7024619D01*
X117324107Y6024619D02*
X117752678Y6596047D01*
X117324107Y7024619D02*
X117895535Y6453190D01*
X116943154Y6929380D02*
X116895535Y6977000D01*
X116800297Y7024619D01*
X116562202Y7024619D01*
X116466964Y6977000D01*
X116419345Y6929380D01*
X116371726Y6834142D01*
X116371726Y6738904D01*
X116419345Y6596047D01*
X116990773Y6024619D01*
X116371726Y6024619D01*
X115514583Y7024619D02*
X115705059Y7024619D01*
X115800297Y6977000D01*
X115847916Y6929380D01*
X115943154Y6786523D01*
X115990773Y6596047D01*
X115990773Y6215095D01*
X115943154Y6119857D01*
X115895535Y6072238D01*
X115800297Y6024619D01*
X115609821Y6024619D01*
X115514583Y6072238D01*
X115466964Y6119857D01*
X115419345Y6215095D01*
X115419345Y6453190D01*
X115466964Y6548428D01*
X115514583Y6596047D01*
X115609821Y6643666D01*
X115800297Y6643666D01*
X115895535Y6596047D01*
X115943154Y6548428D01*
X115990773Y6453190D01*
X136945535Y6024619D02*
X136945535Y7024619D01*
X136374107Y6024619D02*
X136802678Y6596047D01*
X136374107Y7024619D02*
X136945535Y6453190D01*
X135993154Y6929380D02*
X135945535Y6977000D01*
X135850297Y7024619D01*
X135612202Y7024619D01*
X135516964Y6977000D01*
X135469345Y6929380D01*
X135421726Y6834142D01*
X135421726Y6738904D01*
X135469345Y6596047D01*
X136040773Y6024619D01*
X135421726Y6024619D01*
X135088392Y7024619D02*
X134421726Y7024619D01*
X134850297Y6024619D01*
X-67841964Y-13025380D02*
X-67841964Y-12025380D01*
X-68413392Y-13025380D02*
X-67984821Y-12453952D01*
X-68413392Y-12025380D02*
X-67841964Y-12596809D01*
X-68746726Y-12025380D02*
X-69365773Y-12025380D01*
X-69032440Y-12406333D01*
X-69175297Y-12406333D01*
X-69270535Y-12453952D01*
X-69318154Y-12501571D01*
X-69365773Y-12596809D01*
X-69365773Y-12834904D01*
X-69318154Y-12930142D01*
X-69270535Y-12977761D01*
X-69175297Y-13025380D01*
X-68889583Y-13025380D01*
X-68794345Y-12977761D01*
X-68746726Y-12930142D01*
X-69984821Y-12025380D02*
X-70080059Y-12025380D01*
X-70175297Y-12073000D01*
X-70222916Y-12120619D01*
X-70270535Y-12215857D01*
X-70318154Y-12406333D01*
X-70318154Y-12644428D01*
X-70270535Y-12834904D01*
X-70222916Y-12930142D01*
X-70175297Y-12977761D01*
X-70080059Y-13025380D01*
X-69984821Y-13025380D01*
X-69889583Y-12977761D01*
X-69841964Y-12930142D01*
X-69794345Y-12834904D01*
X-69746726Y-12644428D01*
X-69746726Y-12406333D01*
X-69794345Y-12215857D01*
X-69841964Y-12120619D01*
X-69889583Y-12073000D01*
X-69984821Y-12025380D01*
X-48791964Y-13025380D02*
X-48791964Y-12025380D01*
X-49363392Y-13025380D02*
X-48934821Y-12453952D01*
X-49363392Y-12025380D02*
X-48791964Y-12596809D01*
X-49696726Y-12025380D02*
X-50315773Y-12025380D01*
X-49982440Y-12406333D01*
X-50125297Y-12406333D01*
X-50220535Y-12453952D01*
X-50268154Y-12501571D01*
X-50315773Y-12596809D01*
X-50315773Y-12834904D01*
X-50268154Y-12930142D01*
X-50220535Y-12977761D01*
X-50125297Y-13025380D01*
X-49839583Y-13025380D01*
X-49744345Y-12977761D01*
X-49696726Y-12930142D01*
X-51268154Y-13025380D02*
X-50696726Y-13025380D01*
X-50982440Y-13025380D02*
X-50982440Y-12025380D01*
X-50887202Y-12168238D01*
X-50791964Y-12263476D01*
X-50696726Y-12311095D01*
X-29741964Y-13025380D02*
X-29741964Y-12025380D01*
X-30313392Y-13025380D02*
X-29884821Y-12453952D01*
X-30313392Y-12025380D02*
X-29741964Y-12596809D01*
X-30646726Y-12025380D02*
X-31265773Y-12025380D01*
X-30932440Y-12406333D01*
X-31075297Y-12406333D01*
X-31170535Y-12453952D01*
X-31218154Y-12501571D01*
X-31265773Y-12596809D01*
X-31265773Y-12834904D01*
X-31218154Y-12930142D01*
X-31170535Y-12977761D01*
X-31075297Y-13025380D01*
X-30789583Y-13025380D01*
X-30694345Y-12977761D01*
X-30646726Y-12930142D01*
X-31646726Y-12120619D02*
X-31694345Y-12073000D01*
X-31789583Y-12025380D01*
X-32027678Y-12025380D01*
X-32122916Y-12073000D01*
X-32170535Y-12120619D01*
X-32218154Y-12215857D01*
X-32218154Y-12311095D01*
X-32170535Y-12453952D01*
X-31599107Y-13025380D01*
X-32218154Y-13025380D01*
X8358035Y-13025380D02*
X8358035Y-12025380D01*
X7786607Y-13025380D02*
X8215178Y-12453952D01*
X7786607Y-12025380D02*
X8358035Y-12596809D01*
X7453273Y-12025380D02*
X6834226Y-12025380D01*
X7167559Y-12406333D01*
X7024702Y-12406333D01*
X6929464Y-12453952D01*
X6881845Y-12501571D01*
X6834226Y-12596809D01*
X6834226Y-12834904D01*
X6881845Y-12930142D01*
X6929464Y-12977761D01*
X7024702Y-13025380D01*
X7310416Y-13025380D01*
X7405654Y-12977761D01*
X7453273Y-12930142D01*
X5977083Y-12358714D02*
X5977083Y-13025380D01*
X6215178Y-11977761D02*
X6453273Y-12692047D01*
X5834226Y-12692047D01*
X27408035Y-13025380D02*
X27408035Y-12025380D01*
X26836607Y-13025380D02*
X27265178Y-12453952D01*
X26836607Y-12025380D02*
X27408035Y-12596809D01*
X26503273Y-12025380D02*
X25884226Y-12025380D01*
X26217559Y-12406333D01*
X26074702Y-12406333D01*
X25979464Y-12453952D01*
X25931845Y-12501571D01*
X25884226Y-12596809D01*
X25884226Y-12834904D01*
X25931845Y-12930142D01*
X25979464Y-12977761D01*
X26074702Y-13025380D01*
X26360416Y-13025380D01*
X26455654Y-12977761D01*
X26503273Y-12930142D01*
X24979464Y-12025380D02*
X25455654Y-12025380D01*
X25503273Y-12501571D01*
X25455654Y-12453952D01*
X25360416Y-12406333D01*
X25122321Y-12406333D01*
X25027083Y-12453952D01*
X24979464Y-12501571D01*
X24931845Y-12596809D01*
X24931845Y-12834904D01*
X24979464Y-12930142D01*
X25027083Y-12977761D01*
X25122321Y-13025380D01*
X25360416Y-13025380D01*
X25455654Y-12977761D01*
X25503273Y-12930142D01*
X46458035Y-13025380D02*
X46458035Y-12025380D01*
X45886607Y-13025380D02*
X46315178Y-12453952D01*
X45886607Y-12025380D02*
X46458035Y-12596809D01*
X45553273Y-12025380D02*
X44934226Y-12025380D01*
X45267559Y-12406333D01*
X45124702Y-12406333D01*
X45029464Y-12453952D01*
X44981845Y-12501571D01*
X44934226Y-12596809D01*
X44934226Y-12834904D01*
X44981845Y-12930142D01*
X45029464Y-12977761D01*
X45124702Y-13025380D01*
X45410416Y-13025380D01*
X45505654Y-12977761D01*
X45553273Y-12930142D01*
X44077083Y-12025380D02*
X44267559Y-12025380D01*
X44362797Y-12073000D01*
X44410416Y-12120619D01*
X44505654Y-12263476D01*
X44553273Y-12453952D01*
X44553273Y-12834904D01*
X44505654Y-12930142D01*
X44458035Y-12977761D01*
X44362797Y-13025380D01*
X44172321Y-13025380D01*
X44077083Y-12977761D01*
X44029464Y-12930142D01*
X43981845Y-12834904D01*
X43981845Y-12596809D01*
X44029464Y-12501571D01*
X44077083Y-12453952D01*
X44172321Y-12406333D01*
X44362797Y-12406333D01*
X44458035Y-12453952D01*
X44505654Y-12501571D01*
X44553273Y-12596809D01*
X65508035Y-13025380D02*
X65508035Y-12025380D01*
X64936607Y-13025380D02*
X65365178Y-12453952D01*
X64936607Y-12025380D02*
X65508035Y-12596809D01*
X64603273Y-12025380D02*
X63984226Y-12025380D01*
X64317559Y-12406333D01*
X64174702Y-12406333D01*
X64079464Y-12453952D01*
X64031845Y-12501571D01*
X63984226Y-12596809D01*
X63984226Y-12834904D01*
X64031845Y-12930142D01*
X64079464Y-12977761D01*
X64174702Y-13025380D01*
X64460416Y-13025380D01*
X64555654Y-12977761D01*
X64603273Y-12930142D01*
X63650892Y-12025380D02*
X62984226Y-12025380D01*
X63412797Y-13025380D01*
X84558035Y-13025380D02*
X84558035Y-12025380D01*
X83986607Y-13025380D02*
X84415178Y-12453952D01*
X83986607Y-12025380D02*
X84558035Y-12596809D01*
X83653273Y-12025380D02*
X83034226Y-12025380D01*
X83367559Y-12406333D01*
X83224702Y-12406333D01*
X83129464Y-12453952D01*
X83081845Y-12501571D01*
X83034226Y-12596809D01*
X83034226Y-12834904D01*
X83081845Y-12930142D01*
X83129464Y-12977761D01*
X83224702Y-13025380D01*
X83510416Y-13025380D01*
X83605654Y-12977761D01*
X83653273Y-12930142D01*
X82462797Y-12453952D02*
X82558035Y-12406333D01*
X82605654Y-12358714D01*
X82653273Y-12263476D01*
X82653273Y-12215857D01*
X82605654Y-12120619D01*
X82558035Y-12073000D01*
X82462797Y-12025380D01*
X82272321Y-12025380D01*
X82177083Y-12073000D01*
X82129464Y-12120619D01*
X82081845Y-12215857D01*
X82081845Y-12263476D01*
X82129464Y-12358714D01*
X82177083Y-12406333D01*
X82272321Y-12453952D01*
X82462797Y-12453952D01*
X82558035Y-12501571D01*
X82605654Y-12549190D01*
X82653273Y-12644428D01*
X82653273Y-12834904D01*
X82605654Y-12930142D01*
X82558035Y-12977761D01*
X82462797Y-13025380D01*
X82272321Y-13025380D01*
X82177083Y-12977761D01*
X82129464Y-12930142D01*
X82081845Y-12834904D01*
X82081845Y-12644428D01*
X82129464Y-12549190D01*
X82177083Y-12501571D01*
X82272321Y-12453952D01*
X103608035Y-13025380D02*
X103608035Y-12025380D01*
X103036607Y-13025380D02*
X103465178Y-12453952D01*
X103036607Y-12025380D02*
X103608035Y-12596809D01*
X102703273Y-12025380D02*
X102084226Y-12025380D01*
X102417559Y-12406333D01*
X102274702Y-12406333D01*
X102179464Y-12453952D01*
X102131845Y-12501571D01*
X102084226Y-12596809D01*
X102084226Y-12834904D01*
X102131845Y-12930142D01*
X102179464Y-12977761D01*
X102274702Y-13025380D01*
X102560416Y-13025380D01*
X102655654Y-12977761D01*
X102703273Y-12930142D01*
X101608035Y-13025380D02*
X101417559Y-13025380D01*
X101322321Y-12977761D01*
X101274702Y-12930142D01*
X101179464Y-12787285D01*
X101131845Y-12596809D01*
X101131845Y-12215857D01*
X101179464Y-12120619D01*
X101227083Y-12073000D01*
X101322321Y-12025380D01*
X101512797Y-12025380D01*
X101608035Y-12073000D01*
X101655654Y-12120619D01*
X101703273Y-12215857D01*
X101703273Y-12453952D01*
X101655654Y-12549190D01*
X101608035Y-12596809D01*
X101512797Y-12644428D01*
X101322321Y-12644428D01*
X101227083Y-12596809D01*
X101179464Y-12549190D01*
X101131845Y-12453952D01*
X122658035Y-13025380D02*
X122658035Y-12025380D01*
X122086607Y-13025380D02*
X122515178Y-12453952D01*
X122086607Y-12025380D02*
X122658035Y-12596809D01*
X121229464Y-12358714D02*
X121229464Y-13025380D01*
X121467559Y-11977761D02*
X121705654Y-12692047D01*
X121086607Y-12692047D01*
X120515178Y-12025380D02*
X120419940Y-12025380D01*
X120324702Y-12073000D01*
X120277083Y-12120619D01*
X120229464Y-12215857D01*
X120181845Y-12406333D01*
X120181845Y-12644428D01*
X120229464Y-12834904D01*
X120277083Y-12930142D01*
X120324702Y-12977761D01*
X120419940Y-13025380D01*
X120515178Y-13025380D01*
X120610416Y-12977761D01*
X120658035Y-12930142D01*
X120705654Y-12834904D01*
X120753273Y-12644428D01*
X120753273Y-12406333D01*
X120705654Y-12215857D01*
X120658035Y-12120619D01*
X120610416Y-12073000D01*
X120515178Y-12025380D01*
X-39266964Y-32075380D02*
X-39266964Y-31075380D01*
X-39838392Y-32075380D02*
X-39409821Y-31503952D01*
X-39838392Y-31075380D02*
X-39266964Y-31646809D01*
X-40695535Y-31408714D02*
X-40695535Y-32075380D01*
X-40457440Y-31027761D02*
X-40219345Y-31742047D01*
X-40838392Y-31742047D01*
X-41647916Y-31408714D02*
X-41647916Y-32075380D01*
X-41409821Y-31027761D02*
X-41171726Y-31742047D01*
X-41790773Y-31742047D01*
X-20216964Y-32075380D02*
X-20216964Y-31075380D01*
X-20788392Y-32075380D02*
X-20359821Y-31503952D01*
X-20788392Y-31075380D02*
X-20216964Y-31646809D01*
X-21645535Y-31408714D02*
X-21645535Y-32075380D01*
X-21407440Y-31027761D02*
X-21169345Y-31742047D01*
X-21788392Y-31742047D01*
X-22645535Y-31075380D02*
X-22169345Y-31075380D01*
X-22121726Y-31551571D01*
X-22169345Y-31503952D01*
X-22264583Y-31456333D01*
X-22502678Y-31456333D01*
X-22597916Y-31503952D01*
X-22645535Y-31551571D01*
X-22693154Y-31646809D01*
X-22693154Y-31884904D01*
X-22645535Y-31980142D01*
X-22597916Y-32027761D01*
X-22502678Y-32075380D01*
X-22264583Y-32075380D01*
X-22169345Y-32027761D01*
X-22121726Y-31980142D01*
X-1166964Y-32075380D02*
X-1166964Y-31075380D01*
X-1738392Y-32075380D02*
X-1309821Y-31503952D01*
X-1738392Y-31075380D02*
X-1166964Y-31646809D01*
X-2595535Y-31408714D02*
X-2595535Y-32075380D01*
X-2357440Y-31027761D02*
X-2119345Y-31742047D01*
X-2738392Y-31742047D01*
X-3547916Y-31075380D02*
X-3357440Y-31075380D01*
X-3262202Y-31123000D01*
X-3214583Y-31170619D01*
X-3119345Y-31313476D01*
X-3071726Y-31503952D01*
X-3071726Y-31884904D01*
X-3119345Y-31980142D01*
X-3166964Y-32027761D01*
X-3262202Y-32075380D01*
X-3452678Y-32075380D01*
X-3547916Y-32027761D01*
X-3595535Y-31980142D01*
X-3643154Y-31884904D01*
X-3643154Y-31646809D01*
X-3595535Y-31551571D01*
X-3547916Y-31503952D01*
X-3452678Y-31456333D01*
X-3262202Y-31456333D01*
X-3166964Y-31503952D01*
X-3119345Y-31551571D01*
X-3071726Y-31646809D01*
X17883035Y-32075380D02*
X17883035Y-31075380D01*
X17311607Y-32075380D02*
X17740178Y-31503952D01*
X17311607Y-31075380D02*
X17883035Y-31646809D01*
X16454464Y-31408714D02*
X16454464Y-32075380D01*
X16692559Y-31027761D02*
X16930654Y-31742047D01*
X16311607Y-31742047D01*
X16025892Y-31075380D02*
X15359226Y-31075380D01*
X15787797Y-32075380D01*
X36933035Y-32075380D02*
X36933035Y-31075380D01*
X36361607Y-32075380D02*
X36790178Y-31503952D01*
X36361607Y-31075380D02*
X36933035Y-31646809D01*
X35504464Y-31408714D02*
X35504464Y-32075380D01*
X35742559Y-31027761D02*
X35980654Y-31742047D01*
X35361607Y-31742047D01*
X34837797Y-31503952D02*
X34933035Y-31456333D01*
X34980654Y-31408714D01*
X35028273Y-31313476D01*
X35028273Y-31265857D01*
X34980654Y-31170619D01*
X34933035Y-31123000D01*
X34837797Y-31075380D01*
X34647321Y-31075380D01*
X34552083Y-31123000D01*
X34504464Y-31170619D01*
X34456845Y-31265857D01*
X34456845Y-31313476D01*
X34504464Y-31408714D01*
X34552083Y-31456333D01*
X34647321Y-31503952D01*
X34837797Y-31503952D01*
X34933035Y-31551571D01*
X34980654Y-31599190D01*
X35028273Y-31694428D01*
X35028273Y-31884904D01*
X34980654Y-31980142D01*
X34933035Y-32027761D01*
X34837797Y-32075380D01*
X34647321Y-32075380D01*
X34552083Y-32027761D01*
X34504464Y-31980142D01*
X34456845Y-31884904D01*
X34456845Y-31694428D01*
X34504464Y-31599190D01*
X34552083Y-31551571D01*
X34647321Y-31503952D01*
X55983035Y-32075380D02*
X55983035Y-31075380D01*
X55411607Y-32075380D02*
X55840178Y-31503952D01*
X55411607Y-31075380D02*
X55983035Y-31646809D01*
X54554464Y-31408714D02*
X54554464Y-32075380D01*
X54792559Y-31027761D02*
X55030654Y-31742047D01*
X54411607Y-31742047D01*
X53983035Y-32075380D02*
X53792559Y-32075380D01*
X53697321Y-32027761D01*
X53649702Y-31980142D01*
X53554464Y-31837285D01*
X53506845Y-31646809D01*
X53506845Y-31265857D01*
X53554464Y-31170619D01*
X53602083Y-31123000D01*
X53697321Y-31075380D01*
X53887797Y-31075380D01*
X53983035Y-31123000D01*
X54030654Y-31170619D01*
X54078273Y-31265857D01*
X54078273Y-31503952D01*
X54030654Y-31599190D01*
X53983035Y-31646809D01*
X53887797Y-31694428D01*
X53697321Y-31694428D01*
X53602083Y-31646809D01*
X53554464Y-31599190D01*
X53506845Y-31503952D01*
X75033035Y-32075380D02*
X75033035Y-31075380D01*
X74461607Y-32075380D02*
X74890178Y-31503952D01*
X74461607Y-31075380D02*
X75033035Y-31646809D01*
X73556845Y-31075380D02*
X74033035Y-31075380D01*
X74080654Y-31551571D01*
X74033035Y-31503952D01*
X73937797Y-31456333D01*
X73699702Y-31456333D01*
X73604464Y-31503952D01*
X73556845Y-31551571D01*
X73509226Y-31646809D01*
X73509226Y-31884904D01*
X73556845Y-31980142D01*
X73604464Y-32027761D01*
X73699702Y-32075380D01*
X73937797Y-32075380D01*
X74033035Y-32027761D01*
X74080654Y-31980142D01*
X72890178Y-31075380D02*
X72794940Y-31075380D01*
X72699702Y-31123000D01*
X72652083Y-31170619D01*
X72604464Y-31265857D01*
X72556845Y-31456333D01*
X72556845Y-31694428D01*
X72604464Y-31884904D01*
X72652083Y-31980142D01*
X72699702Y-32027761D01*
X72794940Y-32075380D01*
X72890178Y-32075380D01*
X72985416Y-32027761D01*
X73033035Y-31980142D01*
X73080654Y-31884904D01*
X73128273Y-31694428D01*
X73128273Y-31456333D01*
X73080654Y-31265857D01*
X73033035Y-31170619D01*
X72985416Y-31123000D01*
X72890178Y-31075380D01*
X94083035Y-32075380D02*
X94083035Y-31075380D01*
X93511607Y-32075380D02*
X93940178Y-31503952D01*
X93511607Y-31075380D02*
X94083035Y-31646809D01*
X92606845Y-31075380D02*
X93083035Y-31075380D01*
X93130654Y-31551571D01*
X93083035Y-31503952D01*
X92987797Y-31456333D01*
X92749702Y-31456333D01*
X92654464Y-31503952D01*
X92606845Y-31551571D01*
X92559226Y-31646809D01*
X92559226Y-31884904D01*
X92606845Y-31980142D01*
X92654464Y-32027761D01*
X92749702Y-32075380D01*
X92987797Y-32075380D01*
X93083035Y-32027761D01*
X93130654Y-31980142D01*
X91606845Y-32075380D02*
X92178273Y-32075380D01*
X91892559Y-32075380D02*
X91892559Y-31075380D01*
X91987797Y-31218238D01*
X92083035Y-31313476D01*
X92178273Y-31361095D01*
X113133035Y-32075380D02*
X113133035Y-31075380D01*
X112561607Y-32075380D02*
X112990178Y-31503952D01*
X112561607Y-31075380D02*
X113133035Y-31646809D01*
X111656845Y-31075380D02*
X112133035Y-31075380D01*
X112180654Y-31551571D01*
X112133035Y-31503952D01*
X112037797Y-31456333D01*
X111799702Y-31456333D01*
X111704464Y-31503952D01*
X111656845Y-31551571D01*
X111609226Y-31646809D01*
X111609226Y-31884904D01*
X111656845Y-31980142D01*
X111704464Y-32027761D01*
X111799702Y-32075380D01*
X112037797Y-32075380D01*
X112133035Y-32027761D01*
X112180654Y-31980142D01*
X111228273Y-31170619D02*
X111180654Y-31123000D01*
X111085416Y-31075380D01*
X110847321Y-31075380D01*
X110752083Y-31123000D01*
X110704464Y-31170619D01*
X110656845Y-31265857D01*
X110656845Y-31361095D01*
X110704464Y-31503952D01*
X111275892Y-32075380D01*
X110656845Y-32075380D01*
X-96416964Y-51125380D02*
X-96416964Y-50125380D01*
X-96988392Y-51125380D02*
X-96559821Y-50553952D01*
X-96988392Y-50125380D02*
X-96416964Y-50696809D01*
X-97893154Y-50125380D02*
X-97416964Y-50125380D01*
X-97369345Y-50601571D01*
X-97416964Y-50553952D01*
X-97512202Y-50506333D01*
X-97750297Y-50506333D01*
X-97845535Y-50553952D01*
X-97893154Y-50601571D01*
X-97940773Y-50696809D01*
X-97940773Y-50934904D01*
X-97893154Y-51030142D01*
X-97845535Y-51077761D01*
X-97750297Y-51125380D01*
X-97512202Y-51125380D01*
X-97416964Y-51077761D01*
X-97369345Y-51030142D01*
X-98845535Y-50125380D02*
X-98369345Y-50125380D01*
X-98321726Y-50601571D01*
X-98369345Y-50553952D01*
X-98464583Y-50506333D01*
X-98702678Y-50506333D01*
X-98797916Y-50553952D01*
X-98845535Y-50601571D01*
X-98893154Y-50696809D01*
X-98893154Y-50934904D01*
X-98845535Y-51030142D01*
X-98797916Y-51077761D01*
X-98702678Y-51125380D01*
X-98464583Y-51125380D01*
X-98369345Y-51077761D01*
X-98321726Y-51030142D01*
X-48791964Y-51125380D02*
X-48791964Y-50125380D01*
X-49363392Y-51125380D02*
X-48934821Y-50553952D01*
X-49363392Y-50125380D02*
X-48791964Y-50696809D01*
X-50268154Y-50125380D02*
X-49791964Y-50125380D01*
X-49744345Y-50601571D01*
X-49791964Y-50553952D01*
X-49887202Y-50506333D01*
X-50125297Y-50506333D01*
X-50220535Y-50553952D01*
X-50268154Y-50601571D01*
X-50315773Y-50696809D01*
X-50315773Y-50934904D01*
X-50268154Y-51030142D01*
X-50220535Y-51077761D01*
X-50125297Y-51125380D01*
X-49887202Y-51125380D01*
X-49791964Y-51077761D01*
X-49744345Y-51030142D01*
X-51172916Y-50125380D02*
X-50982440Y-50125380D01*
X-50887202Y-50173000D01*
X-50839583Y-50220619D01*
X-50744345Y-50363476D01*
X-50696726Y-50553952D01*
X-50696726Y-50934904D01*
X-50744345Y-51030142D01*
X-50791964Y-51077761D01*
X-50887202Y-51125380D01*
X-51077678Y-51125380D01*
X-51172916Y-51077761D01*
X-51220535Y-51030142D01*
X-51268154Y-50934904D01*
X-51268154Y-50696809D01*
X-51220535Y-50601571D01*
X-51172916Y-50553952D01*
X-51077678Y-50506333D01*
X-50887202Y-50506333D01*
X-50791964Y-50553952D01*
X-50744345Y-50601571D01*
X-50696726Y-50696809D01*
X113133035Y-51125380D02*
X113133035Y-50125380D01*
X112561607Y-51125380D02*
X112990178Y-50553952D01*
X112561607Y-50125380D02*
X113133035Y-50696809D01*
X111656845Y-50125380D02*
X112133035Y-50125380D01*
X112180654Y-50601571D01*
X112133035Y-50553952D01*
X112037797Y-50506333D01*
X111799702Y-50506333D01*
X111704464Y-50553952D01*
X111656845Y-50601571D01*
X111609226Y-50696809D01*
X111609226Y-50934904D01*
X111656845Y-51030142D01*
X111704464Y-51077761D01*
X111799702Y-51125380D01*
X112037797Y-51125380D01*
X112133035Y-51077761D01*
X112180654Y-51030142D01*
X111037797Y-50553952D02*
X111133035Y-50506333D01*
X111180654Y-50458714D01*
X111228273Y-50363476D01*
X111228273Y-50315857D01*
X111180654Y-50220619D01*
X111133035Y-50173000D01*
X111037797Y-50125380D01*
X110847321Y-50125380D01*
X110752083Y-50173000D01*
X110704464Y-50220619D01*
X110656845Y-50315857D01*
X110656845Y-50363476D01*
X110704464Y-50458714D01*
X110752083Y-50506333D01*
X110847321Y-50553952D01*
X111037797Y-50553952D01*
X111133035Y-50601571D01*
X111180654Y-50649190D01*
X111228273Y-50744428D01*
X111228273Y-50934904D01*
X111180654Y-51030142D01*
X111133035Y-51077761D01*
X111037797Y-51125380D01*
X110847321Y-51125380D01*
X110752083Y-51077761D01*
X110704464Y-51030142D01*
X110656845Y-50934904D01*
X110656845Y-50744428D01*
X110704464Y-50649190D01*
X110752083Y-50601571D01*
X110847321Y-50553952D01*
X155995535Y-51125380D02*
X155995535Y-50125380D01*
X155424107Y-51125380D02*
X155852678Y-50553952D01*
X155424107Y-50125380D02*
X155995535Y-50696809D01*
X154519345Y-50125380D02*
X154995535Y-50125380D01*
X155043154Y-50601571D01*
X154995535Y-50553952D01*
X154900297Y-50506333D01*
X154662202Y-50506333D01*
X154566964Y-50553952D01*
X154519345Y-50601571D01*
X154471726Y-50696809D01*
X154471726Y-50934904D01*
X154519345Y-51030142D01*
X154566964Y-51077761D01*
X154662202Y-51125380D01*
X154900297Y-51125380D01*
X154995535Y-51077761D01*
X155043154Y-51030142D01*
X153995535Y-51125380D02*
X153805059Y-51125380D01*
X153709821Y-51077761D01*
X153662202Y-51030142D01*
X153566964Y-50887285D01*
X153519345Y-50696809D01*
X153519345Y-50315857D01*
X153566964Y-50220619D01*
X153614583Y-50173000D01*
X153709821Y-50125380D01*
X153900297Y-50125380D01*
X153995535Y-50173000D01*
X154043154Y-50220619D01*
X154090773Y-50315857D01*
X154090773Y-50553952D01*
X154043154Y-50649190D01*
X153995535Y-50696809D01*
X153900297Y-50744428D01*
X153709821Y-50744428D01*
X153614583Y-50696809D01*
X153566964Y-50649190D01*
X153519345Y-50553952D01*
X175045535Y-51125380D02*
X175045535Y-50125380D01*
X174474107Y-51125380D02*
X174902678Y-50553952D01*
X174474107Y-50125380D02*
X175045535Y-50696809D01*
X173616964Y-50125380D02*
X173807440Y-50125380D01*
X173902678Y-50173000D01*
X173950297Y-50220619D01*
X174045535Y-50363476D01*
X174093154Y-50553952D01*
X174093154Y-50934904D01*
X174045535Y-51030142D01*
X173997916Y-51077761D01*
X173902678Y-51125380D01*
X173712202Y-51125380D01*
X173616964Y-51077761D01*
X173569345Y-51030142D01*
X173521726Y-50934904D01*
X173521726Y-50696809D01*
X173569345Y-50601571D01*
X173616964Y-50553952D01*
X173712202Y-50506333D01*
X173902678Y-50506333D01*
X173997916Y-50553952D01*
X174045535Y-50601571D01*
X174093154Y-50696809D01*
X172902678Y-50125380D02*
X172807440Y-50125380D01*
X172712202Y-50173000D01*
X172664583Y-50220619D01*
X172616964Y-50315857D01*
X172569345Y-50506333D01*
X172569345Y-50744428D01*
X172616964Y-50934904D01*
X172664583Y-51030142D01*
X172712202Y-51077761D01*
X172807440Y-51125380D01*
X172902678Y-51125380D01*
X172997916Y-51077761D01*
X173045535Y-51030142D01*
X173093154Y-50934904D01*
X173140773Y-50744428D01*
X173140773Y-50506333D01*
X173093154Y-50315857D01*
X173045535Y-50220619D01*
X172997916Y-50173000D01*
X172902678Y-50125380D01*
X194095535Y-51125380D02*
X194095535Y-50125380D01*
X193524107Y-51125380D02*
X193952678Y-50553952D01*
X193524107Y-50125380D02*
X194095535Y-50696809D01*
X192666964Y-50125380D02*
X192857440Y-50125380D01*
X192952678Y-50173000D01*
X193000297Y-50220619D01*
X193095535Y-50363476D01*
X193143154Y-50553952D01*
X193143154Y-50934904D01*
X193095535Y-51030142D01*
X193047916Y-51077761D01*
X192952678Y-51125380D01*
X192762202Y-51125380D01*
X192666964Y-51077761D01*
X192619345Y-51030142D01*
X192571726Y-50934904D01*
X192571726Y-50696809D01*
X192619345Y-50601571D01*
X192666964Y-50553952D01*
X192762202Y-50506333D01*
X192952678Y-50506333D01*
X193047916Y-50553952D01*
X193095535Y-50601571D01*
X193143154Y-50696809D01*
X191619345Y-51125380D02*
X192190773Y-51125380D01*
X191905059Y-51125380D02*
X191905059Y-50125380D01*
X192000297Y-50268238D01*
X192095535Y-50363476D01*
X192190773Y-50411095D01*
X-101803273Y21418595D02*
X-101803273Y22218595D01*
X-101993750Y22218595D01*
X-102108035Y22180500D01*
X-102184226Y22104309D01*
X-102222321Y22028119D01*
X-102260416Y21875738D01*
X-102260416Y21761452D01*
X-102222321Y21609071D01*
X-102184226Y21532880D01*
X-102108035Y21456690D01*
X-101993750Y21418595D01*
X-101803273Y21418595D01*
X-103022321Y21418595D02*
X-102565178Y21418595D01*
X-102793750Y21418595D02*
X-102793750Y22218595D01*
X-102717559Y22104309D01*
X-102641369Y22028119D01*
X-102565178Y21990023D01*
X-82753273Y21418595D02*
X-82753273Y22218595D01*
X-82943750Y22218595D01*
X-83058035Y22180500D01*
X-83134226Y22104309D01*
X-83172321Y22028119D01*
X-83210416Y21875738D01*
X-83210416Y21761452D01*
X-83172321Y21609071D01*
X-83134226Y21532880D01*
X-83058035Y21456690D01*
X-82943750Y21418595D01*
X-82753273Y21418595D01*
X-83515178Y22142404D02*
X-83553273Y22180500D01*
X-83629464Y22218595D01*
X-83819940Y22218595D01*
X-83896130Y22180500D01*
X-83934226Y22142404D01*
X-83972321Y22066214D01*
X-83972321Y21990023D01*
X-83934226Y21875738D01*
X-83477083Y21418595D01*
X-83972321Y21418595D01*
X-63703273Y21418595D02*
X-63703273Y22218595D01*
X-63893750Y22218595D01*
X-64008035Y22180500D01*
X-64084226Y22104309D01*
X-64122321Y22028119D01*
X-64160416Y21875738D01*
X-64160416Y21761452D01*
X-64122321Y21609071D01*
X-64084226Y21532880D01*
X-64008035Y21456690D01*
X-63893750Y21418595D01*
X-63703273Y21418595D01*
X-64427083Y22218595D02*
X-64922321Y22218595D01*
X-64655654Y21913833D01*
X-64769940Y21913833D01*
X-64846130Y21875738D01*
X-64884226Y21837642D01*
X-64922321Y21761452D01*
X-64922321Y21570976D01*
X-64884226Y21494785D01*
X-64846130Y21456690D01*
X-64769940Y21418595D01*
X-64541369Y21418595D01*
X-64465178Y21456690D01*
X-64427083Y21494785D01*
X-44653273Y21418595D02*
X-44653273Y22218595D01*
X-44843750Y22218595D01*
X-44958035Y22180500D01*
X-45034226Y22104309D01*
X-45072321Y22028119D01*
X-45110416Y21875738D01*
X-45110416Y21761452D01*
X-45072321Y21609071D01*
X-45034226Y21532880D01*
X-44958035Y21456690D01*
X-44843750Y21418595D01*
X-44653273Y21418595D01*
X-45796130Y21951928D02*
X-45796130Y21418595D01*
X-45605654Y22256690D02*
X-45415178Y21685261D01*
X-45910416Y21685261D01*
X-25603273Y21418595D02*
X-25603273Y22218595D01*
X-25793750Y22218595D01*
X-25908035Y22180500D01*
X-25984226Y22104309D01*
X-26022321Y22028119D01*
X-26060416Y21875738D01*
X-26060416Y21761452D01*
X-26022321Y21609071D01*
X-25984226Y21532880D01*
X-25908035Y21456690D01*
X-25793750Y21418595D01*
X-25603273Y21418595D01*
X-26784226Y22218595D02*
X-26403273Y22218595D01*
X-26365178Y21837642D01*
X-26403273Y21875738D01*
X-26479464Y21913833D01*
X-26669940Y21913833D01*
X-26746130Y21875738D01*
X-26784226Y21837642D01*
X-26822321Y21761452D01*
X-26822321Y21570976D01*
X-26784226Y21494785D01*
X-26746130Y21456690D01*
X-26669940Y21418595D01*
X-26479464Y21418595D01*
X-26403273Y21456690D01*
X-26365178Y21494785D01*
X-6553273Y21418595D02*
X-6553273Y22218595D01*
X-6743750Y22218595D01*
X-6858035Y22180500D01*
X-6934226Y22104309D01*
X-6972321Y22028119D01*
X-7010416Y21875738D01*
X-7010416Y21761452D01*
X-6972321Y21609071D01*
X-6934226Y21532880D01*
X-6858035Y21456690D01*
X-6743750Y21418595D01*
X-6553273Y21418595D01*
X-7696130Y22218595D02*
X-7543750Y22218595D01*
X-7467559Y22180500D01*
X-7429464Y22142404D01*
X-7353273Y22028119D01*
X-7315178Y21875738D01*
X-7315178Y21570976D01*
X-7353273Y21494785D01*
X-7391369Y21456690D01*
X-7467559Y21418595D01*
X-7619940Y21418595D01*
X-7696130Y21456690D01*
X-7734226Y21494785D01*
X-7772321Y21570976D01*
X-7772321Y21761452D01*
X-7734226Y21837642D01*
X-7696130Y21875738D01*
X-7619940Y21913833D01*
X-7467559Y21913833D01*
X-7391369Y21875738D01*
X-7353273Y21837642D01*
X-7315178Y21761452D01*
X12496726Y21418595D02*
X12496726Y22218595D01*
X12306250Y22218595D01*
X12191964Y22180500D01*
X12115773Y22104309D01*
X12077678Y22028119D01*
X12039583Y21875738D01*
X12039583Y21761452D01*
X12077678Y21609071D01*
X12115773Y21532880D01*
X12191964Y21456690D01*
X12306250Y21418595D01*
X12496726Y21418595D01*
X11772916Y22218595D02*
X11239583Y22218595D01*
X11582440Y21418595D01*
X31546726Y21418595D02*
X31546726Y22218595D01*
X31356250Y22218595D01*
X31241964Y22180500D01*
X31165773Y22104309D01*
X31127678Y22028119D01*
X31089583Y21875738D01*
X31089583Y21761452D01*
X31127678Y21609071D01*
X31165773Y21532880D01*
X31241964Y21456690D01*
X31356250Y21418595D01*
X31546726Y21418595D01*
X30632440Y21875738D02*
X30708630Y21913833D01*
X30746726Y21951928D01*
X30784821Y22028119D01*
X30784821Y22066214D01*
X30746726Y22142404D01*
X30708630Y22180500D01*
X30632440Y22218595D01*
X30480059Y22218595D01*
X30403869Y22180500D01*
X30365773Y22142404D01*
X30327678Y22066214D01*
X30327678Y22028119D01*
X30365773Y21951928D01*
X30403869Y21913833D01*
X30480059Y21875738D01*
X30632440Y21875738D01*
X30708630Y21837642D01*
X30746726Y21799547D01*
X30784821Y21723357D01*
X30784821Y21570976D01*
X30746726Y21494785D01*
X30708630Y21456690D01*
X30632440Y21418595D01*
X30480059Y21418595D01*
X30403869Y21456690D01*
X30365773Y21494785D01*
X30327678Y21570976D01*
X30327678Y21723357D01*
X30365773Y21799547D01*
X30403869Y21837642D01*
X30480059Y21875738D01*
X50596726Y21418595D02*
X50596726Y22218595D01*
X50406250Y22218595D01*
X50291964Y22180500D01*
X50215773Y22104309D01*
X50177678Y22028119D01*
X50139583Y21875738D01*
X50139583Y21761452D01*
X50177678Y21609071D01*
X50215773Y21532880D01*
X50291964Y21456690D01*
X50406250Y21418595D01*
X50596726Y21418595D01*
X49758630Y21418595D02*
X49606250Y21418595D01*
X49530059Y21456690D01*
X49491964Y21494785D01*
X49415773Y21609071D01*
X49377678Y21761452D01*
X49377678Y22066214D01*
X49415773Y22142404D01*
X49453869Y22180500D01*
X49530059Y22218595D01*
X49682440Y22218595D01*
X49758630Y22180500D01*
X49796726Y22142404D01*
X49834821Y22066214D01*
X49834821Y21875738D01*
X49796726Y21799547D01*
X49758630Y21761452D01*
X49682440Y21723357D01*
X49530059Y21723357D01*
X49453869Y21761452D01*
X49415773Y21799547D01*
X49377678Y21875738D01*
X70027678Y21418595D02*
X70027678Y22218595D01*
X69837202Y22218595D01*
X69722916Y22180500D01*
X69646726Y22104309D01*
X69608630Y22028119D01*
X69570535Y21875738D01*
X69570535Y21761452D01*
X69608630Y21609071D01*
X69646726Y21532880D01*
X69722916Y21456690D01*
X69837202Y21418595D01*
X70027678Y21418595D01*
X68808630Y21418595D02*
X69265773Y21418595D01*
X69037202Y21418595D02*
X69037202Y22218595D01*
X69113392Y22104309D01*
X69189583Y22028119D01*
X69265773Y21990023D01*
X68313392Y22218595D02*
X68237202Y22218595D01*
X68161011Y22180500D01*
X68122916Y22142404D01*
X68084821Y22066214D01*
X68046726Y21913833D01*
X68046726Y21723357D01*
X68084821Y21570976D01*
X68122916Y21494785D01*
X68161011Y21456690D01*
X68237202Y21418595D01*
X68313392Y21418595D01*
X68389583Y21456690D01*
X68427678Y21494785D01*
X68465773Y21570976D01*
X68503869Y21723357D01*
X68503869Y21913833D01*
X68465773Y22066214D01*
X68427678Y22142404D01*
X68389583Y22180500D01*
X68313392Y22218595D01*
X89077678Y21418595D02*
X89077678Y22218595D01*
X88887202Y22218595D01*
X88772916Y22180500D01*
X88696726Y22104309D01*
X88658630Y22028119D01*
X88620535Y21875738D01*
X88620535Y21761452D01*
X88658630Y21609071D01*
X88696726Y21532880D01*
X88772916Y21456690D01*
X88887202Y21418595D01*
X89077678Y21418595D01*
X87858630Y21418595D02*
X88315773Y21418595D01*
X88087202Y21418595D02*
X88087202Y22218595D01*
X88163392Y22104309D01*
X88239583Y22028119D01*
X88315773Y21990023D01*
X87096726Y21418595D02*
X87553869Y21418595D01*
X87325297Y21418595D02*
X87325297Y22218595D01*
X87401488Y22104309D01*
X87477678Y22028119D01*
X87553869Y21990023D01*
X108127678Y21418595D02*
X108127678Y22218595D01*
X107937202Y22218595D01*
X107822916Y22180500D01*
X107746726Y22104309D01*
X107708630Y22028119D01*
X107670535Y21875738D01*
X107670535Y21761452D01*
X107708630Y21609071D01*
X107746726Y21532880D01*
X107822916Y21456690D01*
X107937202Y21418595D01*
X108127678Y21418595D01*
X106908630Y21418595D02*
X107365773Y21418595D01*
X107137202Y21418595D02*
X107137202Y22218595D01*
X107213392Y22104309D01*
X107289583Y22028119D01*
X107365773Y21990023D01*
X106603869Y22142404D02*
X106565773Y22180500D01*
X106489583Y22218595D01*
X106299107Y22218595D01*
X106222916Y22180500D01*
X106184821Y22142404D01*
X106146726Y22066214D01*
X106146726Y21990023D01*
X106184821Y21875738D01*
X106641964Y21418595D01*
X106146726Y21418595D01*
X127177678Y21418595D02*
X127177678Y22218595D01*
X126987202Y22218595D01*
X126872916Y22180500D01*
X126796726Y22104309D01*
X126758630Y22028119D01*
X126720535Y21875738D01*
X126720535Y21761452D01*
X126758630Y21609071D01*
X126796726Y21532880D01*
X126872916Y21456690D01*
X126987202Y21418595D01*
X127177678Y21418595D01*
X125958630Y21418595D02*
X126415773Y21418595D01*
X126187202Y21418595D02*
X126187202Y22218595D01*
X126263392Y22104309D01*
X126339583Y22028119D01*
X126415773Y21990023D01*
X125691964Y22218595D02*
X125196726Y22218595D01*
X125463392Y21913833D01*
X125349107Y21913833D01*
X125272916Y21875738D01*
X125234821Y21837642D01*
X125196726Y21761452D01*
X125196726Y21570976D01*
X125234821Y21494785D01*
X125272916Y21456690D01*
X125349107Y21418595D01*
X125577678Y21418595D01*
X125653869Y21456690D01*
X125691964Y21494785D01*
X155752678Y21418595D02*
X155752678Y22218595D01*
X155562202Y22218595D01*
X155447916Y22180500D01*
X155371726Y22104309D01*
X155333630Y22028119D01*
X155295535Y21875738D01*
X155295535Y21761452D01*
X155333630Y21609071D01*
X155371726Y21532880D01*
X155447916Y21456690D01*
X155562202Y21418595D01*
X155752678Y21418595D01*
X154533630Y21418595D02*
X154990773Y21418595D01*
X154762202Y21418595D02*
X154762202Y22218595D01*
X154838392Y22104309D01*
X154914583Y22028119D01*
X154990773Y21990023D01*
X153847916Y21951928D02*
X153847916Y21418595D01*
X154038392Y22256690D02*
X154228869Y21685261D01*
X153733630Y21685261D01*
X-96659821Y2368595D02*
X-96659821Y3168595D01*
X-96850297Y3168595D01*
X-96964583Y3130500D01*
X-97040773Y3054309D01*
X-97078869Y2978119D01*
X-97116964Y2825738D01*
X-97116964Y2711452D01*
X-97078869Y2559071D01*
X-97040773Y2482880D01*
X-96964583Y2406690D01*
X-96850297Y2368595D01*
X-96659821Y2368595D01*
X-97878869Y2368595D02*
X-97421726Y2368595D01*
X-97650297Y2368595D02*
X-97650297Y3168595D01*
X-97574107Y3054309D01*
X-97497916Y2978119D01*
X-97421726Y2940023D01*
X-98602678Y3168595D02*
X-98221726Y3168595D01*
X-98183630Y2787642D01*
X-98221726Y2825738D01*
X-98297916Y2863833D01*
X-98488392Y2863833D01*
X-98564583Y2825738D01*
X-98602678Y2787642D01*
X-98640773Y2711452D01*
X-98640773Y2520976D01*
X-98602678Y2444785D01*
X-98564583Y2406690D01*
X-98488392Y2368595D01*
X-98297916Y2368595D01*
X-98221726Y2406690D01*
X-98183630Y2444785D01*
X-72847321Y2368595D02*
X-72847321Y3168595D01*
X-73037797Y3168595D01*
X-73152083Y3130500D01*
X-73228273Y3054309D01*
X-73266369Y2978119D01*
X-73304464Y2825738D01*
X-73304464Y2711452D01*
X-73266369Y2559071D01*
X-73228273Y2482880D01*
X-73152083Y2406690D01*
X-73037797Y2368595D01*
X-72847321Y2368595D01*
X-74066369Y2368595D02*
X-73609226Y2368595D01*
X-73837797Y2368595D02*
X-73837797Y3168595D01*
X-73761607Y3054309D01*
X-73685416Y2978119D01*
X-73609226Y2940023D01*
X-74752083Y3168595D02*
X-74599702Y3168595D01*
X-74523511Y3130500D01*
X-74485416Y3092404D01*
X-74409226Y2978119D01*
X-74371130Y2825738D01*
X-74371130Y2520976D01*
X-74409226Y2444785D01*
X-74447321Y2406690D01*
X-74523511Y2368595D01*
X-74675892Y2368595D01*
X-74752083Y2406690D01*
X-74790178Y2444785D01*
X-74828273Y2520976D01*
X-74828273Y2711452D01*
X-74790178Y2787642D01*
X-74752083Y2825738D01*
X-74675892Y2863833D01*
X-74523511Y2863833D01*
X-74447321Y2825738D01*
X-74409226Y2787642D01*
X-74371130Y2711452D01*
X-53797321Y2368595D02*
X-53797321Y3168595D01*
X-53987797Y3168595D01*
X-54102083Y3130500D01*
X-54178273Y3054309D01*
X-54216369Y2978119D01*
X-54254464Y2825738D01*
X-54254464Y2711452D01*
X-54216369Y2559071D01*
X-54178273Y2482880D01*
X-54102083Y2406690D01*
X-53987797Y2368595D01*
X-53797321Y2368595D01*
X-55016369Y2368595D02*
X-54559226Y2368595D01*
X-54787797Y2368595D02*
X-54787797Y3168595D01*
X-54711607Y3054309D01*
X-54635416Y2978119D01*
X-54559226Y2940023D01*
X-55283035Y3168595D02*
X-55816369Y3168595D01*
X-55473511Y2368595D01*
X-34747321Y2368595D02*
X-34747321Y3168595D01*
X-34937797Y3168595D01*
X-35052083Y3130500D01*
X-35128273Y3054309D01*
X-35166369Y2978119D01*
X-35204464Y2825738D01*
X-35204464Y2711452D01*
X-35166369Y2559071D01*
X-35128273Y2482880D01*
X-35052083Y2406690D01*
X-34937797Y2368595D01*
X-34747321Y2368595D01*
X-35966369Y2368595D02*
X-35509226Y2368595D01*
X-35737797Y2368595D02*
X-35737797Y3168595D01*
X-35661607Y3054309D01*
X-35585416Y2978119D01*
X-35509226Y2940023D01*
X-36423511Y2825738D02*
X-36347321Y2863833D01*
X-36309226Y2901928D01*
X-36271130Y2978119D01*
X-36271130Y3016214D01*
X-36309226Y3092404D01*
X-36347321Y3130500D01*
X-36423511Y3168595D01*
X-36575892Y3168595D01*
X-36652083Y3130500D01*
X-36690178Y3092404D01*
X-36728273Y3016214D01*
X-36728273Y2978119D01*
X-36690178Y2901928D01*
X-36652083Y2863833D01*
X-36575892Y2825738D01*
X-36423511Y2825738D01*
X-36347321Y2787642D01*
X-36309226Y2749547D01*
X-36271130Y2673357D01*
X-36271130Y2520976D01*
X-36309226Y2444785D01*
X-36347321Y2406690D01*
X-36423511Y2368595D01*
X-36575892Y2368595D01*
X-36652083Y2406690D01*
X-36690178Y2444785D01*
X-36728273Y2520976D01*
X-36728273Y2673357D01*
X-36690178Y2749547D01*
X-36652083Y2787642D01*
X-36575892Y2825738D01*
X-15697321Y2368595D02*
X-15697321Y3168595D01*
X-15887797Y3168595D01*
X-16002083Y3130500D01*
X-16078273Y3054309D01*
X-16116369Y2978119D01*
X-16154464Y2825738D01*
X-16154464Y2711452D01*
X-16116369Y2559071D01*
X-16078273Y2482880D01*
X-16002083Y2406690D01*
X-15887797Y2368595D01*
X-15697321Y2368595D01*
X-16916369Y2368595D02*
X-16459226Y2368595D01*
X-16687797Y2368595D02*
X-16687797Y3168595D01*
X-16611607Y3054309D01*
X-16535416Y2978119D01*
X-16459226Y2940023D01*
X-17297321Y2368595D02*
X-17449702Y2368595D01*
X-17525892Y2406690D01*
X-17563988Y2444785D01*
X-17640178Y2559071D01*
X-17678273Y2711452D01*
X-17678273Y3016214D01*
X-17640178Y3092404D01*
X-17602083Y3130500D01*
X-17525892Y3168595D01*
X-17373511Y3168595D01*
X-17297321Y3130500D01*
X-17259226Y3092404D01*
X-17221130Y3016214D01*
X-17221130Y2825738D01*
X-17259226Y2749547D01*
X-17297321Y2711452D01*
X-17373511Y2673357D01*
X-17525892Y2673357D01*
X-17602083Y2711452D01*
X-17640178Y2749547D01*
X-17678273Y2825738D01*
X3352678Y2368595D02*
X3352678Y3168595D01*
X3162202Y3168595D01*
X3047916Y3130500D01*
X2971726Y3054309D01*
X2933630Y2978119D01*
X2895535Y2825738D01*
X2895535Y2711452D01*
X2933630Y2559071D01*
X2971726Y2482880D01*
X3047916Y2406690D01*
X3162202Y2368595D01*
X3352678Y2368595D01*
X2590773Y3092404D02*
X2552678Y3130500D01*
X2476488Y3168595D01*
X2286011Y3168595D01*
X2209821Y3130500D01*
X2171726Y3092404D01*
X2133630Y3016214D01*
X2133630Y2940023D01*
X2171726Y2825738D01*
X2628869Y2368595D01*
X2133630Y2368595D01*
X1638392Y3168595D02*
X1562202Y3168595D01*
X1486011Y3130500D01*
X1447916Y3092404D01*
X1409821Y3016214D01*
X1371726Y2863833D01*
X1371726Y2673357D01*
X1409821Y2520976D01*
X1447916Y2444785D01*
X1486011Y2406690D01*
X1562202Y2368595D01*
X1638392Y2368595D01*
X1714583Y2406690D01*
X1752678Y2444785D01*
X1790773Y2520976D01*
X1828869Y2673357D01*
X1828869Y2863833D01*
X1790773Y3016214D01*
X1752678Y3092404D01*
X1714583Y3130500D01*
X1638392Y3168595D01*
X22402678Y2368595D02*
X22402678Y3168595D01*
X22212202Y3168595D01*
X22097916Y3130500D01*
X22021726Y3054309D01*
X21983630Y2978119D01*
X21945535Y2825738D01*
X21945535Y2711452D01*
X21983630Y2559071D01*
X22021726Y2482880D01*
X22097916Y2406690D01*
X22212202Y2368595D01*
X22402678Y2368595D01*
X21640773Y3092404D02*
X21602678Y3130500D01*
X21526488Y3168595D01*
X21336011Y3168595D01*
X21259821Y3130500D01*
X21221726Y3092404D01*
X21183630Y3016214D01*
X21183630Y2940023D01*
X21221726Y2825738D01*
X21678869Y2368595D01*
X21183630Y2368595D01*
X20421726Y2368595D02*
X20878869Y2368595D01*
X20650297Y2368595D02*
X20650297Y3168595D01*
X20726488Y3054309D01*
X20802678Y2978119D01*
X20878869Y2940023D01*
X41452678Y2368595D02*
X41452678Y3168595D01*
X41262202Y3168595D01*
X41147916Y3130500D01*
X41071726Y3054309D01*
X41033630Y2978119D01*
X40995535Y2825738D01*
X40995535Y2711452D01*
X41033630Y2559071D01*
X41071726Y2482880D01*
X41147916Y2406690D01*
X41262202Y2368595D01*
X41452678Y2368595D01*
X40690773Y3092404D02*
X40652678Y3130500D01*
X40576488Y3168595D01*
X40386011Y3168595D01*
X40309821Y3130500D01*
X40271726Y3092404D01*
X40233630Y3016214D01*
X40233630Y2940023D01*
X40271726Y2825738D01*
X40728869Y2368595D01*
X40233630Y2368595D01*
X39928869Y3092404D02*
X39890773Y3130500D01*
X39814583Y3168595D01*
X39624107Y3168595D01*
X39547916Y3130500D01*
X39509821Y3092404D01*
X39471726Y3016214D01*
X39471726Y2940023D01*
X39509821Y2825738D01*
X39966964Y2368595D01*
X39471726Y2368595D01*
X60502678Y2368595D02*
X60502678Y3168595D01*
X60312202Y3168595D01*
X60197916Y3130500D01*
X60121726Y3054309D01*
X60083630Y2978119D01*
X60045535Y2825738D01*
X60045535Y2711452D01*
X60083630Y2559071D01*
X60121726Y2482880D01*
X60197916Y2406690D01*
X60312202Y2368595D01*
X60502678Y2368595D01*
X59740773Y3092404D02*
X59702678Y3130500D01*
X59626488Y3168595D01*
X59436011Y3168595D01*
X59359821Y3130500D01*
X59321726Y3092404D01*
X59283630Y3016214D01*
X59283630Y2940023D01*
X59321726Y2825738D01*
X59778869Y2368595D01*
X59283630Y2368595D01*
X59016964Y3168595D02*
X58521726Y3168595D01*
X58788392Y2863833D01*
X58674107Y2863833D01*
X58597916Y2825738D01*
X58559821Y2787642D01*
X58521726Y2711452D01*
X58521726Y2520976D01*
X58559821Y2444785D01*
X58597916Y2406690D01*
X58674107Y2368595D01*
X58902678Y2368595D01*
X58978869Y2406690D01*
X59016964Y2444785D01*
X79552678Y2368595D02*
X79552678Y3168595D01*
X79362202Y3168595D01*
X79247916Y3130500D01*
X79171726Y3054309D01*
X79133630Y2978119D01*
X79095535Y2825738D01*
X79095535Y2711452D01*
X79133630Y2559071D01*
X79171726Y2482880D01*
X79247916Y2406690D01*
X79362202Y2368595D01*
X79552678Y2368595D01*
X78790773Y3092404D02*
X78752678Y3130500D01*
X78676488Y3168595D01*
X78486011Y3168595D01*
X78409821Y3130500D01*
X78371726Y3092404D01*
X78333630Y3016214D01*
X78333630Y2940023D01*
X78371726Y2825738D01*
X78828869Y2368595D01*
X78333630Y2368595D01*
X77647916Y2901928D02*
X77647916Y2368595D01*
X77838392Y3206690D02*
X78028869Y2635261D01*
X77533630Y2635261D01*
X98602678Y2368595D02*
X98602678Y3168595D01*
X98412202Y3168595D01*
X98297916Y3130500D01*
X98221726Y3054309D01*
X98183630Y2978119D01*
X98145535Y2825738D01*
X98145535Y2711452D01*
X98183630Y2559071D01*
X98221726Y2482880D01*
X98297916Y2406690D01*
X98412202Y2368595D01*
X98602678Y2368595D01*
X97840773Y3092404D02*
X97802678Y3130500D01*
X97726488Y3168595D01*
X97536011Y3168595D01*
X97459821Y3130500D01*
X97421726Y3092404D01*
X97383630Y3016214D01*
X97383630Y2940023D01*
X97421726Y2825738D01*
X97878869Y2368595D01*
X97383630Y2368595D01*
X96659821Y3168595D02*
X97040773Y3168595D01*
X97078869Y2787642D01*
X97040773Y2825738D01*
X96964583Y2863833D01*
X96774107Y2863833D01*
X96697916Y2825738D01*
X96659821Y2787642D01*
X96621726Y2711452D01*
X96621726Y2520976D01*
X96659821Y2444785D01*
X96697916Y2406690D01*
X96774107Y2368595D01*
X96964583Y2368595D01*
X97040773Y2406690D01*
X97078869Y2444785D01*
X117652678Y2368595D02*
X117652678Y3168595D01*
X117462202Y3168595D01*
X117347916Y3130500D01*
X117271726Y3054309D01*
X117233630Y2978119D01*
X117195535Y2825738D01*
X117195535Y2711452D01*
X117233630Y2559071D01*
X117271726Y2482880D01*
X117347916Y2406690D01*
X117462202Y2368595D01*
X117652678Y2368595D01*
X116890773Y3092404D02*
X116852678Y3130500D01*
X116776488Y3168595D01*
X116586011Y3168595D01*
X116509821Y3130500D01*
X116471726Y3092404D01*
X116433630Y3016214D01*
X116433630Y2940023D01*
X116471726Y2825738D01*
X116928869Y2368595D01*
X116433630Y2368595D01*
X115747916Y3168595D02*
X115900297Y3168595D01*
X115976488Y3130500D01*
X116014583Y3092404D01*
X116090773Y2978119D01*
X116128869Y2825738D01*
X116128869Y2520976D01*
X116090773Y2444785D01*
X116052678Y2406690D01*
X115976488Y2368595D01*
X115824107Y2368595D01*
X115747916Y2406690D01*
X115709821Y2444785D01*
X115671726Y2520976D01*
X115671726Y2711452D01*
X115709821Y2787642D01*
X115747916Y2825738D01*
X115824107Y2863833D01*
X115976488Y2863833D01*
X116052678Y2825738D01*
X116090773Y2787642D01*
X116128869Y2711452D01*
X132151004Y2368591D02*
X132151004Y3168591D01*
X131960528Y3168591D01*
X131846242Y3130496D01*
X131770052Y3054305D01*
X131731956Y2978115D01*
X131693861Y2825734D01*
X131693861Y2711448D01*
X131731956Y2559067D01*
X131770052Y2482876D01*
X131846242Y2406686D01*
X131960528Y2368591D01*
X132151004Y2368591D01*
X131389099Y3092400D02*
X131351004Y3130496D01*
X131274814Y3168591D01*
X131084337Y3168591D01*
X131008147Y3130496D01*
X130970052Y3092400D01*
X130931956Y3016210D01*
X130931956Y2940019D01*
X130970052Y2825734D01*
X131427195Y2368591D01*
X130931956Y2368591D01*
X130665290Y3168591D02*
X130131956Y3168591D01*
X130474814Y2368591D01*
X130154132Y-16681392D02*
X130154132Y-15881392D01*
X129963656Y-15881392D01*
X129849370Y-15919488D01*
X129773180Y-15995678D01*
X129735084Y-16071868D01*
X129696989Y-16224249D01*
X129696989Y-16338535D01*
X129735084Y-16490916D01*
X129773180Y-16567107D01*
X129849370Y-16643297D01*
X129963656Y-16681392D01*
X130154132Y-16681392D01*
X129392227Y-15957583D02*
X129354132Y-15919488D01*
X129277942Y-15881392D01*
X129087465Y-15881392D01*
X129011275Y-15919488D01*
X128973180Y-15957583D01*
X128935084Y-16033773D01*
X128935084Y-16109964D01*
X128973180Y-16224249D01*
X129430323Y-16681392D01*
X128935084Y-16681392D01*
X128477942Y-16224249D02*
X128554132Y-16186154D01*
X128592227Y-16148059D01*
X128630323Y-16071868D01*
X128630323Y-16033773D01*
X128592227Y-15957583D01*
X128554132Y-15919488D01*
X128477942Y-15881392D01*
X128325561Y-15881392D01*
X128249370Y-15919488D01*
X128211275Y-15957583D01*
X128173180Y-16033773D01*
X128173180Y-16071868D01*
X128211275Y-16148059D01*
X128249370Y-16186154D01*
X128325561Y-16224249D01*
X128477942Y-16224249D01*
X128554132Y-16262345D01*
X128592227Y-16300440D01*
X128630323Y-16376630D01*
X128630323Y-16529011D01*
X128592227Y-16605202D01*
X128554132Y-16643297D01*
X128477942Y-16681392D01*
X128325561Y-16681392D01*
X128249370Y-16643297D01*
X128211275Y-16605202D01*
X128173180Y-16529011D01*
X128173180Y-16376630D01*
X128211275Y-16300440D01*
X128249370Y-16262345D01*
X128325561Y-16224249D01*
X-94278571Y-16681404D02*
X-94278571Y-15881404D01*
X-94469047Y-15881404D01*
X-94583333Y-15919500D01*
X-94659523Y-15995690D01*
X-94697619Y-16071880D01*
X-94735714Y-16224261D01*
X-94735714Y-16338547D01*
X-94697619Y-16490928D01*
X-94659523Y-16567119D01*
X-94583333Y-16643309D01*
X-94469047Y-16681404D01*
X-94278571Y-16681404D01*
X-95040476Y-15957595D02*
X-95078571Y-15919500D01*
X-95154761Y-15881404D01*
X-95345238Y-15881404D01*
X-95421428Y-15919500D01*
X-95459523Y-15957595D01*
X-95497619Y-16033785D01*
X-95497619Y-16109976D01*
X-95459523Y-16224261D01*
X-95002380Y-16681404D01*
X-95497619Y-16681404D01*
X-95878571Y-16681404D02*
X-96030952Y-16681404D01*
X-96107142Y-16643309D01*
X-96145238Y-16605214D01*
X-96221428Y-16490928D01*
X-96259523Y-16338547D01*
X-96259523Y-16033785D01*
X-96221428Y-15957595D01*
X-96183333Y-15919500D01*
X-96107142Y-15881404D01*
X-95954761Y-15881404D01*
X-95878571Y-15919500D01*
X-95840476Y-15957595D01*
X-95802380Y-16033785D01*
X-95802380Y-16224261D01*
X-95840476Y-16300452D01*
X-95878571Y-16338547D01*
X-95954761Y-16376642D01*
X-96107142Y-16376642D01*
X-96183333Y-16338547D01*
X-96221428Y-16300452D01*
X-96259523Y-16224261D01*
X-68084821Y-16681404D02*
X-68084821Y-15881404D01*
X-68275297Y-15881404D01*
X-68389583Y-15919500D01*
X-68465773Y-15995690D01*
X-68503869Y-16071880D01*
X-68541964Y-16224261D01*
X-68541964Y-16338547D01*
X-68503869Y-16490928D01*
X-68465773Y-16567119D01*
X-68389583Y-16643309D01*
X-68275297Y-16681404D01*
X-68084821Y-16681404D01*
X-68808630Y-15881404D02*
X-69303869Y-15881404D01*
X-69037202Y-16186166D01*
X-69151488Y-16186166D01*
X-69227678Y-16224261D01*
X-69265773Y-16262357D01*
X-69303869Y-16338547D01*
X-69303869Y-16529023D01*
X-69265773Y-16605214D01*
X-69227678Y-16643309D01*
X-69151488Y-16681404D01*
X-68922916Y-16681404D01*
X-68846726Y-16643309D01*
X-68808630Y-16605214D01*
X-69799107Y-15881404D02*
X-69875297Y-15881404D01*
X-69951488Y-15919500D01*
X-69989583Y-15957595D01*
X-70027678Y-16033785D01*
X-70065773Y-16186166D01*
X-70065773Y-16376642D01*
X-70027678Y-16529023D01*
X-69989583Y-16605214D01*
X-69951488Y-16643309D01*
X-69875297Y-16681404D01*
X-69799107Y-16681404D01*
X-69722916Y-16643309D01*
X-69684821Y-16605214D01*
X-69646726Y-16529023D01*
X-69608630Y-16376642D01*
X-69608630Y-16186166D01*
X-69646726Y-16033785D01*
X-69684821Y-15957595D01*
X-69722916Y-15919500D01*
X-69799107Y-15881404D01*
X-49034821Y-16681404D02*
X-49034821Y-15881404D01*
X-49225297Y-15881404D01*
X-49339583Y-15919500D01*
X-49415773Y-15995690D01*
X-49453869Y-16071880D01*
X-49491964Y-16224261D01*
X-49491964Y-16338547D01*
X-49453869Y-16490928D01*
X-49415773Y-16567119D01*
X-49339583Y-16643309D01*
X-49225297Y-16681404D01*
X-49034821Y-16681404D01*
X-49758630Y-15881404D02*
X-50253869Y-15881404D01*
X-49987202Y-16186166D01*
X-50101488Y-16186166D01*
X-50177678Y-16224261D01*
X-50215773Y-16262357D01*
X-50253869Y-16338547D01*
X-50253869Y-16529023D01*
X-50215773Y-16605214D01*
X-50177678Y-16643309D01*
X-50101488Y-16681404D01*
X-49872916Y-16681404D01*
X-49796726Y-16643309D01*
X-49758630Y-16605214D01*
X-51015773Y-16681404D02*
X-50558630Y-16681404D01*
X-50787202Y-16681404D02*
X-50787202Y-15881404D01*
X-50711011Y-15995690D01*
X-50634821Y-16071880D01*
X-50558630Y-16109976D01*
X-29984821Y-16681404D02*
X-29984821Y-15881404D01*
X-30175297Y-15881404D01*
X-30289583Y-15919500D01*
X-30365773Y-15995690D01*
X-30403869Y-16071880D01*
X-30441964Y-16224261D01*
X-30441964Y-16338547D01*
X-30403869Y-16490928D01*
X-30365773Y-16567119D01*
X-30289583Y-16643309D01*
X-30175297Y-16681404D01*
X-29984821Y-16681404D01*
X-30708630Y-15881404D02*
X-31203869Y-15881404D01*
X-30937202Y-16186166D01*
X-31051488Y-16186166D01*
X-31127678Y-16224261D01*
X-31165773Y-16262357D01*
X-31203869Y-16338547D01*
X-31203869Y-16529023D01*
X-31165773Y-16605214D01*
X-31127678Y-16643309D01*
X-31051488Y-16681404D01*
X-30822916Y-16681404D01*
X-30746726Y-16643309D01*
X-30708630Y-16605214D01*
X-31508630Y-15957595D02*
X-31546726Y-15919500D01*
X-31622916Y-15881404D01*
X-31813392Y-15881404D01*
X-31889583Y-15919500D01*
X-31927678Y-15957595D01*
X-31965773Y-16033785D01*
X-31965773Y-16109976D01*
X-31927678Y-16224261D01*
X-31470535Y-16681404D01*
X-31965773Y-16681404D01*
X-10934821Y-16681404D02*
X-10934821Y-15881404D01*
X-11125297Y-15881404D01*
X-11239583Y-15919500D01*
X-11315773Y-15995690D01*
X-11353869Y-16071880D01*
X-11391964Y-16224261D01*
X-11391964Y-16338547D01*
X-11353869Y-16490928D01*
X-11315773Y-16567119D01*
X-11239583Y-16643309D01*
X-11125297Y-16681404D01*
X-10934821Y-16681404D01*
X-11658630Y-15881404D02*
X-12153869Y-15881404D01*
X-11887202Y-16186166D01*
X-12001488Y-16186166D01*
X-12077678Y-16224261D01*
X-12115773Y-16262357D01*
X-12153869Y-16338547D01*
X-12153869Y-16529023D01*
X-12115773Y-16605214D01*
X-12077678Y-16643309D01*
X-12001488Y-16681404D01*
X-11772916Y-16681404D01*
X-11696726Y-16643309D01*
X-11658630Y-16605214D01*
X-12420535Y-15881404D02*
X-12915773Y-15881404D01*
X-12649107Y-16186166D01*
X-12763392Y-16186166D01*
X-12839583Y-16224261D01*
X-12877678Y-16262357D01*
X-12915773Y-16338547D01*
X-12915773Y-16529023D01*
X-12877678Y-16605214D01*
X-12839583Y-16643309D01*
X-12763392Y-16681404D01*
X-12534821Y-16681404D01*
X-12458630Y-16643309D01*
X-12420535Y-16605214D01*
X8115178Y-16681404D02*
X8115178Y-15881404D01*
X7924702Y-15881404D01*
X7810416Y-15919500D01*
X7734226Y-15995690D01*
X7696130Y-16071880D01*
X7658035Y-16224261D01*
X7658035Y-16338547D01*
X7696130Y-16490928D01*
X7734226Y-16567119D01*
X7810416Y-16643309D01*
X7924702Y-16681404D01*
X8115178Y-16681404D01*
X7391369Y-15881404D02*
X6896130Y-15881404D01*
X7162797Y-16186166D01*
X7048511Y-16186166D01*
X6972321Y-16224261D01*
X6934226Y-16262357D01*
X6896130Y-16338547D01*
X6896130Y-16529023D01*
X6934226Y-16605214D01*
X6972321Y-16643309D01*
X7048511Y-16681404D01*
X7277083Y-16681404D01*
X7353273Y-16643309D01*
X7391369Y-16605214D01*
X6210416Y-16148071D02*
X6210416Y-16681404D01*
X6400892Y-15843309D02*
X6591369Y-16414738D01*
X6096130Y-16414738D01*
X27165178Y-16681404D02*
X27165178Y-15881404D01*
X26974702Y-15881404D01*
X26860416Y-15919500D01*
X26784226Y-15995690D01*
X26746130Y-16071880D01*
X26708035Y-16224261D01*
X26708035Y-16338547D01*
X26746130Y-16490928D01*
X26784226Y-16567119D01*
X26860416Y-16643309D01*
X26974702Y-16681404D01*
X27165178Y-16681404D01*
X26441369Y-15881404D02*
X25946130Y-15881404D01*
X26212797Y-16186166D01*
X26098511Y-16186166D01*
X26022321Y-16224261D01*
X25984226Y-16262357D01*
X25946130Y-16338547D01*
X25946130Y-16529023D01*
X25984226Y-16605214D01*
X26022321Y-16643309D01*
X26098511Y-16681404D01*
X26327083Y-16681404D01*
X26403273Y-16643309D01*
X26441369Y-16605214D01*
X25222321Y-15881404D02*
X25603273Y-15881404D01*
X25641369Y-16262357D01*
X25603273Y-16224261D01*
X25527083Y-16186166D01*
X25336607Y-16186166D01*
X25260416Y-16224261D01*
X25222321Y-16262357D01*
X25184226Y-16338547D01*
X25184226Y-16529023D01*
X25222321Y-16605214D01*
X25260416Y-16643309D01*
X25336607Y-16681404D01*
X25527083Y-16681404D01*
X25603273Y-16643309D01*
X25641369Y-16605214D01*
X46215178Y-16681404D02*
X46215178Y-15881404D01*
X46024702Y-15881404D01*
X45910416Y-15919500D01*
X45834226Y-15995690D01*
X45796130Y-16071880D01*
X45758035Y-16224261D01*
X45758035Y-16338547D01*
X45796130Y-16490928D01*
X45834226Y-16567119D01*
X45910416Y-16643309D01*
X46024702Y-16681404D01*
X46215178Y-16681404D01*
X45491369Y-15881404D02*
X44996130Y-15881404D01*
X45262797Y-16186166D01*
X45148511Y-16186166D01*
X45072321Y-16224261D01*
X45034226Y-16262357D01*
X44996130Y-16338547D01*
X44996130Y-16529023D01*
X45034226Y-16605214D01*
X45072321Y-16643309D01*
X45148511Y-16681404D01*
X45377083Y-16681404D01*
X45453273Y-16643309D01*
X45491369Y-16605214D01*
X44310416Y-15881404D02*
X44462797Y-15881404D01*
X44538988Y-15919500D01*
X44577083Y-15957595D01*
X44653273Y-16071880D01*
X44691369Y-16224261D01*
X44691369Y-16529023D01*
X44653273Y-16605214D01*
X44615178Y-16643309D01*
X44538988Y-16681404D01*
X44386607Y-16681404D01*
X44310416Y-16643309D01*
X44272321Y-16605214D01*
X44234226Y-16529023D01*
X44234226Y-16338547D01*
X44272321Y-16262357D01*
X44310416Y-16224261D01*
X44386607Y-16186166D01*
X44538988Y-16186166D01*
X44615178Y-16224261D01*
X44653273Y-16262357D01*
X44691369Y-16338547D01*
X65265178Y-16681404D02*
X65265178Y-15881404D01*
X65074702Y-15881404D01*
X64960416Y-15919500D01*
X64884226Y-15995690D01*
X64846130Y-16071880D01*
X64808035Y-16224261D01*
X64808035Y-16338547D01*
X64846130Y-16490928D01*
X64884226Y-16567119D01*
X64960416Y-16643309D01*
X65074702Y-16681404D01*
X65265178Y-16681404D01*
X64541369Y-15881404D02*
X64046130Y-15881404D01*
X64312797Y-16186166D01*
X64198511Y-16186166D01*
X64122321Y-16224261D01*
X64084226Y-16262357D01*
X64046130Y-16338547D01*
X64046130Y-16529023D01*
X64084226Y-16605214D01*
X64122321Y-16643309D01*
X64198511Y-16681404D01*
X64427083Y-16681404D01*
X64503273Y-16643309D01*
X64541369Y-16605214D01*
X63779464Y-15881404D02*
X63246130Y-15881404D01*
X63588988Y-16681404D01*
X84315178Y-16681404D02*
X84315178Y-15881404D01*
X84124702Y-15881404D01*
X84010416Y-15919500D01*
X83934226Y-15995690D01*
X83896130Y-16071880D01*
X83858035Y-16224261D01*
X83858035Y-16338547D01*
X83896130Y-16490928D01*
X83934226Y-16567119D01*
X84010416Y-16643309D01*
X84124702Y-16681404D01*
X84315178Y-16681404D01*
X83591369Y-15881404D02*
X83096130Y-15881404D01*
X83362797Y-16186166D01*
X83248511Y-16186166D01*
X83172321Y-16224261D01*
X83134226Y-16262357D01*
X83096130Y-16338547D01*
X83096130Y-16529023D01*
X83134226Y-16605214D01*
X83172321Y-16643309D01*
X83248511Y-16681404D01*
X83477083Y-16681404D01*
X83553273Y-16643309D01*
X83591369Y-16605214D01*
X82638988Y-16224261D02*
X82715178Y-16186166D01*
X82753273Y-16148071D01*
X82791369Y-16071880D01*
X82791369Y-16033785D01*
X82753273Y-15957595D01*
X82715178Y-15919500D01*
X82638988Y-15881404D01*
X82486607Y-15881404D01*
X82410416Y-15919500D01*
X82372321Y-15957595D01*
X82334226Y-16033785D01*
X82334226Y-16071880D01*
X82372321Y-16148071D01*
X82410416Y-16186166D01*
X82486607Y-16224261D01*
X82638988Y-16224261D01*
X82715178Y-16262357D01*
X82753273Y-16300452D01*
X82791369Y-16376642D01*
X82791369Y-16529023D01*
X82753273Y-16605214D01*
X82715178Y-16643309D01*
X82638988Y-16681404D01*
X82486607Y-16681404D01*
X82410416Y-16643309D01*
X82372321Y-16605214D01*
X82334226Y-16529023D01*
X82334226Y-16376642D01*
X82372321Y-16300452D01*
X82410416Y-16262357D01*
X82486607Y-16224261D01*
X103365178Y-16681404D02*
X103365178Y-15881404D01*
X103174702Y-15881404D01*
X103060416Y-15919500D01*
X102984226Y-15995690D01*
X102946130Y-16071880D01*
X102908035Y-16224261D01*
X102908035Y-16338547D01*
X102946130Y-16490928D01*
X102984226Y-16567119D01*
X103060416Y-16643309D01*
X103174702Y-16681404D01*
X103365178Y-16681404D01*
X102641369Y-15881404D02*
X102146130Y-15881404D01*
X102412797Y-16186166D01*
X102298511Y-16186166D01*
X102222321Y-16224261D01*
X102184226Y-16262357D01*
X102146130Y-16338547D01*
X102146130Y-16529023D01*
X102184226Y-16605214D01*
X102222321Y-16643309D01*
X102298511Y-16681404D01*
X102527083Y-16681404D01*
X102603273Y-16643309D01*
X102641369Y-16605214D01*
X101765178Y-16681404D02*
X101612797Y-16681404D01*
X101536607Y-16643309D01*
X101498511Y-16605214D01*
X101422321Y-16490928D01*
X101384226Y-16338547D01*
X101384226Y-16033785D01*
X101422321Y-15957595D01*
X101460416Y-15919500D01*
X101536607Y-15881404D01*
X101688988Y-15881404D01*
X101765178Y-15919500D01*
X101803273Y-15957595D01*
X101841369Y-16033785D01*
X101841369Y-16224261D01*
X101803273Y-16300452D01*
X101765178Y-16338547D01*
X101688988Y-16376642D01*
X101536607Y-16376642D01*
X101460416Y-16338547D01*
X101422321Y-16300452D01*
X101384226Y-16224261D01*
X112294772Y-16681392D02*
X112294772Y-15881392D01*
X112104296Y-15881392D01*
X111990010Y-15919488D01*
X111913820Y-15995678D01*
X111875724Y-16071868D01*
X111837629Y-16224249D01*
X111837629Y-16338535D01*
X111875724Y-16490916D01*
X111913820Y-16567107D01*
X111990010Y-16643297D01*
X112104296Y-16681392D01*
X112294772Y-16681392D01*
X111151915Y-16148059D02*
X111151915Y-16681392D01*
X111342391Y-15843297D02*
X111532867Y-16414726D01*
X111037629Y-16414726D01*
X110580486Y-15881392D02*
X110504296Y-15881392D01*
X110428105Y-15919488D01*
X110390010Y-15957583D01*
X110351915Y-16033773D01*
X110313820Y-16186154D01*
X110313820Y-16376630D01*
X110351915Y-16529011D01*
X110390010Y-16605202D01*
X110428105Y-16643297D01*
X110504296Y-16681392D01*
X110580486Y-16681392D01*
X110656677Y-16643297D01*
X110694772Y-16605202D01*
X110732867Y-16529011D01*
X110770963Y-16376630D01*
X110770963Y-16186154D01*
X110732867Y-16033773D01*
X110694772Y-15957583D01*
X110656677Y-15919488D01*
X110580486Y-15881392D01*
X120629140Y-16681404D02*
X120629140Y-15881404D01*
X120438664Y-15881404D01*
X120324378Y-15919500D01*
X120248188Y-15995690D01*
X120210092Y-16071880D01*
X120171997Y-16224261D01*
X120171997Y-16338547D01*
X120210092Y-16490928D01*
X120248188Y-16567119D01*
X120324378Y-16643309D01*
X120438664Y-16681404D01*
X120629140Y-16681404D01*
X119486283Y-16148071D02*
X119486283Y-16681404D01*
X119676759Y-15843309D02*
X119867235Y-16414738D01*
X119371997Y-16414738D01*
X118648188Y-16681404D02*
X119105331Y-16681404D01*
X118876759Y-16681404D02*
X118876759Y-15881404D01*
X118952950Y-15995690D01*
X119029140Y-16071880D01*
X119105331Y-16109976D01*
X-89516071Y-35731404D02*
X-89516071Y-34931404D01*
X-89706547Y-34931404D01*
X-89820833Y-34969500D01*
X-89897023Y-35045690D01*
X-89935119Y-35121880D01*
X-89973214Y-35274261D01*
X-89973214Y-35388547D01*
X-89935119Y-35540928D01*
X-89897023Y-35617119D01*
X-89820833Y-35693309D01*
X-89706547Y-35731404D01*
X-89516071Y-35731404D01*
X-90658928Y-35198071D02*
X-90658928Y-35731404D01*
X-90468452Y-34893309D02*
X-90277976Y-35464738D01*
X-90773214Y-35464738D01*
X-91039880Y-35007595D02*
X-91077976Y-34969500D01*
X-91154166Y-34931404D01*
X-91344642Y-34931404D01*
X-91420833Y-34969500D01*
X-91458928Y-35007595D01*
X-91497023Y-35083785D01*
X-91497023Y-35159976D01*
X-91458928Y-35274261D01*
X-91001785Y-35731404D01*
X-91497023Y-35731404D01*
X-58559821Y-35731404D02*
X-58559821Y-34931404D01*
X-58750297Y-34931404D01*
X-58864583Y-34969500D01*
X-58940773Y-35045690D01*
X-58978869Y-35121880D01*
X-59016964Y-35274261D01*
X-59016964Y-35388547D01*
X-58978869Y-35540928D01*
X-58940773Y-35617119D01*
X-58864583Y-35693309D01*
X-58750297Y-35731404D01*
X-58559821Y-35731404D01*
X-59702678Y-35198071D02*
X-59702678Y-35731404D01*
X-59512202Y-34893309D02*
X-59321726Y-35464738D01*
X-59816964Y-35464738D01*
X-60045535Y-34931404D02*
X-60540773Y-34931404D01*
X-60274107Y-35236166D01*
X-60388392Y-35236166D01*
X-60464583Y-35274261D01*
X-60502678Y-35312357D01*
X-60540773Y-35388547D01*
X-60540773Y-35579023D01*
X-60502678Y-35655214D01*
X-60464583Y-35693309D01*
X-60388392Y-35731404D01*
X-60159821Y-35731404D01*
X-60083630Y-35693309D01*
X-60045535Y-35655214D01*
X-39509821Y-35731404D02*
X-39509821Y-34931404D01*
X-39700297Y-34931404D01*
X-39814583Y-34969500D01*
X-39890773Y-35045690D01*
X-39928869Y-35121880D01*
X-39966964Y-35274261D01*
X-39966964Y-35388547D01*
X-39928869Y-35540928D01*
X-39890773Y-35617119D01*
X-39814583Y-35693309D01*
X-39700297Y-35731404D01*
X-39509821Y-35731404D01*
X-40652678Y-35198071D02*
X-40652678Y-35731404D01*
X-40462202Y-34893309D02*
X-40271726Y-35464738D01*
X-40766964Y-35464738D01*
X-41414583Y-35198071D02*
X-41414583Y-35731404D01*
X-41224107Y-34893309D02*
X-41033630Y-35464738D01*
X-41528869Y-35464738D01*
X-20459821Y-35731404D02*
X-20459821Y-34931404D01*
X-20650297Y-34931404D01*
X-20764583Y-34969500D01*
X-20840773Y-35045690D01*
X-20878869Y-35121880D01*
X-20916964Y-35274261D01*
X-20916964Y-35388547D01*
X-20878869Y-35540928D01*
X-20840773Y-35617119D01*
X-20764583Y-35693309D01*
X-20650297Y-35731404D01*
X-20459821Y-35731404D01*
X-21602678Y-35198071D02*
X-21602678Y-35731404D01*
X-21412202Y-34893309D02*
X-21221726Y-35464738D01*
X-21716964Y-35464738D01*
X-22402678Y-34931404D02*
X-22021726Y-34931404D01*
X-21983630Y-35312357D01*
X-22021726Y-35274261D01*
X-22097916Y-35236166D01*
X-22288392Y-35236166D01*
X-22364583Y-35274261D01*
X-22402678Y-35312357D01*
X-22440773Y-35388547D01*
X-22440773Y-35579023D01*
X-22402678Y-35655214D01*
X-22364583Y-35693309D01*
X-22288392Y-35731404D01*
X-22097916Y-35731404D01*
X-22021726Y-35693309D01*
X-21983630Y-35655214D01*
X-1226071Y-35731404D02*
X-1226071Y-34931404D01*
X-1416547Y-34931404D01*
X-1530833Y-34969500D01*
X-1607023Y-35045690D01*
X-1645119Y-35121880D01*
X-1683214Y-35274261D01*
X-1683214Y-35388547D01*
X-1645119Y-35540928D01*
X-1607023Y-35617119D01*
X-1530833Y-35693309D01*
X-1416547Y-35731404D01*
X-1226071Y-35731404D01*
X-2368928Y-35198071D02*
X-2368928Y-35731404D01*
X-2178452Y-34893309D02*
X-1987976Y-35464738D01*
X-2483214Y-35464738D01*
X-3130833Y-34931404D02*
X-2978452Y-34931404D01*
X-2902261Y-34969500D01*
X-2864166Y-35007595D01*
X-2787976Y-35121880D01*
X-2749880Y-35274261D01*
X-2749880Y-35579023D01*
X-2787976Y-35655214D01*
X-2826071Y-35693309D01*
X-2902261Y-35731404D01*
X-3054642Y-35731404D01*
X-3130833Y-35693309D01*
X-3168928Y-35655214D01*
X-3207023Y-35579023D01*
X-3207023Y-35388547D01*
X-3168928Y-35312357D01*
X-3130833Y-35274261D01*
X-3054642Y-35236166D01*
X-2902261Y-35236166D01*
X-2826071Y-35274261D01*
X-2787976Y-35312357D01*
X-2749880Y-35388547D01*
X17640178Y-35731404D02*
X17640178Y-34931404D01*
X17449702Y-34931404D01*
X17335416Y-34969500D01*
X17259226Y-35045690D01*
X17221130Y-35121880D01*
X17183035Y-35274261D01*
X17183035Y-35388547D01*
X17221130Y-35540928D01*
X17259226Y-35617119D01*
X17335416Y-35693309D01*
X17449702Y-35731404D01*
X17640178Y-35731404D01*
X16497321Y-35198071D02*
X16497321Y-35731404D01*
X16687797Y-34893309D02*
X16878273Y-35464738D01*
X16383035Y-35464738D01*
X16154464Y-34931404D02*
X15621130Y-34931404D01*
X15963988Y-35731404D01*
X36690178Y-35731404D02*
X36690178Y-34931404D01*
X36499702Y-34931404D01*
X36385416Y-34969500D01*
X36309226Y-35045690D01*
X36271130Y-35121880D01*
X36233035Y-35274261D01*
X36233035Y-35388547D01*
X36271130Y-35540928D01*
X36309226Y-35617119D01*
X36385416Y-35693309D01*
X36499702Y-35731404D01*
X36690178Y-35731404D01*
X35547321Y-35198071D02*
X35547321Y-35731404D01*
X35737797Y-34893309D02*
X35928273Y-35464738D01*
X35433035Y-35464738D01*
X35013988Y-35274261D02*
X35090178Y-35236166D01*
X35128273Y-35198071D01*
X35166369Y-35121880D01*
X35166369Y-35083785D01*
X35128273Y-35007595D01*
X35090178Y-34969500D01*
X35013988Y-34931404D01*
X34861607Y-34931404D01*
X34785416Y-34969500D01*
X34747321Y-35007595D01*
X34709226Y-35083785D01*
X34709226Y-35121880D01*
X34747321Y-35198071D01*
X34785416Y-35236166D01*
X34861607Y-35274261D01*
X35013988Y-35274261D01*
X35090178Y-35312357D01*
X35128273Y-35350452D01*
X35166369Y-35426642D01*
X35166369Y-35579023D01*
X35128273Y-35655214D01*
X35090178Y-35693309D01*
X35013988Y-35731404D01*
X34861607Y-35731404D01*
X34785416Y-35693309D01*
X34747321Y-35655214D01*
X34709226Y-35579023D01*
X34709226Y-35426642D01*
X34747321Y-35350452D01*
X34785416Y-35312357D01*
X34861607Y-35274261D01*
X55740178Y-35731404D02*
X55740178Y-34931404D01*
X55549702Y-34931404D01*
X55435416Y-34969500D01*
X55359226Y-35045690D01*
X55321130Y-35121880D01*
X55283035Y-35274261D01*
X55283035Y-35388547D01*
X55321130Y-35540928D01*
X55359226Y-35617119D01*
X55435416Y-35693309D01*
X55549702Y-35731404D01*
X55740178Y-35731404D01*
X54597321Y-35198071D02*
X54597321Y-35731404D01*
X54787797Y-34893309D02*
X54978273Y-35464738D01*
X54483035Y-35464738D01*
X54140178Y-35731404D02*
X53987797Y-35731404D01*
X53911607Y-35693309D01*
X53873511Y-35655214D01*
X53797321Y-35540928D01*
X53759226Y-35388547D01*
X53759226Y-35083785D01*
X53797321Y-35007595D01*
X53835416Y-34969500D01*
X53911607Y-34931404D01*
X54063988Y-34931404D01*
X54140178Y-34969500D01*
X54178273Y-35007595D01*
X54216369Y-35083785D01*
X54216369Y-35274261D01*
X54178273Y-35350452D01*
X54140178Y-35388547D01*
X54063988Y-35426642D01*
X53911607Y-35426642D01*
X53835416Y-35388547D01*
X53797321Y-35350452D01*
X53759226Y-35274261D01*
X74790178Y-35731404D02*
X74790178Y-34931404D01*
X74599702Y-34931404D01*
X74485416Y-34969500D01*
X74409226Y-35045690D01*
X74371130Y-35121880D01*
X74333035Y-35274261D01*
X74333035Y-35388547D01*
X74371130Y-35540928D01*
X74409226Y-35617119D01*
X74485416Y-35693309D01*
X74599702Y-35731404D01*
X74790178Y-35731404D01*
X73609226Y-34931404D02*
X73990178Y-34931404D01*
X74028273Y-35312357D01*
X73990178Y-35274261D01*
X73913988Y-35236166D01*
X73723511Y-35236166D01*
X73647321Y-35274261D01*
X73609226Y-35312357D01*
X73571130Y-35388547D01*
X73571130Y-35579023D01*
X73609226Y-35655214D01*
X73647321Y-35693309D01*
X73723511Y-35731404D01*
X73913988Y-35731404D01*
X73990178Y-35693309D01*
X74028273Y-35655214D01*
X73075892Y-34931404D02*
X72999702Y-34931404D01*
X72923511Y-34969500D01*
X72885416Y-35007595D01*
X72847321Y-35083785D01*
X72809226Y-35236166D01*
X72809226Y-35426642D01*
X72847321Y-35579023D01*
X72885416Y-35655214D01*
X72923511Y-35693309D01*
X72999702Y-35731404D01*
X73075892Y-35731404D01*
X73152083Y-35693309D01*
X73190178Y-35655214D01*
X73228273Y-35579023D01*
X73266369Y-35426642D01*
X73266369Y-35236166D01*
X73228273Y-35083785D01*
X73190178Y-35007595D01*
X73152083Y-34969500D01*
X73075892Y-34931404D01*
X93840178Y-35731404D02*
X93840178Y-34931404D01*
X93649702Y-34931404D01*
X93535416Y-34969500D01*
X93459226Y-35045690D01*
X93421130Y-35121880D01*
X93383035Y-35274261D01*
X93383035Y-35388547D01*
X93421130Y-35540928D01*
X93459226Y-35617119D01*
X93535416Y-35693309D01*
X93649702Y-35731404D01*
X93840178Y-35731404D01*
X92659226Y-34931404D02*
X93040178Y-34931404D01*
X93078273Y-35312357D01*
X93040178Y-35274261D01*
X92963988Y-35236166D01*
X92773511Y-35236166D01*
X92697321Y-35274261D01*
X92659226Y-35312357D01*
X92621130Y-35388547D01*
X92621130Y-35579023D01*
X92659226Y-35655214D01*
X92697321Y-35693309D01*
X92773511Y-35731404D01*
X92963988Y-35731404D01*
X93040178Y-35693309D01*
X93078273Y-35655214D01*
X91859226Y-35731404D02*
X92316369Y-35731404D01*
X92087797Y-35731404D02*
X92087797Y-34931404D01*
X92163988Y-35045690D01*
X92240178Y-35121880D01*
X92316369Y-35159976D01*
X112890178Y-35731404D02*
X112890178Y-34931404D01*
X112699702Y-34931404D01*
X112585416Y-34969500D01*
X112509226Y-35045690D01*
X112471130Y-35121880D01*
X112433035Y-35274261D01*
X112433035Y-35388547D01*
X112471130Y-35540928D01*
X112509226Y-35617119D01*
X112585416Y-35693309D01*
X112699702Y-35731404D01*
X112890178Y-35731404D01*
X111709226Y-34931404D02*
X112090178Y-34931404D01*
X112128273Y-35312357D01*
X112090178Y-35274261D01*
X112013988Y-35236166D01*
X111823511Y-35236166D01*
X111747321Y-35274261D01*
X111709226Y-35312357D01*
X111671130Y-35388547D01*
X111671130Y-35579023D01*
X111709226Y-35655214D01*
X111747321Y-35693309D01*
X111823511Y-35731404D01*
X112013988Y-35731404D01*
X112090178Y-35693309D01*
X112128273Y-35655214D01*
X111366369Y-35007595D02*
X111328273Y-34969500D01*
X111252083Y-34931404D01*
X111061607Y-34931404D01*
X110985416Y-34969500D01*
X110947321Y-35007595D01*
X110909226Y-35083785D01*
X110909226Y-35159976D01*
X110947321Y-35274261D01*
X111404464Y-35731404D01*
X110909226Y-35731404D01*
X143846428Y-35731404D02*
X143846428Y-34931404D01*
X143655952Y-34931404D01*
X143541666Y-34969500D01*
X143465476Y-35045690D01*
X143427380Y-35121880D01*
X143389285Y-35274261D01*
X143389285Y-35388547D01*
X143427380Y-35540928D01*
X143465476Y-35617119D01*
X143541666Y-35693309D01*
X143655952Y-35731404D01*
X143846428Y-35731404D01*
X142665476Y-34931404D02*
X143046428Y-34931404D01*
X143084523Y-35312357D01*
X143046428Y-35274261D01*
X142970238Y-35236166D01*
X142779761Y-35236166D01*
X142703571Y-35274261D01*
X142665476Y-35312357D01*
X142627380Y-35388547D01*
X142627380Y-35579023D01*
X142665476Y-35655214D01*
X142703571Y-35693309D01*
X142779761Y-35731404D01*
X142970238Y-35731404D01*
X143046428Y-35693309D01*
X143084523Y-35655214D01*
X142360714Y-34931404D02*
X141865476Y-34931404D01*
X142132142Y-35236166D01*
X142017857Y-35236166D01*
X141941666Y-35274261D01*
X141903571Y-35312357D01*
X141865476Y-35388547D01*
X141865476Y-35579023D01*
X141903571Y-35655214D01*
X141941666Y-35693309D01*
X142017857Y-35731404D01*
X142246428Y-35731404D01*
X142322619Y-35693309D01*
X142360714Y-35655214D01*
X174802678Y-35731404D02*
X174802678Y-34931404D01*
X174612202Y-34931404D01*
X174497916Y-34969500D01*
X174421726Y-35045690D01*
X174383630Y-35121880D01*
X174345535Y-35274261D01*
X174345535Y-35388547D01*
X174383630Y-35540928D01*
X174421726Y-35617119D01*
X174497916Y-35693309D01*
X174612202Y-35731404D01*
X174802678Y-35731404D01*
X173621726Y-34931404D02*
X174002678Y-34931404D01*
X174040773Y-35312357D01*
X174002678Y-35274261D01*
X173926488Y-35236166D01*
X173736011Y-35236166D01*
X173659821Y-35274261D01*
X173621726Y-35312357D01*
X173583630Y-35388547D01*
X173583630Y-35579023D01*
X173621726Y-35655214D01*
X173659821Y-35693309D01*
X173736011Y-35731404D01*
X173926488Y-35731404D01*
X174002678Y-35693309D01*
X174040773Y-35655214D01*
X172897916Y-35198071D02*
X172897916Y-35731404D01*
X173088392Y-34893309D02*
X173278869Y-35464738D01*
X172783630Y-35464738D01*
X-96659821Y-54781404D02*
X-96659821Y-53981404D01*
X-96850297Y-53981404D01*
X-96964583Y-54019500D01*
X-97040773Y-54095690D01*
X-97078869Y-54171880D01*
X-97116964Y-54324261D01*
X-97116964Y-54438547D01*
X-97078869Y-54590928D01*
X-97040773Y-54667119D01*
X-96964583Y-54743309D01*
X-96850297Y-54781404D01*
X-96659821Y-54781404D01*
X-97840773Y-53981404D02*
X-97459821Y-53981404D01*
X-97421726Y-54362357D01*
X-97459821Y-54324261D01*
X-97536011Y-54286166D01*
X-97726488Y-54286166D01*
X-97802678Y-54324261D01*
X-97840773Y-54362357D01*
X-97878869Y-54438547D01*
X-97878869Y-54629023D01*
X-97840773Y-54705214D01*
X-97802678Y-54743309D01*
X-97726488Y-54781404D01*
X-97536011Y-54781404D01*
X-97459821Y-54743309D01*
X-97421726Y-54705214D01*
X-98602678Y-53981404D02*
X-98221726Y-53981404D01*
X-98183630Y-54362357D01*
X-98221726Y-54324261D01*
X-98297916Y-54286166D01*
X-98488392Y-54286166D01*
X-98564583Y-54324261D01*
X-98602678Y-54362357D01*
X-98640773Y-54438547D01*
X-98640773Y-54629023D01*
X-98602678Y-54705214D01*
X-98564583Y-54743309D01*
X-98488392Y-54781404D01*
X-98297916Y-54781404D01*
X-98221726Y-54743309D01*
X-98183630Y-54705214D01*
X-49034821Y-54781404D02*
X-49034821Y-53981404D01*
X-49225297Y-53981404D01*
X-49339583Y-54019500D01*
X-49415773Y-54095690D01*
X-49453869Y-54171880D01*
X-49491964Y-54324261D01*
X-49491964Y-54438547D01*
X-49453869Y-54590928D01*
X-49415773Y-54667119D01*
X-49339583Y-54743309D01*
X-49225297Y-54781404D01*
X-49034821Y-54781404D01*
X-50215773Y-53981404D02*
X-49834821Y-53981404D01*
X-49796726Y-54362357D01*
X-49834821Y-54324261D01*
X-49911011Y-54286166D01*
X-50101488Y-54286166D01*
X-50177678Y-54324261D01*
X-50215773Y-54362357D01*
X-50253869Y-54438547D01*
X-50253869Y-54629023D01*
X-50215773Y-54705214D01*
X-50177678Y-54743309D01*
X-50101488Y-54781404D01*
X-49911011Y-54781404D01*
X-49834821Y-54743309D01*
X-49796726Y-54705214D01*
X-50939583Y-53981404D02*
X-50787202Y-53981404D01*
X-50711011Y-54019500D01*
X-50672916Y-54057595D01*
X-50596726Y-54171880D01*
X-50558630Y-54324261D01*
X-50558630Y-54629023D01*
X-50596726Y-54705214D01*
X-50634821Y-54743309D01*
X-50711011Y-54781404D01*
X-50863392Y-54781404D01*
X-50939583Y-54743309D01*
X-50977678Y-54705214D01*
X-51015773Y-54629023D01*
X-51015773Y-54438547D01*
X-50977678Y-54362357D01*
X-50939583Y-54324261D01*
X-50863392Y-54286166D01*
X-50711011Y-54286166D01*
X-50634821Y-54324261D01*
X-50596726Y-54362357D01*
X-50558630Y-54438547D01*
X31927678Y-54781404D02*
X31927678Y-53981404D01*
X31737202Y-53981404D01*
X31622916Y-54019500D01*
X31546726Y-54095690D01*
X31508630Y-54171880D01*
X31470535Y-54324261D01*
X31470535Y-54438547D01*
X31508630Y-54590928D01*
X31546726Y-54667119D01*
X31622916Y-54743309D01*
X31737202Y-54781404D01*
X31927678Y-54781404D01*
X30746726Y-53981404D02*
X31127678Y-53981404D01*
X31165773Y-54362357D01*
X31127678Y-54324261D01*
X31051488Y-54286166D01*
X30861011Y-54286166D01*
X30784821Y-54324261D01*
X30746726Y-54362357D01*
X30708630Y-54438547D01*
X30708630Y-54629023D01*
X30746726Y-54705214D01*
X30784821Y-54743309D01*
X30861011Y-54781404D01*
X31051488Y-54781404D01*
X31127678Y-54743309D01*
X31165773Y-54705214D01*
X30441964Y-53981404D02*
X29908630Y-53981404D01*
X30251488Y-54781404D01*
X112890178Y-54781404D02*
X112890178Y-53981404D01*
X112699702Y-53981404D01*
X112585416Y-54019500D01*
X112509226Y-54095690D01*
X112471130Y-54171880D01*
X112433035Y-54324261D01*
X112433035Y-54438547D01*
X112471130Y-54590928D01*
X112509226Y-54667119D01*
X112585416Y-54743309D01*
X112699702Y-54781404D01*
X112890178Y-54781404D01*
X111709226Y-53981404D02*
X112090178Y-53981404D01*
X112128273Y-54362357D01*
X112090178Y-54324261D01*
X112013988Y-54286166D01*
X111823511Y-54286166D01*
X111747321Y-54324261D01*
X111709226Y-54362357D01*
X111671130Y-54438547D01*
X111671130Y-54629023D01*
X111709226Y-54705214D01*
X111747321Y-54743309D01*
X111823511Y-54781404D01*
X112013988Y-54781404D01*
X112090178Y-54743309D01*
X112128273Y-54705214D01*
X111213988Y-54324261D02*
X111290178Y-54286166D01*
X111328273Y-54248071D01*
X111366369Y-54171880D01*
X111366369Y-54133785D01*
X111328273Y-54057595D01*
X111290178Y-54019500D01*
X111213988Y-53981404D01*
X111061607Y-53981404D01*
X110985416Y-54019500D01*
X110947321Y-54057595D01*
X110909226Y-54133785D01*
X110909226Y-54171880D01*
X110947321Y-54248071D01*
X110985416Y-54286166D01*
X111061607Y-54324261D01*
X111213988Y-54324261D01*
X111290178Y-54362357D01*
X111328273Y-54400452D01*
X111366369Y-54476642D01*
X111366369Y-54629023D01*
X111328273Y-54705214D01*
X111290178Y-54743309D01*
X111213988Y-54781404D01*
X111061607Y-54781404D01*
X110985416Y-54743309D01*
X110947321Y-54705214D01*
X110909226Y-54629023D01*
X110909226Y-54476642D01*
X110947321Y-54400452D01*
X110985416Y-54362357D01*
X111061607Y-54324261D01*
X155752678Y-54781404D02*
X155752678Y-53981404D01*
X155562202Y-53981404D01*
X155447916Y-54019500D01*
X155371726Y-54095690D01*
X155333630Y-54171880D01*
X155295535Y-54324261D01*
X155295535Y-54438547D01*
X155333630Y-54590928D01*
X155371726Y-54667119D01*
X155447916Y-54743309D01*
X155562202Y-54781404D01*
X155752678Y-54781404D01*
X154571726Y-53981404D02*
X154952678Y-53981404D01*
X154990773Y-54362357D01*
X154952678Y-54324261D01*
X154876488Y-54286166D01*
X154686011Y-54286166D01*
X154609821Y-54324261D01*
X154571726Y-54362357D01*
X154533630Y-54438547D01*
X154533630Y-54629023D01*
X154571726Y-54705214D01*
X154609821Y-54743309D01*
X154686011Y-54781404D01*
X154876488Y-54781404D01*
X154952678Y-54743309D01*
X154990773Y-54705214D01*
X154152678Y-54781404D02*
X154000297Y-54781404D01*
X153924107Y-54743309D01*
X153886011Y-54705214D01*
X153809821Y-54590928D01*
X153771726Y-54438547D01*
X153771726Y-54133785D01*
X153809821Y-54057595D01*
X153847916Y-54019500D01*
X153924107Y-53981404D01*
X154076488Y-53981404D01*
X154152678Y-54019500D01*
X154190773Y-54057595D01*
X154228869Y-54133785D01*
X154228869Y-54324261D01*
X154190773Y-54400452D01*
X154152678Y-54438547D01*
X154076488Y-54476642D01*
X153924107Y-54476642D01*
X153847916Y-54438547D01*
X153809821Y-54400452D01*
X153771726Y-54324261D01*
X174802678Y-54781404D02*
X174802678Y-53981404D01*
X174612202Y-53981404D01*
X174497916Y-54019500D01*
X174421726Y-54095690D01*
X174383630Y-54171880D01*
X174345535Y-54324261D01*
X174345535Y-54438547D01*
X174383630Y-54590928D01*
X174421726Y-54667119D01*
X174497916Y-54743309D01*
X174612202Y-54781404D01*
X174802678Y-54781404D01*
X173659821Y-53981404D02*
X173812202Y-53981404D01*
X173888392Y-54019500D01*
X173926488Y-54057595D01*
X174002678Y-54171880D01*
X174040773Y-54324261D01*
X174040773Y-54629023D01*
X174002678Y-54705214D01*
X173964583Y-54743309D01*
X173888392Y-54781404D01*
X173736011Y-54781404D01*
X173659821Y-54743309D01*
X173621726Y-54705214D01*
X173583630Y-54629023D01*
X173583630Y-54438547D01*
X173621726Y-54362357D01*
X173659821Y-54324261D01*
X173736011Y-54286166D01*
X173888392Y-54286166D01*
X173964583Y-54324261D01*
X174002678Y-54362357D01*
X174040773Y-54438547D01*
X173088392Y-53981404D02*
X173012202Y-53981404D01*
X172936011Y-54019500D01*
X172897916Y-54057595D01*
X172859821Y-54133785D01*
X172821726Y-54286166D01*
X172821726Y-54476642D01*
X172859821Y-54629023D01*
X172897916Y-54705214D01*
X172936011Y-54743309D01*
X173012202Y-54781404D01*
X173088392Y-54781404D01*
X173164583Y-54743309D01*
X173202678Y-54705214D01*
X173240773Y-54629023D01*
X173278869Y-54476642D01*
X173278869Y-54286166D01*
X173240773Y-54133785D01*
X173202678Y-54057595D01*
X173164583Y-54019500D01*
X173088392Y-53981404D01*
X193852678Y-54781404D02*
X193852678Y-53981404D01*
X193662202Y-53981404D01*
X193547916Y-54019500D01*
X193471726Y-54095690D01*
X193433630Y-54171880D01*
X193395535Y-54324261D01*
X193395535Y-54438547D01*
X193433630Y-54590928D01*
X193471726Y-54667119D01*
X193547916Y-54743309D01*
X193662202Y-54781404D01*
X193852678Y-54781404D01*
X192709821Y-53981404D02*
X192862202Y-53981404D01*
X192938392Y-54019500D01*
X192976488Y-54057595D01*
X193052678Y-54171880D01*
X193090773Y-54324261D01*
X193090773Y-54629023D01*
X193052678Y-54705214D01*
X193014583Y-54743309D01*
X192938392Y-54781404D01*
X192786011Y-54781404D01*
X192709821Y-54743309D01*
X192671726Y-54705214D01*
X192633630Y-54629023D01*
X192633630Y-54438547D01*
X192671726Y-54362357D01*
X192709821Y-54324261D01*
X192786011Y-54286166D01*
X192938392Y-54286166D01*
X193014583Y-54324261D01*
X193052678Y-54362357D01*
X193090773Y-54438547D01*
X191871726Y-54781404D02*
X192328869Y-54781404D01*
X192100297Y-54781404D02*
X192100297Y-53981404D01*
X192176488Y-54095690D01*
X192252678Y-54171880D01*
X192328869Y-54209976D01*
X141849436Y2368591D02*
X141849436Y3168591D01*
X141658960Y3168591D01*
X141544674Y3130496D01*
X141468484Y3054305D01*
X141430388Y2978115D01*
X141392293Y2825734D01*
X141392293Y2711448D01*
X141430388Y2559067D01*
X141468484Y2482876D01*
X141544674Y2406686D01*
X141658960Y2368591D01*
X141849436Y2368591D01*
X140706579Y3168591D02*
X140858960Y3168591D01*
X140935150Y3130496D01*
X140973246Y3092400D01*
X141049436Y2978115D01*
X141087531Y2825734D01*
X141087531Y2520972D01*
X141049436Y2444781D01*
X141011341Y2406686D01*
X140935150Y2368591D01*
X140782769Y2368591D01*
X140706579Y2406686D01*
X140668484Y2444781D01*
X140630388Y2520972D01*
X140630388Y2711448D01*
X140668484Y2787638D01*
X140706579Y2825734D01*
X140782769Y2863829D01*
X140935150Y2863829D01*
X141011341Y2825734D01*
X141049436Y2787638D01*
X141087531Y2711448D01*
X140363722Y3168591D02*
X139868484Y3168591D01*
X140135150Y2863829D01*
X140020865Y2863829D01*
X139944674Y2825734D01*
X139906579Y2787638D01*
X139868484Y2711448D01*
X139868484Y2520972D01*
X139906579Y2444781D01*
X139944674Y2406686D01*
X140020865Y2368591D01*
X140249436Y2368591D01*
X140325627Y2406686D01*
X140363722Y2444781D01*
X-77609755Y-35731376D02*
X-77609755Y-34931376D01*
X-77800231Y-34931376D01*
X-77914517Y-34969472D01*
X-77990707Y-35045662D01*
X-78028803Y-35121852D01*
X-78066898Y-35274233D01*
X-78066898Y-35388519D01*
X-78028803Y-35540900D01*
X-77990707Y-35617091D01*
X-77914517Y-35693281D01*
X-77800231Y-35731376D01*
X-77609755Y-35731376D01*
X-78752612Y-34931376D02*
X-78600231Y-34931376D01*
X-78524041Y-34969472D01*
X-78485945Y-35007567D01*
X-78409755Y-35121852D01*
X-78371660Y-35274233D01*
X-78371660Y-35578995D01*
X-78409755Y-35655186D01*
X-78447850Y-35693281D01*
X-78524041Y-35731376D01*
X-78676422Y-35731376D01*
X-78752612Y-35693281D01*
X-78790707Y-35655186D01*
X-78828803Y-35578995D01*
X-78828803Y-35388519D01*
X-78790707Y-35312329D01*
X-78752612Y-35274233D01*
X-78676422Y-35236138D01*
X-78524041Y-35236138D01*
X-78447850Y-35274233D01*
X-78409755Y-35312329D01*
X-78371660Y-35388519D01*
X-79514517Y-34931376D02*
X-79362136Y-34931376D01*
X-79285945Y-34969472D01*
X-79247850Y-35007567D01*
X-79171660Y-35121852D01*
X-79133564Y-35274233D01*
X-79133564Y-35578995D01*
X-79171660Y-35655186D01*
X-79209755Y-35693281D01*
X-79285945Y-35731376D01*
X-79438326Y-35731376D01*
X-79514517Y-35693281D01*
X-79552612Y-35655186D01*
X-79590707Y-35578995D01*
X-79590707Y-35388519D01*
X-79552612Y-35312329D01*
X-79514517Y-35274233D01*
X-79438326Y-35236138D01*
X-79285945Y-35236138D01*
X-79209755Y-35274233D01*
X-79171660Y-35312329D01*
X-79133564Y-35388519D01*
X-72847259Y-54781360D02*
X-72847259Y-53981360D01*
X-73037735Y-53981360D01*
X-73152021Y-54019456D01*
X-73228211Y-54095646D01*
X-73266307Y-54171836D01*
X-73304402Y-54324217D01*
X-73304402Y-54438503D01*
X-73266307Y-54590884D01*
X-73228211Y-54667075D01*
X-73152021Y-54743265D01*
X-73037735Y-54781360D01*
X-72847259Y-54781360D01*
X-73990116Y-53981360D02*
X-73837735Y-53981360D01*
X-73761545Y-54019456D01*
X-73723449Y-54057551D01*
X-73647259Y-54171836D01*
X-73609164Y-54324217D01*
X-73609164Y-54628979D01*
X-73647259Y-54705170D01*
X-73685354Y-54743265D01*
X-73761545Y-54781360D01*
X-73913926Y-54781360D01*
X-73990116Y-54743265D01*
X-74028211Y-54705170D01*
X-74066307Y-54628979D01*
X-74066307Y-54438503D01*
X-74028211Y-54362313D01*
X-73990116Y-54324217D01*
X-73913926Y-54286122D01*
X-73761545Y-54286122D01*
X-73685354Y-54324217D01*
X-73647259Y-54362313D01*
X-73609164Y-54438503D01*
X-74332973Y-53981360D02*
X-74866307Y-53981360D01*
X-74523449Y-54781360D01*
X160757901Y6024611D02*
X160757901Y7024611D01*
X160186473Y6024611D02*
X160615044Y6596039D01*
X160186473Y7024611D02*
X160757901Y6453182D01*
X159329330Y7024611D02*
X159519806Y7024611D01*
X159615044Y6976992D01*
X159662663Y6929372D01*
X159757901Y6786515D01*
X159805520Y6596039D01*
X159805520Y6215087D01*
X159757901Y6119849D01*
X159710282Y6072230D01*
X159615044Y6024611D01*
X159424568Y6024611D01*
X159329330Y6072230D01*
X159281711Y6119849D01*
X159234092Y6215087D01*
X159234092Y6453182D01*
X159281711Y6548420D01*
X159329330Y6596039D01*
X159424568Y6643658D01*
X159615044Y6643658D01*
X159710282Y6596039D01*
X159757901Y6548420D01*
X159805520Y6453182D01*
X158900758Y7024611D02*
X158281711Y7024611D01*
X158615044Y6643658D01*
X158472187Y6643658D01*
X158376949Y6596039D01*
X158329330Y6548420D01*
X158281711Y6453182D01*
X158281711Y6215087D01*
X158329330Y6119849D01*
X158376949Y6072230D01*
X158472187Y6024611D01*
X158757901Y6024611D01*
X158853139Y6072230D01*
X158900758Y6119849D01*
X-98798130Y-32075356D02*
X-98798130Y-31075356D01*
X-99369558Y-32075356D02*
X-98940987Y-31503928D01*
X-99369558Y-31075356D02*
X-98798130Y-31646785D01*
X-100226701Y-31075356D02*
X-100036225Y-31075356D01*
X-99940987Y-31122976D01*
X-99893368Y-31170595D01*
X-99798130Y-31313452D01*
X-99750511Y-31503928D01*
X-99750511Y-31884880D01*
X-99798130Y-31980118D01*
X-99845749Y-32027737D01*
X-99940987Y-32075356D01*
X-100131463Y-32075356D01*
X-100226701Y-32027737D01*
X-100274320Y-31980118D01*
X-100321939Y-31884880D01*
X-100321939Y-31646785D01*
X-100274320Y-31551547D01*
X-100226701Y-31503928D01*
X-100131463Y-31456309D01*
X-99940987Y-31456309D01*
X-99845749Y-31503928D01*
X-99798130Y-31551547D01*
X-99750511Y-31646785D01*
X-101226701Y-31075356D02*
X-100750511Y-31075356D01*
X-100702892Y-31551547D01*
X-100750511Y-31503928D01*
X-100845749Y-31456309D01*
X-101083844Y-31456309D01*
X-101179082Y-31503928D01*
X-101226701Y-31551547D01*
X-101274320Y-31646785D01*
X-101274320Y-31884880D01*
X-101226701Y-31980118D01*
X-101179082Y-32027737D01*
X-101083844Y-32075356D01*
X-100845749Y-32075356D01*
X-100750511Y-32027737D01*
X-100702892Y-31980118D01*
X-72604402Y-51125340D02*
X-72604402Y-50125340D01*
X-73175830Y-51125340D02*
X-72747259Y-50553912D01*
X-73175830Y-50125340D02*
X-72604402Y-50696769D01*
X-74032973Y-50125340D02*
X-73842497Y-50125340D01*
X-73747259Y-50172960D01*
X-73699640Y-50220579D01*
X-73604402Y-50363436D01*
X-73556783Y-50553912D01*
X-73556783Y-50934864D01*
X-73604402Y-51030102D01*
X-73652021Y-51077721D01*
X-73747259Y-51125340D01*
X-73937735Y-51125340D01*
X-74032973Y-51077721D01*
X-74080592Y-51030102D01*
X-74128211Y-50934864D01*
X-74128211Y-50696769D01*
X-74080592Y-50601531D01*
X-74032973Y-50553912D01*
X-73937735Y-50506293D01*
X-73747259Y-50506293D01*
X-73652021Y-50553912D01*
X-73604402Y-50601531D01*
X-73556783Y-50696769D01*
X-74461545Y-50125340D02*
X-75128211Y-50125340D01*
X-74699640Y-51125340D01*
X141708035Y-13025380D02*
X141708035Y-12025380D01*
X141136607Y-13025380D02*
X141565178Y-12453952D01*
X141136607Y-12025380D02*
X141708035Y-12596809D01*
X140279464Y-12358714D02*
X140279464Y-13025380D01*
X140517559Y-11977761D02*
X140755654Y-12692047D01*
X140136607Y-12692047D01*
X139231845Y-13025380D02*
X139803273Y-13025380D01*
X139517559Y-13025380D02*
X139517559Y-12025380D01*
X139612797Y-12168238D01*
X139708035Y-12263476D01*
X139803273Y-12311095D01*
X-89273214Y-32075380D02*
X-89273214Y-31075380D01*
X-89844642Y-32075380D02*
X-89416071Y-31503952D01*
X-89844642Y-31075380D02*
X-89273214Y-31646809D01*
X-90701785Y-31408714D02*
X-90701785Y-32075380D01*
X-90463690Y-31027761D02*
X-90225595Y-31742047D01*
X-90844642Y-31742047D01*
X-91177976Y-31170619D02*
X-91225595Y-31123000D01*
X-91320833Y-31075380D01*
X-91558928Y-31075380D01*
X-91654166Y-31123000D01*
X-91701785Y-31170619D01*
X-91749404Y-31265857D01*
X-91749404Y-31361095D01*
X-91701785Y-31503952D01*
X-91130357Y-32075380D01*
X-91749404Y-32075380D01*
X-77366898Y-32075356D02*
X-77366898Y-31075356D01*
X-77938326Y-32075356D02*
X-77509755Y-31503928D01*
X-77938326Y-31075356D02*
X-77366898Y-31646785D01*
X-78795469Y-31075356D02*
X-78604993Y-31075356D01*
X-78509755Y-31122976D01*
X-78462136Y-31170595D01*
X-78366898Y-31313452D01*
X-78319279Y-31503928D01*
X-78319279Y-31884880D01*
X-78366898Y-31980118D01*
X-78414517Y-32027737D01*
X-78509755Y-32075356D01*
X-78700231Y-32075356D01*
X-78795469Y-32027737D01*
X-78843088Y-31980118D01*
X-78890707Y-31884880D01*
X-78890707Y-31646785D01*
X-78843088Y-31551547D01*
X-78795469Y-31503928D01*
X-78700231Y-31456309D01*
X-78509755Y-31456309D01*
X-78414517Y-31503928D01*
X-78366898Y-31551547D01*
X-78319279Y-31646785D01*
X-79747850Y-31075356D02*
X-79557374Y-31075356D01*
X-79462136Y-31122976D01*
X-79414517Y-31170595D01*
X-79319279Y-31313452D01*
X-79271660Y-31503928D01*
X-79271660Y-31884880D01*
X-79319279Y-31980118D01*
X-79366898Y-32027737D01*
X-79462136Y-32075356D01*
X-79652612Y-32075356D01*
X-79747850Y-32027737D01*
X-79795469Y-31980118D01*
X-79843088Y-31884880D01*
X-79843088Y-31646785D01*
X-79795469Y-31551547D01*
X-79747850Y-31503928D01*
X-79652612Y-31456309D01*
X-79462136Y-31456309D01*
X-79366898Y-31503928D01*
X-79319279Y-31551547D01*
X-79271660Y-31646785D01*
X62077804Y-52576380D02*
X62077804Y-51576380D01*
X62077804Y-52052571D02*
X61506376Y-52052571D01*
X61506376Y-52576380D02*
X61506376Y-51576380D01*
X61077804Y-51671619D02*
X61030185Y-51624000D01*
X60934947Y-51576380D01*
X60696852Y-51576380D01*
X60601614Y-51624000D01*
X60553995Y-51671619D01*
X60506376Y-51766857D01*
X60506376Y-51862095D01*
X60553995Y-52004952D01*
X61125423Y-52576380D01*
X60506376Y-52576380D01*
X1357204Y-52576380D02*
X1357204Y-51576380D01*
X1357204Y-52052571D02*
X785776Y-52052571D01*
X785776Y-52576380D02*
X785776Y-51576380D01*
X404823Y-51576380D02*
X-214223Y-51576380D01*
X119109Y-51957333D01*
X-23747Y-51957333D01*
X-118985Y-52004952D01*
X-166604Y-52052571D01*
X-214223Y-52147809D01*
X-214223Y-52385904D01*
X-166604Y-52481142D01*
X-118985Y-52528761D01*
X-23747Y-52576380D01*
X261966Y-52576380D01*
X357204Y-52528761D01*
X404823Y-52481142D01*
X193639104Y-33526780D02*
X193639104Y-32526780D01*
X193639104Y-33002971D02*
X193067676Y-33002971D01*
X193067676Y-33526780D02*
X193067676Y-32526780D01*
X192067676Y-33526780D02*
X192639104Y-33526780D01*
X192353390Y-33526780D02*
X192353390Y-32526780D01*
X192448628Y-32669638D01*
X192543866Y-32764876D01*
X192639104Y-32812495D01*
X-81984795Y-16263080D02*
X-81984795Y-15263080D01*
X-81984795Y-15739271D02*
X-82556223Y-15739271D01*
X-82556223Y-16263080D02*
X-82556223Y-15263080D01*
X-83460985Y-15596414D02*
X-83460985Y-16263080D01*
X-83222890Y-15215461D02*
X-82984795Y-15929747D01*
X-83603842Y-15929747D01*
X-104891971Y40551828D02*
X-104558638Y40551828D01*
X-104558638Y40028019D02*
X-104558638Y41028019D01*
X-105034828Y41028019D01*
X-105415780Y40028019D02*
X-105415780Y41028019D01*
X-105891971Y40028019D02*
X-105891971Y41028019D01*
X-106130066Y41028019D01*
X-106272923Y40980400D01*
X-106368161Y40885161D01*
X-106415780Y40789923D01*
X-106463400Y40599447D01*
X-106463400Y40456590D01*
X-106415780Y40266114D01*
X-106368161Y40170876D01*
X-106272923Y40075638D01*
X-106130066Y40028019D01*
X-105891971Y40028019D01*
X-107415780Y40028019D02*
X-106844352Y40028019D01*
X-107130066Y40028019D02*
X-107130066Y41028019D01*
X-107034828Y40885161D01*
X-106939590Y40789923D01*
X-106844352Y40742304D01*
X-104891971Y-61244471D02*
X-104558638Y-61244471D01*
X-104558638Y-61768280D02*
X-104558638Y-60768280D01*
X-105034828Y-60768280D01*
X-105415780Y-61768280D02*
X-105415780Y-60768280D01*
X-105891971Y-61768280D02*
X-105891971Y-60768280D01*
X-106130066Y-60768280D01*
X-106272923Y-60815900D01*
X-106368161Y-60911138D01*
X-106415780Y-61006376D01*
X-106463400Y-61196852D01*
X-106463400Y-61339709D01*
X-106415780Y-61530185D01*
X-106368161Y-61625423D01*
X-106272923Y-61720661D01*
X-106130066Y-61768280D01*
X-105891971Y-61768280D01*
X-106844352Y-60863519D02*
X-106891971Y-60815900D01*
X-106987209Y-60768280D01*
X-107225304Y-60768280D01*
X-107320542Y-60815900D01*
X-107368161Y-60863519D01*
X-107415780Y-60958757D01*
X-107415780Y-61053995D01*
X-107368161Y-61196852D01*
X-106796733Y-61768280D01*
X-107415780Y-61768280D01*
X198115728Y-65411571D02*
X198449061Y-65411571D01*
X198449061Y-65935380D02*
X198449061Y-64935380D01*
X197972871Y-64935380D01*
X197591919Y-65935380D02*
X197591919Y-64935380D01*
X197115728Y-65935380D02*
X197115728Y-64935380D01*
X196877633Y-64935380D01*
X196734776Y-64983000D01*
X196639538Y-65078238D01*
X196591919Y-65173476D01*
X196544300Y-65363952D01*
X196544300Y-65506809D01*
X196591919Y-65697285D01*
X196639538Y-65792523D01*
X196734776Y-65887761D01*
X196877633Y-65935380D01*
X197115728Y-65935380D01*
X196210966Y-64935380D02*
X195591919Y-64935380D01*
X195925252Y-65316333D01*
X195782395Y-65316333D01*
X195687157Y-65363952D01*
X195639538Y-65411571D01*
X195591919Y-65506809D01*
X195591919Y-65744904D01*
X195639538Y-65840142D01*
X195687157Y-65887761D01*
X195782395Y-65935380D01*
X196068109Y-65935380D01*
X196163347Y-65887761D01*
X196210966Y-65840142D01*
X197520428Y40551828D02*
X197853761Y40551828D01*
X197853761Y40028019D02*
X197853761Y41028019D01*
X197377571Y41028019D01*
X196996619Y40028019D02*
X196996619Y41028019D01*
X196520428Y40028019D02*
X196520428Y41028019D01*
X196282333Y41028019D01*
X196139476Y40980400D01*
X196044238Y40885161D01*
X195996619Y40789923D01*
X195949000Y40599447D01*
X195949000Y40456590D01*
X195996619Y40266114D01*
X196044238Y40170876D01*
X196139476Y40075638D01*
X196282333Y40028019D01*
X196520428Y40028019D01*
X195091857Y40694685D02*
X195091857Y40028019D01*
X195329952Y41075638D02*
X195568047Y40361352D01*
X194949000Y40361352D01*
X189566666Y26047619D02*
X189900000Y26523809D01*
X190138095Y26047619D02*
X190138095Y27047619D01*
X189757142Y27047619D01*
X189661904Y27000000D01*
X189614285Y26952380D01*
X189566666Y26857142D01*
X189566666Y26714285D01*
X189614285Y26619047D01*
X189661904Y26571428D01*
X189757142Y26523809D01*
X190138095Y26523809D01*
X188661904Y27047619D02*
X189138095Y27047619D01*
X189185714Y26571428D01*
X189138095Y26619047D01*
X189042857Y26666666D01*
X188804761Y26666666D01*
X188709523Y26619047D01*
X188661904Y26571428D01*
X188614285Y26476190D01*
X188614285Y26238095D01*
X188661904Y26142857D01*
X188709523Y26095238D01*
X188804761Y26047619D01*
X189042857Y26047619D01*
X189138095Y26095238D01*
X189185714Y26142857D01*
X172552380Y22316666D02*
X172076190Y22650000D01*
X172552380Y22888095D02*
X171552380Y22888095D01*
X171552380Y22507142D01*
X171600000Y22411904D01*
X171647619Y22364285D01*
X171742857Y22316666D01*
X171885714Y22316666D01*
X171980952Y22364285D01*
X172028571Y22411904D01*
X172076190Y22507142D01*
X172076190Y22888095D01*
X171552380Y21459523D02*
X171552380Y21650000D01*
X171600000Y21745238D01*
X171647619Y21792857D01*
X171790476Y21888095D01*
X171980952Y21935714D01*
X172361904Y21935714D01*
X172457142Y21888095D01*
X172504761Y21840476D01*
X172552380Y21745238D01*
X172552380Y21554761D01*
X172504761Y21459523D01*
X172457142Y21411904D01*
X172361904Y21364285D01*
X172123809Y21364285D01*
X172028571Y21411904D01*
X171980952Y21459523D01*
X171933333Y21554761D01*
X171933333Y21745238D01*
X171980952Y21840476D01*
X172028571Y21888095D01*
X172123809Y21935714D01*
X180088095Y30347619D02*
X180088095Y29538095D01*
X180040476Y29442857D01*
X179992857Y29395238D01*
X179897619Y29347619D01*
X179707142Y29347619D01*
X179611904Y29395238D01*
X179564285Y29442857D01*
X179516666Y29538095D01*
X179516666Y30347619D01*
X179088095Y29395238D02*
X178945238Y29347619D01*
X178707142Y29347619D01*
X178611904Y29395238D01*
X178564285Y29442857D01*
X178516666Y29538095D01*
X178516666Y29633333D01*
X178564285Y29728571D01*
X178611904Y29776190D01*
X178707142Y29823809D01*
X178897619Y29871428D01*
X178992857Y29919047D01*
X179040476Y29966666D01*
X179088095Y30061904D01*
X179088095Y30157142D01*
X179040476Y30252380D01*
X178992857Y30300000D01*
X178897619Y30347619D01*
X178659523Y30347619D01*
X178516666Y30300000D01*
X177754761Y29871428D02*
X177611904Y29823809D01*
X177564285Y29776190D01*
X177516666Y29680952D01*
X177516666Y29538095D01*
X177564285Y29442857D01*
X177611904Y29395238D01*
X177707142Y29347619D01*
X178088095Y29347619D01*
X178088095Y30347619D01*
X177754761Y30347619D01*
X177659523Y30300000D01*
X177611904Y30252380D01*
X177564285Y30157142D01*
X177564285Y30061904D01*
X177611904Y29966666D01*
X177659523Y29919047D01*
X177754761Y29871428D01*
X178088095Y29871428D01*
X176564285Y29347619D02*
X177135714Y29347619D01*
X176850000Y29347619D02*
X176850000Y30347619D01*
X176945238Y30204761D01*
X177040476Y30109523D01*
X177135714Y30061904D01*
X172278571Y27133333D02*
X172278571Y27466666D01*
X172802380Y27466666D02*
X171802380Y27466666D01*
X171802380Y26990476D01*
X172802380Y26085714D02*
X172802380Y26657142D01*
X172802380Y26371428D02*
X171802380Y26371428D01*
X171945238Y26466666D01*
X172040476Y26561904D01*
X172088095Y26657142D01*
M02*
